{"glyphs":{"0":{"ha":964,"x_min":94,"x_max":871,"o":"m 485 -14 q 274 49 361 -14 q 140 224 186 111 q 94 486 94 336 q 140 749 94 636 q 274 924 186 861 q 485 986 361 986 q 693 924 607 986 q 825 749 779 861 q 871 486 871 636 q 825 224 871 336 q 693 49 779 111 q 485 -14 607 -14 m 485 122 q 662 217 599 122 q 725 486 725 313 q 662 755 725 660 q 485 850 599 850 q 303 755 368 850 q 239 486 239 660 q 303 217 239 313 q 485 122 368 122 z "},"1":{"ha":785,"x_min":150,"x_max":668,"o":"m 353 68 l 353 857 l 406 833 l 196 719 l 150 847 l 407 986 l 504 986 l 504 68 l 353 68 m 176 0 l 176 144 l 668 144 l 668 0 l 176 0 z "},"2":{"ha":888,"x_min":104,"x_max":800,"o":"m 163 0 l 117 114 l 428 431 q 492 497 460 463 q 552 568 524 532 q 598 640 581 604 q 615 707 615 675 q 597 783 615 751 q 542 831 578 814 q 454 847 506 847 q 365 826 410 847 q 281 763 319 804 q 217 663 243 722 l 104 736 q 188 869 135 813 q 314 956 242 925 q 472 986 386 986 q 628 952 561 986 q 732 858 694 918 q 769 721 769 799 q 757 642 769 681 q 722 565 744 603 q 669 488 700 526 q 603 408 639 449 q 526 326 567 368 l 297 94 l 272 144 l 800 144 l 800 0 l 163 0 z "},"3":{"ha":865,"x_min":67,"x_max":781,"o":"m 415 -14 q 215 38 299 -14 q 67 192 132 90 l 183 274 q 251 193 215 228 q 328 138 286 158 q 421 118 369 118 q 524 140 475 118 q 605 203 574 161 q 636 306 636 244 q 610 398 636 361 q 542 453 585 435 q 450 471 500 471 q 399 467 425 471 q 349 456 374 463 q 296 438 324 449 l 250 540 l 578 876 l 590 833 l 121 833 l 121 972 l 733 972 l 761 900 l 415 542 l 381 594 q 424 604 394 600 q 479 608 454 608 q 595 586 540 608 q 691 524 650 564 q 756 431 732 485 q 781 315 781 378 q 731 144 781 218 q 600 28 682 69 q 415 -14 518 -14 z "},"4":{"ha":949,"x_min":64,"x_max":881,"o":"m 544 0 l 544 832 l 601 826 l 206 361 l 203 401 l 881 401 l 881 264 l 128 264 l 64 389 l 563 972 l 689 972 l 689 0 l 544 0 z "},"5":{"ha":894,"x_min":93,"x_max":789,"o":"m 418 -10 q 234 34 318 -10 q 93 153 150 78 l 175 256 q 299 158 240 189 q 418 128 357 128 q 534 153 483 128 q 615 222 585 178 q 644 322 644 265 q 615 419 644 376 q 538 488 586 463 q 429 514 489 514 q 357 508 390 514 q 290 488 324 501 q 213 456 256 475 l 133 560 l 190 972 l 738 972 l 738 833 l 285 833 l 311 860 l 265 551 l 233 592 q 285 619 249 606 q 368 641 322 632 q 456 650 414 650 q 625 610 550 650 q 744 497 700 569 q 789 331 789 425 q 740 158 789 235 q 608 35 692 81 q 418 -10 524 -10 z "},"6":{"ha":904,"x_min":94,"x_max":814,"o":"m 454 0 q 313 26 379 0 q 199 97 247 51 q 122 205 150 142 q 94 343 94 268 q 108 442 94 390 q 147 549 121 493 q 207 663 172 604 q 285 782 242 722 l 433 989 l 592 989 l 597 975 l 406 718 q 322 591 360 654 q 259 469 285 528 q 222 361 233 410 l 167 488 q 228 565 194 531 q 303 626 263 600 q 392 665 344 651 q 494 679 440 679 q 654 637 582 679 q 770 522 726 594 q 814 361 814 450 q 769 178 814 260 q 643 48 724 96 q 454 0 563 0 m 454 139 q 563 164 514 139 q 641 235 613 189 q 669 343 669 282 q 642 438 669 393 q 566 512 614 483 q 457 540 518 540 q 342 513 392 540 q 266 442 293 486 q 239 344 239 397 q 266 242 239 289 q 341 167 293 194 q 454 139 389 139 z "},"7":{"ha":839,"x_min":100,"x_max":760,"o":"m 211 0 l 614 878 l 631 833 l 100 833 l 100 972 l 740 972 l 760 876 l 372 0 l 211 0 z "},"8":{"ha":935,"x_min":111,"x_max":824,"o":"m 467 -4 q 285 35 365 -4 q 158 140 204 74 q 111 285 111 206 q 125 370 111 332 q 164 438 139 408 q 223 492 189 468 q 299 535 257 517 l 290 494 q 231 528 258 508 q 184 574 204 547 q 153 634 164 601 q 142 704 142 667 q 185 839 142 778 q 303 936 229 900 q 467 972 376 972 q 631 936 557 972 q 747 839 704 900 q 790 704 790 778 q 779 632 790 665 q 748 573 768 599 q 700 528 728 547 q 642 494 672 508 l 638 529 q 713 488 679 513 q 772 431 747 463 q 810 362 797 399 q 824 285 824 325 q 776 139 824 204 q 649 35 729 74 q 467 -4 568 -4 m 467 135 q 574 155 526 135 q 649 209 621 175 q 676 288 676 243 q 649 368 676 333 q 573 422 621 403 q 467 442 525 442 q 360 422 408 442 q 285 368 313 403 q 257 288 257 333 q 285 210 257 244 q 360 155 313 175 q 467 135 407 135 m 467 572 q 556 590 517 572 q 619 637 596 607 q 643 706 643 667 q 620 770 643 742 q 557 816 597 799 q 467 833 517 833 q 375 816 415 833 q 312 770 335 799 q 289 706 289 742 q 313 637 289 667 q 376 590 336 607 q 467 572 417 572 z "},"9":{"ha":890,"x_min":86,"x_max":800,"o":"m 367 0 l 361 14 l 689 628 l 688 518 q 626 444 658 478 q 556 388 593 411 q 478 351 518 364 q 392 338 438 338 q 239 379 308 338 q 128 490 169 421 q 86 642 86 560 q 134 819 86 742 q 264 943 182 897 q 447 989 346 989 q 583 964 519 989 q 696 894 647 939 q 772 791 744 850 q 800 664 800 732 q 789 581 800 625 q 758 485 778 536 q 708 373 738 433 q 643 242 679 313 l 517 0 l 367 0 m 432 476 q 544 501 496 476 q 618 568 592 526 q 644 658 644 610 q 619 755 644 711 q 546 824 593 799 q 435 850 499 850 q 335 826 381 850 q 264 760 290 801 q 238 660 238 718 q 263 571 238 613 q 332 503 288 529 q 432 476 376 476 z "},"A":{"ha":1135,"x_min":72,"x_max":1063,"o":"m 72 0 l 488 972 l 650 972 l 1063 0 l 900 0 l 636 619 q 617 669 629 636 q 592 739 606 701 q 565 810 578 776 q 546 864 553 844 l 583 865 q 562 804 574 838 q 537 736 550 771 q 511 670 524 701 q 489 614 499 639 l 226 0 l 72 0 m 254 236 l 313 381 l 807 381 l 856 236 l 254 236 z "},"Á":{"ha":1135,"x_min":72,"x_max":1063,"o":"m 72 0 l 488 972 l 650 972 l 1063 0 l 900 0 l 636 619 q 617 669 629 636 q 592 739 606 701 q 565 810 578 776 q 546 864 553 844 l 583 865 q 562 804 574 838 q 537 736 550 771 q 511 670 524 701 q 489 614 499 639 l 226 0 l 72 0 m 254 236 l 313 381 l 807 381 l 856 236 l 254 236 m 467 1049 l 428 1121 l 682 1278 l 747 1153 l 467 1049 z "},"Ă":{"ha":1135,"x_min":72,"x_max":1063,"o":"m 72 0 l 488 972 l 650 972 l 1063 0 l 900 0 l 636 619 q 617 669 629 636 q 592 739 606 701 q 565 810 578 776 q 546 864 553 844 l 583 865 q 562 804 574 838 q 537 736 550 771 q 511 670 524 701 q 489 614 499 639 l 226 0 l 72 0 m 254 236 l 313 381 l 807 381 l 856 236 l 254 236 m 567 1043 q 463 1069 510 1043 q 385 1137 417 1094 q 342 1229 354 1179 l 444 1246 q 492 1183 460 1211 q 567 1156 524 1156 q 642 1183 610 1156 q 689 1246 674 1211 l 792 1229 q 749 1137 781 1179 q 671 1069 717 1094 q 567 1043 625 1043 z "},"Ắ":{"ha":1135,"x_min":72,"x_max":1063,"o":"m 72 0 l 488 972 l 650 972 l 1063 0 l 900 0 l 636 619 q 617 669 629 636 q 592 739 606 701 q 565 810 578 776 q 546 864 553 844 l 583 865 q 562 804 574 838 q 537 736 550 771 q 511 670 524 701 q 489 614 499 639 l 226 0 l 72 0 m 254 236 l 313 381 l 807 381 l 856 236 l 254 236 m 567 1043 q 420 1093 481 1043 q 342 1229 360 1143 l 439 1246 q 491 1173 458 1196 q 567 1150 524 1150 q 642 1173 610 1150 q 694 1246 675 1196 l 792 1229 q 713 1093 774 1143 q 567 1043 653 1043 m 575 1229 l 508 1282 l 624 1485 l 743 1397 l 575 1229 z "},"Ặ":{"ha":1135,"x_min":72,"x_max":1063,"o":"m 72 0 l 488 972 l 650 972 l 1063 0 l 900 0 l 636 619 q 617 669 629 636 q 592 739 606 701 q 565 810 578 776 q 546 864 553 844 l 583 865 q 562 804 574 838 q 537 736 550 771 q 511 670 524 701 q 489 614 499 639 l 226 0 l 72 0 m 254 236 l 313 381 l 807 381 l 856 236 l 254 236 m 567 -286 q 495 -262 519 -286 q 471 -196 471 -237 q 496 -132 471 -158 q 567 -106 521 -106 q 638 -130 614 -106 q 663 -196 663 -154 q 638 -260 663 -233 q 567 -286 613 -286 m 567 1043 q 463 1069 510 1043 q 385 1137 417 1094 q 342 1229 354 1179 l 444 1246 q 492 1183 460 1211 q 567 1156 524 1156 q 642 1183 610 1156 q 689 1246 674 1211 l 792 1229 q 749 1137 781 1179 q 671 1069 717 1094 q 567 1043 625 1043 z "},"Ằ":{"ha":1135,"x_min":72,"x_max":1063,"o":"m 72 0 l 488 972 l 650 972 l 1063 0 l 900 0 l 636 619 q 617 669 629 636 q 592 739 606 701 q 565 810 578 776 q 546 864 553 844 l 583 865 q 562 804 574 838 q 537 736 550 771 q 511 670 524 701 q 489 614 499 639 l 226 0 l 72 0 m 254 236 l 313 381 l 807 381 l 856 236 l 254 236 m 567 1043 q 420 1093 481 1043 q 342 1229 360 1143 l 439 1246 q 491 1173 460 1196 q 567 1150 522 1150 q 642 1173 610 1150 q 694 1246 675 1196 l 792 1229 q 713 1093 774 1143 q 567 1043 653 1043 m 565 1229 l 397 1397 l 517 1485 l 632 1282 l 565 1229 z "},"Ẳ":{"ha":1135,"x_min":72,"x_max":1063,"o":"m 72 0 l 488 972 l 650 972 l 1063 0 l 900 0 l 636 619 q 617 669 629 636 q 592 739 606 701 q 565 810 578 776 q 546 864 553 844 l 583 865 q 562 804 574 838 q 537 736 550 771 q 511 670 524 701 q 489 614 499 639 l 226 0 l 72 0 m 254 236 l 313 381 l 807 381 l 856 236 l 254 236 m 567 1043 q 420 1093 481 1043 q 342 1229 360 1143 l 439 1246 q 491 1173 458 1196 q 567 1150 524 1150 q 642 1173 610 1150 q 694 1246 675 1196 l 792 1229 q 713 1093 774 1143 q 567 1043 653 1043 m 539 1229 q 524 1253 531 1240 q 518 1278 518 1265 q 524 1303 518 1290 q 556 1332 531 1315 q 587 1354 576 1346 q 597 1368 597 1363 q 585 1386 597 1381 q 556 1392 574 1392 q 507 1385 533 1392 q 457 1367 481 1378 l 435 1454 q 497 1479 464 1471 q 558 1488 531 1488 q 669 1456 632 1488 q 706 1381 706 1425 q 688 1334 706 1351 q 654 1306 671 1317 q 617 1281 628 1290 q 606 1263 606 1271 q 607 1255 606 1258 q 610 1247 608 1251 l 539 1229 z "},"Ẵ":{"ha":1135,"x_min":72,"x_max":1063,"o":"m 72 0 l 488 972 l 650 972 l 1063 0 l 900 0 l 636 619 q 617 669 629 636 q 592 739 606 701 q 565 810 578 776 q 546 864 553 844 l 583 865 q 562 804 574 838 q 537 736 550 771 q 511 670 524 701 q 489 614 499 639 l 226 0 l 72 0 m 254 236 l 313 381 l 807 381 l 856 236 l 254 236 m 567 1043 q 420 1089 481 1043 q 342 1215 360 1135 l 439 1232 q 491 1169 458 1189 q 567 1150 524 1150 q 642 1169 610 1150 q 694 1232 675 1189 l 792 1215 q 713 1089 774 1135 q 567 1043 653 1043 m 675 1301 q 613 1311 642 1301 q 561 1331 585 1321 q 519 1349 536 1342 q 489 1356 503 1356 q 457 1342 471 1356 q 438 1304 443 1328 l 343 1318 q 385 1417 346 1375 q 479 1460 424 1460 q 533 1450 508 1460 q 582 1429 557 1440 q 619 1413 600 1421 q 651 1406 638 1406 q 681 1419 671 1406 q 697 1458 692 1432 l 792 1444 q 776 1373 790 1406 q 738 1321 763 1340 q 675 1301 713 1301 z "},"Ǎ":{"ha":1135,"x_min":72,"x_max":1063,"o":"m 72 0 l 488 972 l 650 972 l 1063 0 l 900 0 l 636 619 q 617 669 629 636 q 592 739 606 701 q 565 810 578 776 q 546 864 553 844 l 583 865 q 562 804 574 838 q 537 736 550 771 q 511 670 524 701 q 489 614 499 639 l 226 0 l 72 0 m 254 236 l 313 381 l 807 381 l 856 236 l 254 236 m 507 1051 l 340 1194 l 393 1240 l 588 1153 l 546 1153 l 740 1240 l 793 1194 l 626 1051 l 507 1051 z "},"Â":{"ha":1135,"x_min":72,"x_max":1063,"o":"m 72 0 l 488 972 l 650 972 l 1063 0 l 900 0 l 636 619 q 617 669 629 636 q 592 739 606 701 q 565 810 578 776 q 546 864 553 844 l 583 865 q 562 804 574 838 q 537 736 550 771 q 511 670 524 701 q 489 614 499 639 l 226 0 l 72 0 m 254 236 l 313 381 l 807 381 l 856 236 l 254 236 m 394 1049 l 343 1097 l 515 1238 l 617 1238 l 789 1097 l 738 1049 l 546 1139 l 586 1139 l 394 1049 z "},"Ấ":{"ha":1135,"x_min":72,"x_max":1063,"o":"m 72 0 l 488 972 l 650 972 l 1063 0 l 900 0 l 636 619 q 617 669 629 636 q 592 739 606 701 q 565 810 578 776 q 546 864 553 844 l 583 865 q 562 804 574 838 q 537 736 550 771 q 511 670 524 701 q 489 614 499 639 l 226 0 l 72 0 m 254 236 l 313 381 l 807 381 l 856 236 l 254 236 m 394 1049 l 349 1099 l 515 1235 l 617 1235 l 783 1099 l 738 1049 l 546 1136 l 586 1136 l 394 1049 m 792 1200 l 719 1250 l 833 1453 l 954 1367 l 792 1200 z "},"Ậ":{"ha":1135,"x_min":72,"x_max":1063,"o":"m 72 0 l 488 972 l 650 972 l 1063 0 l 900 0 l 636 619 q 617 669 629 636 q 592 739 606 701 q 565 810 578 776 q 546 864 553 844 l 583 865 q 562 804 574 838 q 537 736 550 771 q 511 670 524 701 q 489 614 499 639 l 226 0 l 72 0 m 254 236 l 313 381 l 807 381 l 856 236 l 254 236 m 567 -286 q 495 -262 519 -286 q 471 -196 471 -237 q 496 -132 471 -158 q 567 -106 521 -106 q 638 -130 614 -106 q 663 -196 663 -154 q 638 -260 663 -233 q 567 -286 613 -286 m 394 1049 l 343 1097 l 515 1238 l 617 1238 l 789 1097 l 738 1049 l 546 1139 l 586 1139 l 394 1049 z "},"Ầ":{"ha":1135,"x_min":72,"x_max":1063,"o":"m 72 0 l 488 972 l 650 972 l 1063 0 l 900 0 l 636 619 q 617 669 629 636 q 592 739 606 701 q 565 810 578 776 q 546 864 553 844 l 583 865 q 562 804 574 838 q 537 736 550 771 q 511 670 524 701 q 489 614 499 639 l 226 0 l 72 0 m 254 236 l 313 381 l 807 381 l 856 236 l 254 236 m 394 1049 l 349 1099 l 515 1235 l 617 1235 l 783 1099 l 738 1049 l 546 1136 l 586 1136 l 394 1049 m 796 1201 l 628 1369 l 747 1457 l 863 1254 l 796 1201 z "},"Ẩ":{"ha":1135,"x_min":72,"x_max":1063,"o":"m 72 0 l 488 972 l 650 972 l 1063 0 l 900 0 l 636 619 q 617 669 629 636 q 592 739 606 701 q 565 810 578 776 q 546 864 553 844 l 583 865 q 562 804 574 838 q 537 736 550 771 q 511 670 524 701 q 489 614 499 639 l 226 0 l 72 0 m 254 236 l 313 381 l 807 381 l 856 236 l 254 236 m 394 1049 l 349 1099 l 515 1235 l 617 1235 l 783 1099 l 738 1049 l 546 1136 l 586 1136 l 394 1049 m 753 1199 q 738 1222 744 1210 q 732 1247 732 1235 q 738 1272 732 1260 q 769 1301 744 1285 q 801 1324 790 1315 q 811 1338 811 1332 q 799 1356 811 1350 q 769 1361 788 1361 q 721 1354 747 1361 q 671 1336 694 1347 l 649 1424 q 711 1449 678 1440 q 772 1457 744 1457 q 883 1426 846 1457 q 919 1350 919 1394 q 902 1303 919 1321 q 868 1275 885 1286 q 831 1250 842 1260 q 819 1232 819 1240 q 821 1224 819 1228 q 824 1217 822 1221 l 753 1199 z "},"Ẫ":{"ha":1135,"x_min":72,"x_max":1063,"o":"m 72 0 l 488 972 l 650 972 l 1063 0 l 900 0 l 636 619 q 617 669 629 636 q 592 739 606 701 q 565 810 578 776 q 546 864 553 844 l 583 865 q 562 804 574 838 q 537 736 550 771 q 511 670 524 701 q 489 614 499 639 l 226 0 l 72 0 m 254 236 l 313 381 l 807 381 l 856 236 l 254 236 m 394 1049 l 349 1099 l 515 1235 l 617 1235 l 783 1099 l 738 1049 l 546 1136 l 586 1136 l 394 1049 m 674 1301 q 612 1311 640 1301 q 560 1331 583 1321 q 518 1349 535 1342 q 488 1356 501 1356 q 456 1342 469 1356 q 436 1304 442 1328 l 342 1318 q 383 1417 344 1375 q 478 1460 422 1460 q 531 1450 507 1460 q 581 1429 556 1440 q 617 1413 599 1421 q 650 1406 636 1406 q 680 1419 669 1406 q 696 1458 690 1432 l 790 1444 q 775 1373 789 1406 q 736 1321 761 1340 q 674 1301 711 1301 z "},"Ȁ":{"ha":1135,"x_min":72,"x_max":1063,"o":"m 72 0 l 488 972 l 650 972 l 1063 0 l 900 0 l 636 619 q 617 669 629 636 q 592 739 606 701 q 565 810 578 776 q 546 864 553 844 l 583 865 q 562 804 574 838 q 537 736 550 771 q 511 670 524 701 q 489 614 499 639 l 226 0 l 72 0 m 254 236 l 313 381 l 807 381 l 856 236 l 254 236 m 714 1042 l 485 1193 l 585 1299 l 767 1108 l 714 1042 m 438 1042 l 208 1193 l 308 1299 l 490 1108 l 438 1042 z "},"Ä":{"ha":1135,"x_min":72,"x_max":1063,"o":"m 72 0 l 488 972 l 650 972 l 1063 0 l 900 0 l 636 619 q 617 669 629 636 q 592 739 606 701 q 565 810 578 776 q 546 864 553 844 l 583 865 q 562 804 574 838 q 537 736 550 771 q 511 670 524 701 q 489 614 499 639 l 226 0 l 72 0 m 254 236 l 313 381 l 807 381 l 856 236 l 254 236 m 710 1054 q 638 1079 661 1054 q 614 1144 614 1104 q 638 1207 614 1179 q 710 1235 661 1235 q 782 1210 758 1235 q 806 1144 806 1185 q 782 1082 806 1110 q 710 1054 758 1054 m 424 1054 q 351 1079 375 1054 q 328 1144 328 1104 q 351 1207 328 1179 q 424 1235 375 1235 q 496 1210 472 1235 q 519 1144 519 1185 q 496 1082 519 1110 q 424 1054 472 1054 z "},"Ạ":{"ha":1135,"x_min":72,"x_max":1063,"o":"m 72 0 l 488 972 l 650 972 l 1063 0 l 900 0 l 636 619 q 617 669 629 636 q 592 739 606 701 q 565 810 578 776 q 546 864 553 844 l 583 865 q 562 804 574 838 q 537 736 550 771 q 511 670 524 701 q 489 614 499 639 l 226 0 l 72 0 m 254 236 l 313 381 l 807 381 l 856 236 l 254 236 m 567 -286 q 495 -262 519 -286 q 471 -196 471 -237 q 496 -132 471 -158 q 567 -106 521 -106 q 638 -130 614 -106 q 663 -196 663 -154 q 638 -260 663 -233 q 567 -286 613 -286 z "},"À":{"ha":1135,"x_min":72,"x_max":1063,"o":"m 72 0 l 488 972 l 650 972 l 1063 0 l 900 0 l 636 619 q 617 669 629 636 q 592 739 606 701 q 565 810 578 776 q 546 864 553 844 l 583 865 q 562 804 574 838 q 537 736 550 771 q 511 670 524 701 q 489 614 499 639 l 226 0 l 72 0 m 254 236 l 313 381 l 807 381 l 856 236 l 254 236 m 678 1049 l 397 1153 l 465 1278 l 719 1121 l 678 1049 z "},"Ả":{"ha":1135,"x_min":72,"x_max":1063,"o":"m 72 0 l 488 972 l 650 972 l 1063 0 l 900 0 l 636 619 q 617 669 629 636 q 592 739 606 701 q 565 810 578 776 q 546 864 553 844 l 583 865 q 562 804 574 838 q 537 736 550 771 q 511 670 524 701 q 489 614 499 639 l 226 0 l 72 0 m 254 236 l 313 381 l 807 381 l 856 236 l 254 236 m 535 1053 q 519 1080 525 1067 q 514 1106 514 1093 q 522 1133 514 1118 q 551 1164 529 1149 q 584 1188 575 1179 q 593 1206 593 1196 q 581 1224 593 1218 q 551 1229 569 1229 q 503 1222 529 1229 q 453 1204 476 1215 l 431 1292 q 493 1317 460 1308 q 554 1325 526 1325 q 665 1294 628 1325 q 701 1218 701 1263 q 685 1163 701 1183 q 650 1133 669 1143 q 613 1112 625 1121 q 601 1089 601 1103 q 603 1079 601 1083 q 606 1071 604 1075 l 535 1053 z "},"Ȃ":{"ha":1135,"x_min":72,"x_max":1063,"o":"m 72 0 l 488 972 l 650 972 l 1063 0 l 900 0 l 636 619 q 617 669 629 636 q 592 739 606 701 q 565 810 578 776 q 546 864 553 844 l 583 865 q 562 804 574 838 q 537 736 550 771 q 511 670 524 701 q 489 614 499 639 l 226 0 l 72 0 m 254 236 l 313 381 l 807 381 l 856 236 l 254 236 m 444 1043 l 342 1060 q 385 1152 354 1110 q 463 1220 417 1194 q 567 1246 510 1246 q 671 1220 625 1246 q 749 1152 717 1194 q 792 1060 781 1110 l 689 1043 q 642 1106 674 1078 q 567 1133 610 1133 q 492 1106 524 1133 q 444 1043 460 1078 z "},"Ā":{"ha":1135,"x_min":72,"x_max":1063,"o":"m 72 0 l 488 972 l 650 972 l 1063 0 l 900 0 l 636 619 q 617 669 629 636 q 592 739 606 701 q 565 810 578 776 q 546 864 553 844 l 583 865 q 562 804 574 838 q 537 736 550 771 q 511 670 524 701 q 489 614 499 639 l 226 0 l 72 0 m 254 236 l 313 381 l 807 381 l 856 236 l 254 236 m 336 1093 l 336 1197 l 796 1197 l 796 1093 l 336 1093 z "},"Ą":{"ha":1135,"x_min":72,"x_max":1094,"o":"m 72 0 l 488 972 l 650 972 l 1063 0 l 900 0 l 636 619 q 617 669 629 636 q 592 739 606 701 q 565 810 578 776 q 546 864 553 844 l 583 865 q 562 804 574 838 q 537 736 550 771 q 511 670 524 701 q 489 614 499 639 l 226 0 l 72 0 m 254 236 l 313 381 l 807 381 l 856 236 l 254 236 m 943 -278 q 867 -259 901 -278 q 813 -208 833 -240 q 792 -136 792 -176 q 808 -67 792 -99 q 853 -9 824 -35 q 922 35 883 17 q 1007 67 961 54 l 1063 0 q 988 -31 1021 -11 q 936 -73 954 -50 q 918 -121 918 -96 q 931 -157 918 -143 q 965 -171 944 -171 q 994 -162 982 -171 q 1017 -136 1007 -153 l 1094 -192 q 1039 -251 1082 -225 q 943 -278 996 -278 z "},"Å":{"ha":1135,"x_min":72,"x_max":1063,"o":"m 72 0 l 488 972 l 650 972 l 1063 0 l 900 0 l 636 619 q 617 669 629 636 q 592 739 606 701 q 565 810 578 776 q 546 864 553 844 l 583 865 q 562 804 574 838 q 537 736 550 771 q 511 670 524 701 q 489 614 499 639 l 226 0 l 72 0 m 254 236 l 313 381 l 807 381 l 856 236 l 254 236 m 565 988 q 492 1008 526 988 q 435 1061 457 1028 q 414 1133 414 1094 q 435 1208 414 1175 q 492 1261 457 1242 q 565 1281 526 1281 q 640 1261 606 1281 q 697 1208 675 1242 q 718 1133 718 1175 q 697 1061 718 1094 q 640 1008 675 1028 q 565 988 606 988 m 565 1069 q 615 1088 594 1069 q 635 1133 635 1107 q 614 1182 635 1165 q 565 1199 593 1199 q 517 1181 538 1199 q 497 1133 497 1163 q 517 1088 497 1107 q 565 1069 538 1069 z "},"Ǻ":{"ha":1135,"x_min":72,"x_max":1063,"o":"m 72 0 l 488 972 l 650 972 l 1063 0 l 900 0 l 636 619 q 617 669 629 636 q 592 739 606 701 q 565 810 578 776 q 546 864 553 844 l 583 865 q 562 804 574 838 q 537 736 550 771 q 511 670 524 701 q 489 614 499 639 l 226 0 l 72 0 m 254 236 l 313 381 l 807 381 l 856 236 l 254 236 m 565 988 q 492 1008 526 988 q 435 1061 457 1028 q 414 1133 414 1094 q 435 1208 414 1175 q 492 1261 457 1242 q 565 1281 526 1281 q 640 1261 606 1281 q 697 1208 675 1242 q 718 1133 718 1175 q 697 1061 718 1094 q 640 1008 675 1028 q 565 988 606 988 m 565 1069 q 615 1088 594 1069 q 635 1133 635 1107 q 614 1182 635 1165 q 565 1199 593 1199 q 517 1181 538 1199 q 497 1133 497 1163 q 517 1088 497 1107 q 565 1069 538 1069 m 467 1315 l 428 1388 l 682 1544 l 747 1419 l 467 1315 z "},"Ã":{"ha":1135,"x_min":72,"x_max":1063,"o":"m 72 0 l 488 972 l 650 972 l 1063 0 l 900 0 l 636 619 q 617 669 629 636 q 592 739 606 701 q 565 810 578 776 q 546 864 553 844 l 583 865 q 562 804 574 838 q 537 736 550 771 q 511 670 524 701 q 489 614 499 639 l 226 0 l 72 0 m 254 236 l 313 381 l 807 381 l 856 236 l 254 236 m 669 1067 q 605 1077 638 1067 q 543 1099 572 1088 q 503 1114 519 1108 q 472 1119 486 1119 q 442 1106 454 1119 q 431 1067 431 1093 l 324 1067 q 372 1183 324 1142 q 482 1224 421 1224 q 539 1214 511 1224 q 593 1193 567 1204 q 631 1179 613 1185 q 663 1174 650 1174 q 693 1188 682 1174 q 703 1224 704 1201 l 808 1224 q 792 1147 808 1183 q 744 1089 775 1111 q 669 1067 713 1067 z "},"Æ":{"ha":1597,"x_min":56,"x_max":1446,"o":"m 56 0 l 811 972 l 1446 972 l 1446 838 l 917 838 l 917 556 l 1383 556 l 1383 419 l 917 419 l 917 135 l 1446 135 l 1446 0 l 772 0 l 772 213 l 358 213 l 463 347 l 772 347 l 772 785 l 810 771 l 218 0 l 56 0 z "},"Ǽ":{"ha":1597,"x_min":56,"x_max":1446,"o":"m 56 0 l 811 972 l 1446 972 l 1446 838 l 917 838 l 917 556 l 1383 556 l 1383 419 l 917 419 l 917 135 l 1446 135 l 1446 0 l 772 0 l 772 213 l 358 213 l 463 347 l 772 347 l 772 785 l 810 771 l 218 0 l 56 0 m 963 1049 l 924 1121 l 1178 1278 l 1243 1153 l 963 1049 z "},"B":{"ha":1121,"x_min":183,"x_max":1010,"o":"m 183 0 l 183 972 l 639 972 q 814 944 743 972 q 922 862 885 917 q 958 728 958 807 q 911 594 958 650 q 778 517 864 538 l 782 543 q 897 496 846 529 q 979 410 949 463 q 1010 286 1010 357 q 983 156 1010 211 q 908 67 956 101 q 797 17 860 33 q 661 0 735 0 l 183 0 m 333 144 l 658 144 q 763 160 719 144 q 832 209 807 176 q 857 289 857 242 q 828 368 857 338 q 753 413 800 399 q 651 428 707 428 l 333 428 l 333 144 m 333 572 l 644 572 q 726 589 689 572 q 784 635 763 606 q 806 701 806 664 q 757 797 806 765 q 628 828 708 828 l 333 828 l 333 572 z "},"C":{"ha":1111,"x_min":111,"x_max":1011,"o":"m 614 -14 q 415 22 507 -14 q 255 125 324 58 q 149 283 186 192 q 111 486 111 375 q 151 681 111 592 q 262 838 192 771 q 424 943 332 906 q 621 981 517 981 q 776 958 701 981 q 913 897 851 935 q 1011 815 974 860 l 915 701 q 824 772 871 743 q 724 816 776 800 q 615 832 672 832 q 482 807 546 832 q 369 736 418 782 q 292 626 321 690 q 264 486 264 563 q 292 339 264 404 q 372 228 321 274 q 489 159 422 183 q 633 135 556 135 q 747 151 694 135 q 844 194 800 168 q 924 253 888 221 l 997 129 q 903 61 963 94 q 768 7 843 28 q 614 -14 693 -14 z "},"Ć":{"ha":1111,"x_min":111,"x_max":1011,"o":"m 614 -14 q 415 22 507 -14 q 255 125 324 58 q 149 283 186 192 q 111 486 111 375 q 151 681 111 592 q 262 838 192 771 q 424 943 332 906 q 621 981 517 981 q 776 958 701 981 q 913 897 851 935 q 1011 815 974 860 l 915 701 q 824 772 871 743 q 724 816 776 800 q 615 832 672 832 q 482 807 546 832 q 369 736 418 782 q 292 626 321 690 q 264 486 264 563 q 292 339 264 404 q 372 228 321 274 q 489 159 422 183 q 633 135 556 135 q 747 151 694 135 q 844 194 800 168 q 924 253 888 221 l 997 129 q 903 61 963 94 q 768 7 843 28 q 614 -14 693 -14 m 521 1049 l 482 1121 l 736 1278 l 801 1153 l 521 1049 z "},"Č":{"ha":1111,"x_min":111,"x_max":1011,"o":"m 614 -14 q 415 22 507 -14 q 255 125 324 58 q 149 283 186 192 q 111 486 111 375 q 151 681 111 592 q 262 838 192 771 q 424 943 332 906 q 621 981 517 981 q 776 958 701 981 q 913 897 851 935 q 1011 815 974 860 l 915 701 q 824 772 871 743 q 724 816 776 800 q 615 832 672 832 q 482 807 546 832 q 369 736 418 782 q 292 626 321 690 q 264 486 264 563 q 292 339 264 404 q 372 228 321 274 q 489 159 422 183 q 633 135 556 135 q 747 151 694 135 q 844 194 800 168 q 924 253 888 221 l 997 129 q 903 61 963 94 q 768 7 843 28 q 614 -14 693 -14 m 561 1051 l 394 1194 l 447 1240 l 642 1153 l 600 1153 l 794 1240 l 847 1194 l 681 1051 l 561 1051 z "},"Ç":{"ha":1111,"x_min":111,"x_max":1011,"o":"m 614 -14 q 415 22 507 -14 q 255 125 324 58 q 149 283 186 192 q 111 486 111 375 q 151 681 111 592 q 262 838 192 771 q 424 943 332 906 q 621 981 517 981 q 776 958 701 981 q 913 897 851 935 q 1011 815 974 860 l 915 701 q 824 772 871 743 q 724 816 776 800 q 615 832 672 832 q 482 807 546 832 q 369 736 418 782 q 292 626 321 690 q 264 486 264 563 q 292 339 264 404 q 372 228 321 274 q 489 159 422 183 q 633 135 556 135 q 747 151 694 135 q 844 194 800 168 q 924 253 888 221 l 997 129 q 903 61 963 94 q 768 7 843 28 q 614 -14 693 -14 m 478 -339 l 468 -268 q 542 -258 506 -268 q 604 -232 579 -249 q 629 -196 629 -215 q 606 -163 629 -175 q 551 -145 582 -151 q 499 -139 521 -139 l 483 -119 l 581 33 l 663 33 l 604 -64 q 704 -109 667 -78 q 742 -193 742 -140 q 718 -258 742 -229 q 656 -304 694 -286 q 570 -331 617 -322 q 478 -339 524 -340 z "},"Ḉ":{"ha":1111,"x_min":111,"x_max":1011,"o":"m 614 -14 q 415 22 507 -14 q 255 125 324 58 q 149 283 186 192 q 111 486 111 375 q 151 681 111 592 q 262 838 192 771 q 424 943 332 906 q 621 981 517 981 q 776 958 701 981 q 913 897 851 935 q 1011 815 974 860 l 915 701 q 824 772 871 743 q 724 816 776 800 q 615 832 672 832 q 482 807 546 832 q 369 736 418 782 q 292 626 321 690 q 264 486 264 563 q 292 339 264 404 q 372 228 321 274 q 489 159 422 183 q 633 135 556 135 q 747 151 694 135 q 844 194 800 168 q 924 253 888 221 l 997 129 q 903 61 963 94 q 768 7 843 28 q 614 -14 693 -14 m 478 -339 l 468 -268 q 542 -258 506 -268 q 604 -232 579 -249 q 629 -196 629 -215 q 606 -163 629 -175 q 551 -145 582 -151 q 499 -139 521 -139 l 483 -119 l 581 33 l 663 33 l 604 -64 q 704 -109 667 -78 q 742 -193 742 -140 q 718 -258 742 -229 q 656 -304 694 -286 q 570 -331 617 -322 q 478 -339 524 -340 m 521 1049 l 482 1121 l 736 1278 l 801 1153 l 521 1049 z "},"Ĉ":{"ha":1111,"x_min":111,"x_max":1011,"o":"m 614 -14 q 415 22 507 -14 q 255 125 324 58 q 149 283 186 192 q 111 486 111 375 q 151 681 111 592 q 262 838 192 771 q 424 943 332 906 q 621 981 517 981 q 776 958 701 981 q 913 897 851 935 q 1011 815 974 860 l 915 701 q 824 772 871 743 q 724 816 776 800 q 615 832 672 832 q 482 807 546 832 q 369 736 418 782 q 292 626 321 690 q 264 486 264 563 q 292 339 264 404 q 372 228 321 274 q 489 159 422 183 q 633 135 556 135 q 747 151 694 135 q 844 194 800 168 q 924 253 888 221 l 997 129 q 903 61 963 94 q 768 7 843 28 q 614 -14 693 -14 m 449 1049 l 397 1097 l 569 1238 l 671 1238 l 843 1097 l 792 1049 l 600 1139 l 640 1139 l 449 1049 z "},"Ċ":{"ha":1111,"x_min":111,"x_max":1011,"o":"m 614 -14 q 415 22 507 -14 q 255 125 324 58 q 149 283 186 192 q 111 486 111 375 q 151 681 111 592 q 262 838 192 771 q 424 943 332 906 q 621 981 517 981 q 776 958 701 981 q 913 897 851 935 q 1011 815 974 860 l 915 701 q 824 772 871 743 q 724 816 776 800 q 615 832 672 832 q 482 807 546 832 q 369 736 418 782 q 292 626 321 690 q 264 486 264 563 q 292 339 264 404 q 372 228 321 274 q 489 159 422 183 q 633 135 556 135 q 747 151 694 135 q 844 194 800 168 q 924 253 888 221 l 997 129 q 903 61 963 94 q 768 7 843 28 q 614 -14 693 -14 m 621 1054 q 549 1079 572 1054 q 525 1144 525 1104 q 549 1207 525 1179 q 621 1235 572 1235 q 693 1210 669 1235 q 717 1144 717 1185 q 693 1082 717 1110 q 621 1054 669 1054 z "},"D":{"ha":1211,"x_min":183,"x_max":1100,"o":"m 183 0 l 183 972 l 608 972 q 815 936 724 972 q 969 833 906 900 q 1067 678 1033 767 q 1100 486 1100 590 q 1067 292 1100 381 q 970 138 1033 203 q 815 36 907 72 q 608 0 724 0 l 183 0 m 333 129 l 329 144 l 601 144 q 751 169 686 144 q 858 240 815 194 q 922 347 900 285 q 944 486 944 410 q 922 624 944 561 q 857 732 900 686 q 750 803 814 778 q 601 828 686 828 l 325 828 l 333 840 l 333 129 z "},"Ǳ":{"ha":2189,"x_min":183,"x_max":2088,"o":"m 183 0 l 183 972 l 608 972 q 815 936 724 972 q 969 833 906 900 q 1067 678 1033 767 q 1100 486 1100 590 q 1067 292 1100 381 q 970 138 1033 203 q 815 36 907 72 q 608 0 724 0 l 183 0 m 333 129 l 329 144 l 601 144 q 751 169 686 144 q 858 240 815 194 q 922 347 900 285 q 944 486 944 410 q 922 624 944 561 q 857 732 900 686 q 750 803 814 778 q 601 828 686 828 l 325 828 l 333 840 l 333 129 m 1254 0 l 1254 110 l 1872 851 l 1907 826 l 1290 826 l 1290 972 l 2072 972 l 2072 864 l 1456 121 l 1421 146 l 2088 146 l 2088 0 l 1254 0 z "},"Ǆ":{"ha":2189,"x_min":183,"x_max":2088,"o":"m 183 0 l 183 972 l 608 972 q 815 936 724 972 q 969 833 906 900 q 1067 678 1033 767 q 1100 486 1100 590 q 1067 292 1100 381 q 970 138 1033 203 q 815 36 907 72 q 608 0 724 0 l 183 0 m 333 129 l 329 144 l 601 144 q 751 169 686 144 q 858 240 815 194 q 922 347 900 285 q 944 486 944 410 q 922 624 944 561 q 857 732 900 686 q 750 803 814 778 q 601 828 686 828 l 325 828 l 333 840 l 333 129 m 1254 0 l 1254 110 l 1872 851 l 1907 826 l 1290 826 l 1290 972 l 2072 972 l 2072 864 l 1456 121 l 1421 146 l 2088 146 l 2088 0 l 1254 0 m 1608 1051 l 1442 1194 l 1494 1240 l 1689 1153 l 1647 1153 l 1842 1240 l 1894 1194 l 1728 1051 l 1608 1051 z "},"Ð":{"ha":1211,"x_min":96,"x_max":1100,"o":"m 96 425 l 96 547 l 546 547 l 546 425 l 96 425 m 183 0 l 183 972 l 608 972 q 815 936 724 972 q 969 833 906 900 q 1067 678 1033 767 q 1100 486 1100 590 q 1067 292 1100 381 q 970 138 1033 203 q 815 36 907 72 q 608 0 724 0 l 183 0 m 333 129 l 329 144 l 601 144 q 751 169 686 144 q 858 240 815 194 q 922 347 900 285 q 944 486 944 410 q 922 624 944 561 q 857 732 900 686 q 750 803 814 778 q 601 828 686 828 l 325 828 l 333 840 l 333 129 z "},"Ď":{"ha":1211,"x_min":183,"x_max":1100,"o":"m 183 0 l 183 972 l 608 972 q 815 936 724 972 q 969 833 906 900 q 1067 678 1033 767 q 1100 486 1100 590 q 1067 292 1100 381 q 970 138 1033 203 q 815 36 907 72 q 608 0 724 0 l 183 0 m 333 129 l 329 144 l 601 144 q 751 169 686 144 q 858 240 815 194 q 922 347 900 285 q 944 486 944 410 q 922 624 944 561 q 857 732 900 686 q 750 803 814 778 q 601 828 686 828 l 325 828 l 333 840 l 333 129 m 547 1051 l 381 1194 l 433 1240 l 628 1153 l 586 1153 l 781 1240 l 833 1194 l 667 1051 l 547 1051 z "},"Đ":{"ha":1211,"x_min":96,"x_max":1100,"o":"m 96 425 l 96 547 l 546 547 l 546 425 l 96 425 m 183 0 l 183 972 l 608 972 q 815 936 724 972 q 969 833 906 900 q 1067 678 1033 767 q 1100 486 1100 590 q 1067 292 1100 381 q 970 138 1033 203 q 815 36 907 72 q 608 0 724 0 l 183 0 m 333 129 l 329 144 l 601 144 q 751 169 686 144 q 858 240 815 194 q 922 347 900 285 q 944 486 944 410 q 922 624 944 561 q 857 732 900 686 q 750 803 814 778 q 601 828 686 828 l 325 828 l 333 840 l 333 129 z "},"Ḍ":{"ha":1211,"x_min":183,"x_max":1100,"o":"m 183 0 l 183 972 l 608 972 q 815 936 724 972 q 969 833 906 900 q 1067 678 1033 767 q 1100 486 1100 590 q 1067 292 1100 381 q 970 138 1033 203 q 815 36 907 72 q 608 0 724 0 l 183 0 m 333 129 l 329 144 l 601 144 q 751 169 686 144 q 858 240 815 194 q 922 347 900 285 q 944 486 944 410 q 922 624 944 561 q 857 732 900 686 q 750 803 814 778 q 601 828 686 828 l 325 828 l 333 840 l 333 129 m 607 -286 q 535 -262 560 -286 q 511 -196 511 -237 q 536 -132 511 -158 q 607 -106 561 -106 q 678 -130 654 -106 q 703 -196 703 -154 q 678 -260 703 -233 q 607 -286 653 -286 z "},"Ḏ":{"ha":1211,"x_min":183,"x_max":1100,"o":"m 183 0 l 183 972 l 608 972 q 815 936 724 972 q 969 833 906 900 q 1067 678 1033 767 q 1100 486 1100 590 q 1067 292 1100 381 q 970 138 1033 203 q 815 36 907 72 q 608 0 724 0 l 183 0 m 333 129 l 329 144 l 601 144 q 751 169 686 144 q 858 240 815 194 q 922 347 900 285 q 944 486 944 410 q 922 624 944 561 q 857 732 900 686 q 750 803 814 778 q 601 828 686 828 l 325 828 l 333 840 l 333 129 m 411 -247 l 411 -144 l 801 -144 l 801 -247 l 411 -247 z "},"ǲ":{"ha":2018,"x_min":183,"x_max":1925,"o":"m 183 0 l 183 972 l 608 972 q 815 936 724 972 q 969 833 906 900 q 1067 678 1033 767 q 1100 486 1100 590 q 1067 292 1100 381 q 970 138 1033 203 q 815 36 907 72 q 608 0 724 0 l 183 0 m 333 129 l 329 144 l 601 144 q 751 169 686 144 q 858 240 815 194 q 922 347 900 285 q 944 486 944 410 q 922 624 944 561 q 857 732 900 686 q 750 803 814 778 q 601 828 686 828 l 325 828 l 333 840 l 333 129 m 1307 0 l 1307 119 l 1757 622 l 1767 607 l 1307 607 l 1307 729 l 1917 729 l 1917 613 l 1471 117 l 1457 122 l 1925 122 l 1925 0 l 1307 0 z "},"ǅ":{"ha":2018,"x_min":183,"x_max":1925,"o":"m 183 0 l 183 972 l 608 972 q 815 936 724 972 q 969 833 906 900 q 1067 678 1033 767 q 1100 486 1100 590 q 1067 292 1100 381 q 970 138 1033 203 q 815 36 907 72 q 608 0 724 0 l 183 0 m 333 129 l 329 144 l 601 144 q 751 169 686 144 q 858 240 815 194 q 922 347 900 285 q 944 486 944 410 q 922 624 944 561 q 857 732 900 686 q 750 803 814 778 q 601 828 686 828 l 325 828 l 333 840 l 333 129 m 1307 0 l 1307 119 l 1757 622 l 1767 607 l 1307 607 l 1307 729 l 1917 729 l 1917 613 l 1471 117 l 1457 122 l 1925 122 l 1925 0 l 1307 0 m 1553 843 l 1407 1000 l 1460 1046 l 1633 944 l 1592 944 l 1765 1046 l 1818 1000 l 1672 843 l 1553 843 z "},"E":{"ha":1025,"x_min":183,"x_max":874,"o":"m 183 0 l 183 972 l 874 972 l 874 828 l 333 828 l 333 144 l 874 144 l 874 0 l 183 0 m 257 426 l 257 571 l 797 571 l 797 426 l 257 426 z "},"É":{"ha":1025,"x_min":183,"x_max":874,"o":"m 183 0 l 183 972 l 874 972 l 874 828 l 333 828 l 333 144 l 874 144 l 874 0 l 183 0 m 257 426 l 257 571 l 797 571 l 797 426 l 257 426 m 440 1049 l 401 1121 l 656 1278 l 721 1153 l 440 1049 z "},"Ĕ":{"ha":1025,"x_min":183,"x_max":874,"o":"m 183 0 l 183 972 l 874 972 l 874 828 l 333 828 l 333 144 l 874 144 l 874 0 l 183 0 m 257 426 l 257 571 l 797 571 l 797 426 l 257 426 m 540 1043 q 437 1069 483 1043 q 359 1137 390 1094 q 315 1229 328 1179 l 418 1246 q 465 1183 433 1211 q 540 1156 497 1156 q 615 1183 583 1156 q 663 1246 647 1211 l 765 1229 q 722 1137 754 1179 q 644 1069 690 1094 q 540 1043 599 1043 z "},"Ě":{"ha":1025,"x_min":183,"x_max":874,"o":"m 183 0 l 183 972 l 874 972 l 874 828 l 333 828 l 333 144 l 874 144 l 874 0 l 183 0 m 257 426 l 257 571 l 797 571 l 797 426 l 257 426 m 481 1051 l 314 1194 l 367 1240 l 561 1153 l 519 1153 l 714 1240 l 767 1194 l 600 1051 l 481 1051 z "},"Ḝ":{"ha":1025,"x_min":183,"x_max":874,"o":"m 183 0 l 183 972 l 874 972 l 874 828 l 333 828 l 333 144 l 874 144 l 874 0 l 183 0 m 257 426 l 257 571 l 797 571 l 797 426 l 257 426 m 383 -339 l 374 -268 q 448 -258 411 -268 q 510 -232 485 -249 q 535 -196 535 -215 q 511 -163 535 -175 q 457 -145 488 -151 q 404 -139 426 -139 l 389 -119 l 486 33 l 568 33 l 510 -64 q 610 -109 572 -78 q 647 -193 647 -140 q 624 -258 647 -229 q 561 -304 600 -286 q 476 -331 522 -322 q 383 -339 429 -340 m 540 1043 q 437 1069 483 1043 q 359 1137 390 1094 q 315 1229 328 1179 l 418 1246 q 465 1183 433 1211 q 540 1156 497 1156 q 615 1183 583 1156 q 663 1246 647 1211 l 765 1229 q 722 1137 754 1179 q 644 1069 690 1094 q 540 1043 599 1043 z "},"Ê":{"ha":1025,"x_min":183,"x_max":874,"o":"m 183 0 l 183 972 l 874 972 l 874 828 l 333 828 l 333 144 l 874 144 l 874 0 l 183 0 m 257 426 l 257 571 l 797 571 l 797 426 l 257 426 m 368 1049 l 317 1097 l 489 1238 l 590 1238 l 763 1097 l 711 1049 l 519 1139 l 560 1139 l 368 1049 z "},"Ế":{"ha":1025,"x_min":183,"x_max":928,"o":"m 183 0 l 183 972 l 874 972 l 874 828 l 333 828 l 333 144 l 874 144 l 874 0 l 183 0 m 257 426 l 257 571 l 797 571 l 797 426 l 257 426 m 368 1049 l 322 1099 l 489 1235 l 590 1235 l 757 1099 l 711 1049 l 519 1136 l 560 1136 l 368 1049 m 765 1200 l 693 1250 l 807 1453 l 928 1367 l 765 1200 z "},"Ệ":{"ha":1025,"x_min":183,"x_max":874,"o":"m 183 0 l 183 972 l 874 972 l 874 828 l 333 828 l 333 144 l 874 144 l 874 0 l 183 0 m 257 426 l 257 571 l 797 571 l 797 426 l 257 426 m 513 -286 q 441 -262 465 -286 q 417 -196 417 -237 q 442 -132 417 -158 q 513 -106 467 -106 q 584 -130 560 -106 q 608 -196 608 -154 q 583 -260 608 -233 q 513 -286 558 -286 m 368 1049 l 317 1097 l 489 1238 l 590 1238 l 763 1097 l 711 1049 l 519 1139 l 560 1139 l 368 1049 z "},"Ề":{"ha":1025,"x_min":183,"x_max":874,"o":"m 183 0 l 183 972 l 874 972 l 874 828 l 333 828 l 333 144 l 874 144 l 874 0 l 183 0 m 257 426 l 257 571 l 797 571 l 797 426 l 257 426 m 368 1049 l 322 1099 l 489 1235 l 590 1235 l 757 1099 l 711 1049 l 519 1136 l 560 1136 l 368 1049 m 769 1201 l 601 1369 l 721 1457 l 836 1254 l 769 1201 z "},"Ể":{"ha":1025,"x_min":183,"x_max":893,"o":"m 183 0 l 183 972 l 874 972 l 874 828 l 333 828 l 333 144 l 874 144 l 874 0 l 183 0 m 257 426 l 257 571 l 797 571 l 797 426 l 257 426 m 368 1049 l 322 1099 l 489 1235 l 590 1235 l 757 1099 l 711 1049 l 519 1136 l 560 1136 l 368 1049 m 726 1199 q 712 1222 718 1210 q 706 1247 706 1235 q 712 1272 706 1260 q 743 1301 718 1285 q 774 1324 764 1315 q 785 1338 785 1332 q 773 1356 785 1350 q 743 1361 761 1361 q 694 1354 721 1361 q 644 1336 668 1347 l 622 1424 q 685 1449 651 1440 q 746 1457 718 1457 q 856 1426 819 1457 q 893 1350 893 1394 q 876 1303 893 1321 q 842 1275 858 1286 q 804 1250 815 1260 q 793 1232 793 1240 q 794 1224 793 1228 q 797 1217 796 1221 l 726 1199 z "},"Ễ":{"ha":1025,"x_min":183,"x_max":874,"o":"m 183 0 l 183 972 l 874 972 l 874 828 l 333 828 l 333 144 l 874 144 l 874 0 l 183 0 m 257 426 l 257 571 l 797 571 l 797 426 l 257 426 m 368 1049 l 322 1099 l 489 1235 l 590 1235 l 757 1099 l 711 1049 l 519 1136 l 560 1136 l 368 1049 m 647 1301 q 585 1311 614 1301 q 533 1331 557 1321 q 492 1349 508 1342 q 461 1356 475 1356 q 429 1342 443 1356 q 410 1304 415 1328 l 315 1318 q 357 1417 318 1375 q 451 1460 396 1460 q 505 1450 481 1460 q 554 1429 529 1440 q 591 1413 572 1421 q 624 1406 610 1406 q 653 1419 643 1406 q 669 1458 664 1432 l 764 1444 q 749 1373 763 1406 q 710 1321 735 1340 q 647 1301 685 1301 z "},"Ȅ":{"ha":1025,"x_min":181,"x_max":874,"o":"m 183 0 l 183 972 l 874 972 l 874 828 l 333 828 l 333 144 l 874 144 l 874 0 l 183 0 m 257 426 l 257 571 l 797 571 l 797 426 l 257 426 m 686 1042 l 457 1193 l 557 1299 l 739 1108 l 686 1042 m 410 1042 l 181 1193 l 281 1299 l 463 1108 l 410 1042 z "},"Ë":{"ha":1025,"x_min":183,"x_max":874,"o":"m 183 0 l 183 972 l 874 972 l 874 828 l 333 828 l 333 144 l 874 144 l 874 0 l 183 0 m 257 426 l 257 571 l 797 571 l 797 426 l 257 426 m 683 1054 q 611 1079 635 1054 q 588 1144 588 1104 q 611 1207 588 1179 q 683 1235 635 1235 q 756 1210 732 1235 q 779 1144 779 1185 q 756 1082 779 1110 q 683 1054 732 1054 m 397 1054 q 325 1079 349 1054 q 301 1144 301 1104 q 325 1207 301 1179 q 397 1235 349 1235 q 469 1210 446 1235 q 493 1144 493 1185 q 469 1082 493 1110 q 397 1054 446 1054 z "},"Ė":{"ha":1025,"x_min":183,"x_max":874,"o":"m 183 0 l 183 972 l 874 972 l 874 828 l 333 828 l 333 144 l 874 144 l 874 0 l 183 0 m 257 426 l 257 571 l 797 571 l 797 426 l 257 426 m 540 1054 q 468 1079 492 1054 q 444 1144 444 1104 q 468 1207 444 1179 q 540 1235 492 1235 q 613 1210 589 1235 q 636 1144 636 1185 q 613 1082 636 1110 q 540 1054 589 1054 z "},"Ẹ":{"ha":1025,"x_min":183,"x_max":874,"o":"m 183 0 l 183 972 l 874 972 l 874 828 l 333 828 l 333 144 l 874 144 l 874 0 l 183 0 m 257 426 l 257 571 l 797 571 l 797 426 l 257 426 m 513 -286 q 441 -262 465 -286 q 417 -196 417 -237 q 442 -132 417 -158 q 513 -106 467 -106 q 584 -130 560 -106 q 608 -196 608 -154 q 583 -260 608 -233 q 513 -286 558 -286 z "},"È":{"ha":1025,"x_min":183,"x_max":874,"o":"m 183 0 l 183 972 l 874 972 l 874 828 l 333 828 l 333 144 l 874 144 l 874 0 l 183 0 m 257 426 l 257 571 l 797 571 l 797 426 l 257 426 m 651 1049 l 371 1153 l 439 1278 l 693 1121 l 651 1049 z "},"Ẻ":{"ha":1025,"x_min":183,"x_max":874,"o":"m 183 0 l 183 972 l 874 972 l 874 828 l 333 828 l 333 144 l 874 144 l 874 0 l 183 0 m 257 426 l 257 571 l 797 571 l 797 426 l 257 426 m 508 1053 q 493 1080 499 1067 q 488 1106 488 1093 q 495 1133 488 1118 q 525 1164 503 1149 q 558 1188 549 1179 q 567 1206 567 1196 q 555 1224 567 1218 q 525 1229 543 1229 q 476 1222 503 1229 q 426 1204 450 1215 l 404 1292 q 467 1317 433 1308 q 528 1325 500 1325 q 638 1294 601 1325 q 675 1218 675 1263 q 659 1163 675 1183 q 624 1133 643 1143 q 587 1112 599 1121 q 575 1089 575 1103 q 576 1079 575 1083 q 579 1071 578 1075 l 508 1053 z "},"Ȇ":{"ha":1025,"x_min":183,"x_max":874,"o":"m 183 0 l 183 972 l 874 972 l 874 828 l 333 828 l 333 144 l 874 144 l 874 0 l 183 0 m 257 426 l 257 571 l 797 571 l 797 426 l 257 426 m 418 1043 l 315 1060 q 359 1152 328 1110 q 437 1220 390 1194 q 540 1246 483 1246 q 644 1220 599 1246 q 722 1152 690 1194 q 765 1060 754 1110 l 663 1043 q 615 1106 647 1078 q 540 1133 583 1133 q 465 1106 497 1133 q 418 1043 433 1078 z "},"Ē":{"ha":1025,"x_min":183,"x_max":874,"o":"m 183 0 l 183 972 l 874 972 l 874 828 l 333 828 l 333 144 l 874 144 l 874 0 l 183 0 m 257 426 l 257 571 l 797 571 l 797 426 l 257 426 m 310 1093 l 310 1197 l 769 1197 l 769 1093 l 310 1093 z "},"Ḗ":{"ha":1025,"x_min":183,"x_max":874,"o":"m 183 0 l 183 972 l 874 972 l 874 828 l 333 828 l 333 144 l 874 144 l 874 0 l 183 0 m 257 426 l 257 571 l 797 571 l 797 426 l 257 426 m 310 1093 l 310 1197 l 769 1197 l 769 1093 l 310 1093 m 440 1257 l 401 1329 l 656 1486 l 721 1361 l 440 1257 z "},"Ḕ":{"ha":1025,"x_min":183,"x_max":874,"o":"m 183 0 l 183 972 l 874 972 l 874 828 l 333 828 l 333 144 l 874 144 l 874 0 l 183 0 m 257 426 l 257 571 l 797 571 l 797 426 l 257 426 m 310 1093 l 310 1197 l 769 1197 l 769 1093 l 310 1093 m 651 1257 l 371 1361 l 439 1486 l 693 1329 l 651 1257 z "},"Ę":{"ha":1025,"x_min":183,"x_max":874,"o":"m 183 0 l 183 972 l 874 972 l 874 828 l 333 828 l 333 144 l 874 144 l 874 0 l 183 0 m 257 426 l 257 571 l 797 571 l 797 426 l 257 426 m 707 -278 q 631 -259 665 -278 q 576 -208 597 -240 q 556 -136 556 -176 q 572 -67 556 -99 q 617 -9 588 -35 q 686 35 647 17 q 771 67 725 54 l 826 0 q 751 -31 785 -11 q 700 -73 718 -50 q 682 -121 682 -96 q 695 -157 682 -143 q 729 -171 708 -171 q 758 -162 746 -171 q 781 -136 771 -153 l 858 -192 q 803 -251 846 -225 q 707 -278 760 -278 z "},"Ẽ":{"ha":1025,"x_min":183,"x_max":874,"o":"m 183 0 l 183 972 l 874 972 l 874 828 l 333 828 l 333 144 l 874 144 l 874 0 l 183 0 m 257 426 l 257 571 l 797 571 l 797 426 l 257 426 m 643 1067 q 578 1077 611 1067 q 517 1099 546 1088 q 476 1114 493 1108 q 446 1119 460 1119 q 416 1106 428 1119 q 404 1067 404 1093 l 297 1067 q 346 1183 297 1142 q 456 1224 394 1224 q 513 1214 485 1224 q 567 1193 540 1204 q 605 1179 586 1185 q 636 1174 624 1174 q 667 1188 656 1174 q 676 1224 678 1201 l 782 1224 q 765 1147 782 1183 q 717 1089 749 1111 q 643 1067 686 1067 z "},"F":{"ha":1000,"x_min":183,"x_max":881,"o":"m 183 0 l 183 972 l 333 972 l 333 0 l 183 0 m 243 408 l 243 553 l 818 553 l 818 408 l 243 408 m 250 828 l 250 972 l 881 972 l 881 828 l 250 828 z "},"G":{"ha":1239,"x_min":111,"x_max":1138,"o":"m 644 -14 q 438 22 535 -14 q 268 123 342 57 q 153 281 194 189 q 111 486 111 374 q 152 681 111 590 q 267 838 193 771 q 440 943 342 906 q 653 981 539 981 q 817 958 739 981 q 956 899 894 936 q 1056 815 1018 861 l 958 711 q 865 777 914 750 q 762 819 815 804 q 653 835 708 835 q 501 808 571 835 q 378 735 431 782 q 296 624 325 688 q 267 486 267 561 q 297 340 267 406 q 382 228 328 275 q 506 157 436 182 q 653 132 575 132 q 777 148 718 132 q 881 193 836 164 q 951 262 926 222 q 974 346 975 301 l 974 369 l 994 346 l 650 346 l 650 493 l 1131 493 q 1135 462 1133 475 q 1137 438 1136 449 q 1138 418 1138 428 q 1100 237 1138 317 q 997 101 1063 157 q 841 16 931 46 q 644 -14 751 -14 z "},"Ğ":{"ha":1239,"x_min":111,"x_max":1138,"o":"m 644 -14 q 438 22 535 -14 q 268 123 342 57 q 153 281 194 189 q 111 486 111 374 q 152 681 111 590 q 267 838 193 771 q 440 943 342 906 q 653 981 539 981 q 817 958 739 981 q 956 899 894 936 q 1056 815 1018 861 l 958 711 q 865 777 914 750 q 762 819 815 804 q 653 835 708 835 q 501 808 571 835 q 378 735 431 782 q 296 624 325 688 q 267 486 267 561 q 297 340 267 406 q 382 228 328 275 q 506 157 436 182 q 653 132 575 132 q 777 148 718 132 q 881 193 836 164 q 951 262 926 222 q 974 346 975 301 l 974 369 l 994 346 l 650 346 l 650 493 l 1131 493 q 1135 462 1133 475 q 1137 438 1136 449 q 1138 418 1138 428 q 1100 237 1138 317 q 997 101 1063 157 q 841 16 931 46 q 644 -14 751 -14 m 646 1043 q 542 1069 589 1043 q 465 1137 496 1094 q 421 1229 433 1179 l 524 1246 q 571 1183 539 1211 q 646 1156 603 1156 q 721 1183 689 1156 q 768 1246 753 1211 l 871 1229 q 828 1137 860 1179 q 750 1069 796 1094 q 646 1043 704 1043 z "},"Ǧ":{"ha":1239,"x_min":111,"x_max":1138,"o":"m 644 -14 q 438 22 535 -14 q 268 123 342 57 q 153 281 194 189 q 111 486 111 374 q 152 681 111 590 q 267 838 193 771 q 440 943 342 906 q 653 981 539 981 q 817 958 739 981 q 956 899 894 936 q 1056 815 1018 861 l 958 711 q 865 777 914 750 q 762 819 815 804 q 653 835 708 835 q 501 808 571 835 q 378 735 431 782 q 296 624 325 688 q 267 486 267 561 q 297 340 267 406 q 382 228 328 275 q 506 157 436 182 q 653 132 575 132 q 777 148 718 132 q 881 193 836 164 q 951 262 926 222 q 974 346 975 301 l 974 369 l 994 346 l 650 346 l 650 493 l 1131 493 q 1135 462 1133 475 q 1137 438 1136 449 q 1138 418 1138 428 q 1100 237 1138 317 q 997 101 1063 157 q 841 16 931 46 q 644 -14 751 -14 m 586 1051 l 419 1194 l 472 1240 l 667 1153 l 625 1153 l 819 1240 l 872 1194 l 706 1051 l 586 1051 z "},"Ĝ":{"ha":1239,"x_min":111,"x_max":1138,"o":"m 644 -14 q 438 22 535 -14 q 268 123 342 57 q 153 281 194 189 q 111 486 111 374 q 152 681 111 590 q 267 838 193 771 q 440 943 342 906 q 653 981 539 981 q 817 958 739 981 q 956 899 894 936 q 1056 815 1018 861 l 958 711 q 865 777 914 750 q 762 819 815 804 q 653 835 708 835 q 501 808 571 835 q 378 735 431 782 q 296 624 325 688 q 267 486 267 561 q 297 340 267 406 q 382 228 328 275 q 506 157 436 182 q 653 132 575 132 q 777 148 718 132 q 881 193 836 164 q 951 262 926 222 q 974 346 975 301 l 974 369 l 994 346 l 650 346 l 650 493 l 1131 493 q 1135 462 1133 475 q 1137 438 1136 449 q 1138 418 1138 428 q 1100 237 1138 317 q 997 101 1063 157 q 841 16 931 46 q 644 -14 751 -14 m 474 1049 l 422 1097 l 594 1238 l 696 1238 l 868 1097 l 817 1049 l 625 1139 l 665 1139 l 474 1049 z "},"Ģ":{"ha":1239,"x_min":111,"x_max":1138,"o":"m 644 -14 q 438 22 535 -14 q 268 123 342 57 q 153 281 194 189 q 111 486 111 374 q 152 681 111 590 q 267 838 193 771 q 440 943 342 906 q 653 981 539 981 q 817 958 739 981 q 956 899 894 936 q 1056 815 1018 861 l 958 711 q 865 777 914 750 q 762 819 815 804 q 653 835 708 835 q 501 808 571 835 q 378 735 431 782 q 296 624 325 688 q 267 486 267 561 q 297 340 267 406 q 382 228 328 275 q 506 157 436 182 q 653 132 575 132 q 777 148 718 132 q 881 193 836 164 q 951 262 926 222 q 974 346 975 301 l 974 369 l 994 346 l 650 346 l 650 493 l 1131 493 q 1135 462 1133 475 q 1137 438 1136 449 q 1138 418 1138 428 q 1100 237 1138 317 q 997 101 1063 157 q 841 16 931 46 q 644 -14 751 -14 m 551 -337 l 518 -279 q 555 -262 538 -274 q 583 -236 572 -251 q 593 -207 593 -221 q 587 -192 593 -197 q 567 -183 581 -187 q 535 -165 546 -176 q 525 -131 525 -154 q 551 -81 525 -99 q 615 -62 576 -62 q 691 -90 658 -62 q 724 -169 724 -118 q 708 -226 724 -200 q 668 -274 693 -253 q 613 -311 643 -294 q 551 -337 582 -328 z "},"Ġ":{"ha":1239,"x_min":111,"x_max":1138,"o":"m 644 -14 q 438 22 535 -14 q 268 123 342 57 q 153 281 194 189 q 111 486 111 374 q 152 681 111 590 q 267 838 193 771 q 440 943 342 906 q 653 981 539 981 q 817 958 739 981 q 956 899 894 936 q 1056 815 1018 861 l 958 711 q 865 777 914 750 q 762 819 815 804 q 653 835 708 835 q 501 808 571 835 q 378 735 431 782 q 296 624 325 688 q 267 486 267 561 q 297 340 267 406 q 382 228 328 275 q 506 157 436 182 q 653 132 575 132 q 777 148 718 132 q 881 193 836 164 q 951 262 926 222 q 974 346 975 301 l 974 369 l 994 346 l 650 346 l 650 493 l 1131 493 q 1135 462 1133 475 q 1137 438 1136 449 q 1138 418 1138 428 q 1100 237 1138 317 q 997 101 1063 157 q 841 16 931 46 q 644 -14 751 -14 m 646 1054 q 574 1079 597 1054 q 550 1144 550 1104 q 574 1207 550 1179 q 646 1235 597 1235 q 718 1210 694 1235 q 742 1144 742 1185 q 718 1082 742 1110 q 646 1054 694 1054 z "},"Ḡ":{"ha":1239,"x_min":111,"x_max":1138,"o":"m 644 -14 q 438 22 535 -14 q 268 123 342 57 q 153 281 194 189 q 111 486 111 374 q 152 681 111 590 q 267 838 193 771 q 440 943 342 906 q 653 981 539 981 q 817 958 739 981 q 956 899 894 936 q 1056 815 1018 861 l 958 711 q 865 777 914 750 q 762 819 815 804 q 653 835 708 835 q 501 808 571 835 q 378 735 431 782 q 296 624 325 688 q 267 486 267 561 q 297 340 267 406 q 382 228 328 275 q 506 157 436 182 q 653 132 575 132 q 777 148 718 132 q 881 193 836 164 q 951 262 926 222 q 974 346 975 301 l 974 369 l 994 346 l 650 346 l 650 493 l 1131 493 q 1135 462 1133 475 q 1137 438 1136 449 q 1138 418 1138 428 q 1100 237 1138 317 q 997 101 1063 157 q 841 16 931 46 q 644 -14 751 -14 m 415 1093 l 415 1197 l 875 1197 l 875 1093 l 415 1093 z "},"H":{"ha":1228,"x_min":183,"x_max":1046,"o":"m 896 0 l 896 972 l 1046 972 l 1046 0 l 896 0 m 183 0 l 183 972 l 333 972 l 333 0 l 183 0 m 249 410 l 249 554 l 963 554 l 963 410 l 249 410 z "},"Ħ":{"ha":1431,"x_min":128,"x_max":1303,"o":"m 128 650 l 128 794 l 311 794 l 375 781 l 1040 781 l 1090 794 l 1303 794 l 1303 650 l 1094 650 l 1057 664 l 361 664 l 303 650 l 128 650 m 996 0 l 996 972 l 1146 972 l 1146 0 l 996 0 m 283 0 l 283 972 l 433 972 l 433 0 l 283 0 m 349 410 l 350 554 l 1063 554 l 1063 410 l 349 410 z "},"Ḫ":{"ha":1228,"x_min":183,"x_max":1046,"o":"m 896 0 l 896 972 l 1046 972 l 1046 0 l 896 0 m 183 0 l 183 972 l 333 972 l 333 0 l 183 0 m 249 410 l 249 554 l 963 554 l 963 410 l 249 410 m 615 -325 q 470 -267 531 -325 q 390 -111 410 -208 l 493 -94 q 542 -178 510 -144 q 615 -212 575 -212 q 688 -178 656 -212 q 738 -94 721 -144 l 840 -111 q 760 -267 821 -208 q 615 -325 700 -325 z "},"Ĥ":{"ha":1228,"x_min":183,"x_max":1046,"o":"m 896 0 l 896 972 l 1046 972 l 1046 0 l 896 0 m 183 0 l 183 972 l 333 972 l 333 0 l 183 0 m 249 410 l 249 554 l 963 554 l 963 410 l 249 410 m 443 1049 l 392 1097 l 564 1238 l 665 1238 l 838 1097 l 786 1049 l 594 1139 l 635 1139 l 443 1049 z "},"Ḥ":{"ha":1228,"x_min":183,"x_max":1046,"o":"m 896 0 l 896 972 l 1046 972 l 1046 0 l 896 0 m 183 0 l 183 972 l 333 972 l 333 0 l 183 0 m 249 410 l 249 554 l 963 554 l 963 410 l 249 410 m 615 -286 q 544 -262 568 -286 q 519 -196 519 -237 q 544 -132 519 -158 q 615 -106 569 -106 q 687 -130 663 -106 q 711 -196 711 -154 q 686 -260 711 -233 q 615 -286 661 -286 z "},"I":{"ha":872,"x_min":165,"x_max":707,"o":"m 165 0 l 165 143 l 361 143 l 361 829 l 165 829 l 165 972 l 707 972 l 707 829 l 511 829 l 511 143 l 707 143 l 707 0 l 165 0 z "},"Ĳ":{"ha":1897,"x_min":165,"x_max":1828,"o":"m 165 0 l 165 143 l 361 143 l 361 829 l 165 829 l 165 972 l 707 972 l 707 829 l 511 829 l 511 143 l 707 143 l 707 0 l 165 0 m 1308 -14 q 1192 4 1244 -14 q 1098 51 1139 22 q 1028 115 1057 81 q 983 179 1000 149 l 1081 281 q 1133 213 1107 242 q 1185 166 1158 185 q 1242 138 1211 147 q 1308 129 1272 129 q 1417 158 1371 129 q 1489 235 1464 186 q 1514 343 1514 283 l 1514 829 l 1311 829 l 1311 972 l 1828 972 l 1828 829 l 1664 829 l 1664 329 q 1640 198 1664 260 q 1569 88 1615 136 q 1456 13 1522 40 q 1308 -14 1390 -14 z "},"Í":{"ha":872,"x_min":165,"x_max":707,"o":"m 165 0 l 165 143 l 361 143 l 361 829 l 165 829 l 165 972 l 707 972 l 707 829 l 511 829 l 511 143 l 707 143 l 707 0 l 165 0 m 336 1049 l 297 1121 l 551 1278 l 617 1153 l 336 1049 z "},"Ĭ":{"ha":872,"x_min":165,"x_max":707,"o":"m 165 0 l 165 143 l 361 143 l 361 829 l 165 829 l 165 972 l 707 972 l 707 829 l 511 829 l 511 143 l 707 143 l 707 0 l 165 0 m 436 1043 q 333 1069 379 1043 q 255 1137 286 1094 q 211 1229 224 1179 l 314 1246 q 361 1183 329 1211 q 436 1156 393 1156 q 511 1183 479 1156 q 558 1246 543 1211 l 661 1229 q 618 1137 650 1179 q 540 1069 586 1094 q 436 1043 494 1043 z "},"Ǐ":{"ha":872,"x_min":165,"x_max":707,"o":"m 165 0 l 165 143 l 361 143 l 361 829 l 165 829 l 165 972 l 707 972 l 707 829 l 511 829 l 511 143 l 707 143 l 707 0 l 165 0 m 376 1051 l 210 1194 l 263 1240 l 457 1153 l 415 1153 l 610 1240 l 663 1194 l 496 1051 l 376 1051 z "},"Î":{"ha":872,"x_min":165,"x_max":707,"o":"m 165 0 l 165 143 l 361 143 l 361 829 l 165 829 l 165 972 l 707 972 l 707 829 l 511 829 l 511 143 l 707 143 l 707 0 l 165 0 m 264 1049 l 213 1097 l 385 1238 l 486 1238 l 658 1097 l 607 1049 l 415 1139 l 456 1139 l 264 1049 z "},"Ȉ":{"ha":872,"x_min":78,"x_max":707,"o":"m 165 0 l 165 143 l 361 143 l 361 829 l 165 829 l 165 972 l 707 972 l 707 829 l 511 829 l 511 143 l 707 143 l 707 0 l 165 0 m 583 1042 l 354 1193 l 454 1299 l 636 1108 l 583 1042 m 307 1042 l 78 1193 l 178 1299 l 360 1108 l 307 1042 z "},"Ï":{"ha":872,"x_min":165,"x_max":707,"o":"m 165 0 l 165 143 l 361 143 l 361 829 l 165 829 l 165 972 l 707 972 l 707 829 l 511 829 l 511 143 l 707 143 l 707 0 l 165 0 m 579 1054 q 507 1079 531 1054 q 483 1144 483 1104 q 507 1207 483 1179 q 579 1235 531 1235 q 651 1210 628 1235 q 675 1144 675 1185 q 651 1082 675 1110 q 579 1054 628 1054 m 293 1054 q 221 1079 244 1054 q 197 1144 197 1104 q 221 1207 197 1179 q 293 1235 244 1235 q 365 1210 342 1235 q 389 1144 389 1185 q 365 1082 389 1110 q 293 1054 342 1054 z "},"Ḯ":{"ha":872,"x_min":165,"x_max":707,"o":"m 165 0 l 165 143 l 361 143 l 361 829 l 165 829 l 165 972 l 707 972 l 707 829 l 511 829 l 511 143 l 707 143 l 707 0 l 165 0 m 342 1271 l 303 1343 l 557 1500 l 622 1375 l 342 1271 m 293 1054 q 221 1079 244 1054 q 197 1144 197 1104 q 221 1207 197 1179 q 293 1235 244 1235 q 365 1210 342 1235 q 389 1144 389 1185 q 365 1082 389 1110 q 293 1054 342 1054 m 579 1054 q 507 1079 531 1054 q 483 1144 483 1104 q 507 1207 483 1179 q 579 1235 531 1235 q 651 1210 628 1235 q 675 1144 675 1185 q 651 1082 675 1110 q 579 1054 628 1054 z "},"İ":{"ha":872,"x_min":165,"x_max":707,"o":"m 165 0 l 165 143 l 361 143 l 361 829 l 165 829 l 165 972 l 707 972 l 707 829 l 511 829 l 511 143 l 707 143 l 707 0 l 165 0 m 436 1054 q 364 1079 388 1054 q 340 1144 340 1104 q 364 1207 340 1179 q 436 1235 388 1235 q 508 1210 485 1235 q 532 1144 532 1185 q 508 1082 532 1110 q 436 1054 485 1054 z "},"Ị":{"ha":872,"x_min":165,"x_max":707,"o":"m 165 0 l 165 143 l 361 143 l 361 829 l 165 829 l 165 972 l 707 972 l 707 829 l 511 829 l 511 143 l 707 143 l 707 0 l 165 0 m 436 -286 q 365 -262 389 -286 q 340 -196 340 -237 q 365 -132 340 -158 q 436 -106 390 -106 q 508 -130 483 -106 q 532 -196 532 -154 q 507 -260 532 -233 q 436 -286 482 -286 z "},"Ì":{"ha":872,"x_min":165,"x_max":707,"o":"m 165 0 l 165 143 l 361 143 l 361 829 l 165 829 l 165 972 l 707 972 l 707 829 l 511 829 l 511 143 l 707 143 l 707 0 l 165 0 m 547 1049 l 267 1153 l 335 1278 l 589 1121 l 547 1049 z "},"Ỉ":{"ha":872,"x_min":165,"x_max":707,"o":"m 165 0 l 165 143 l 361 143 l 361 829 l 165 829 l 165 972 l 707 972 l 707 829 l 511 829 l 511 143 l 707 143 l 707 0 l 165 0 m 404 1053 q 389 1080 394 1067 q 383 1106 383 1093 q 391 1133 383 1118 q 421 1164 399 1149 q 453 1188 444 1179 q 463 1206 463 1196 q 451 1224 463 1218 q 421 1229 439 1229 q 372 1222 399 1229 q 322 1204 346 1215 l 300 1292 q 363 1317 329 1308 q 424 1325 396 1325 q 534 1294 497 1325 q 571 1218 571 1263 q 555 1163 571 1183 q 519 1133 539 1143 q 483 1112 494 1121 q 471 1089 471 1103 q 472 1079 471 1083 q 475 1071 474 1075 l 404 1053 z "},"Ȋ":{"ha":872,"x_min":165,"x_max":707,"o":"m 165 0 l 165 143 l 361 143 l 361 829 l 165 829 l 165 972 l 707 972 l 707 829 l 511 829 l 511 143 l 707 143 l 707 0 l 165 0 m 314 1043 l 211 1060 q 255 1152 224 1110 q 333 1220 286 1194 q 436 1246 379 1246 q 540 1220 494 1246 q 618 1152 586 1194 q 661 1060 650 1110 l 558 1043 q 511 1106 543 1078 q 436 1133 479 1133 q 361 1106 393 1133 q 314 1043 329 1078 z "},"Ī":{"ha":872,"x_min":165,"x_max":707,"o":"m 165 0 l 165 143 l 361 143 l 361 829 l 165 829 l 165 972 l 707 972 l 707 829 l 511 829 l 511 143 l 707 143 l 707 0 l 165 0 m 206 1093 l 206 1197 l 665 1197 l 665 1093 l 206 1093 z "},"Į":{"ha":872,"x_min":165,"x_max":707,"o":"m 165 0 l 165 143 l 361 143 l 361 829 l 165 829 l 165 972 l 707 972 l 707 829 l 511 829 l 511 143 l 707 143 l 707 0 l 165 0 m 456 -278 q 380 -259 414 -278 q 325 -208 346 -240 q 304 -136 304 -176 q 320 -67 304 -99 q 366 -9 336 -35 q 435 35 396 17 q 519 67 474 54 l 575 0 q 500 -31 533 -11 q 449 -73 467 -50 q 431 -121 431 -96 q 444 -157 431 -143 q 478 -171 457 -171 q 507 -162 494 -171 q 529 -136 519 -153 l 607 -192 q 551 -251 594 -225 q 456 -278 508 -278 z "},"Ĩ":{"ha":872,"x_min":165,"x_max":707,"o":"m 165 0 l 165 143 l 361 143 l 361 829 l 165 829 l 165 972 l 707 972 l 707 829 l 511 829 l 511 143 l 707 143 l 707 0 l 165 0 m 539 1067 q 474 1077 507 1067 q 413 1099 442 1088 q 372 1114 389 1108 q 342 1119 356 1119 q 312 1106 324 1119 q 300 1067 300 1093 l 193 1067 q 242 1183 193 1142 q 351 1224 290 1224 q 408 1214 381 1224 q 463 1193 436 1204 q 501 1179 482 1185 q 532 1174 519 1174 q 563 1188 551 1174 q 572 1224 574 1201 l 678 1224 q 661 1147 678 1183 q 613 1089 644 1111 q 539 1067 582 1067 z "},"J":{"ha":1025,"x_min":111,"x_max":956,"o":"m 436 -14 q 319 4 372 -14 q 226 51 267 22 q 156 115 185 81 q 111 179 128 149 l 208 281 q 260 213 235 242 q 313 166 286 185 q 369 138 339 147 q 436 129 400 129 q 545 158 499 129 q 617 235 592 186 q 642 343 642 283 l 642 829 l 439 829 l 439 972 l 956 972 l 956 829 l 792 829 l 792 329 q 767 198 792 260 q 697 88 743 136 q 584 13 650 40 q 436 -14 518 -14 z "},"Ĵ":{"ha":1025,"x_min":111,"x_max":956,"o":"m 436 -14 q 319 4 372 -14 q 226 51 267 22 q 156 115 185 81 q 111 179 128 149 l 208 281 q 260 213 235 242 q 313 166 286 185 q 369 138 339 147 q 436 129 400 129 q 545 158 499 129 q 617 235 592 186 q 642 343 642 283 l 642 829 l 439 829 l 439 972 l 956 972 l 956 829 l 792 829 l 792 329 q 767 198 792 260 q 697 88 743 136 q 584 13 650 40 q 436 -14 518 -14 m 536 1049 l 485 1097 l 657 1238 l 758 1238 l 931 1097 l 879 1049 l 688 1139 l 728 1139 l 536 1049 z "},"K":{"ha":1206,"x_min":183,"x_max":1096,"o":"m 300 274 l 296 443 l 888 972 l 1096 972 l 300 274 m 183 0 l 183 972 l 333 972 l 333 0 l 183 0 m 900 0 l 506 508 l 610 614 l 1093 0 l 900 0 z "},"Ķ":{"ha":1206,"x_min":183,"x_max":1096,"o":"m 300 274 l 296 443 l 888 972 l 1096 972 l 300 274 m 183 0 l 183 972 l 333 972 l 333 0 l 183 0 m 900 0 l 506 508 l 610 614 l 1093 0 l 900 0 m 528 -337 l 494 -279 q 531 -262 514 -274 q 559 -236 549 -251 q 569 -207 569 -221 q 563 -192 569 -197 q 543 -183 557 -187 q 512 -165 522 -176 q 501 -131 501 -154 q 527 -81 501 -99 q 592 -62 553 -62 q 667 -90 635 -62 q 700 -169 700 -118 q 685 -226 700 -200 q 644 -274 669 -253 q 589 -311 619 -294 q 528 -337 558 -328 z "},"L":{"ha":999,"x_min":183,"x_max":867,"o":"m 183 0 l 183 972 l 333 972 l 333 144 l 867 144 l 867 0 l 183 0 z "},"Ǉ":{"ha":2022,"x_min":183,"x_max":1953,"o":"m 183 0 l 183 972 l 333 972 l 333 144 l 867 144 l 867 0 l 183 0 m 1435 -14 q 1318 4 1371 -14 q 1224 51 1265 22 q 1155 115 1183 81 q 1110 179 1126 149 l 1207 281 q 1259 213 1233 242 q 1311 166 1285 185 q 1368 138 1338 147 q 1435 129 1399 129 q 1544 158 1497 129 q 1615 235 1590 186 q 1640 343 1640 283 l 1640 829 l 1438 829 l 1438 972 l 1954 972 l 1954 829 l 1790 829 l 1790 329 q 1766 198 1790 260 q 1695 88 1742 136 q 1583 13 1649 40 q 1435 -14 1517 -14 z "},"Ĺ":{"ha":999,"x_min":121,"x_max":867,"o":"m 183 0 l 183 972 l 333 972 l 333 144 l 867 144 l 867 0 l 183 0 m 160 1049 l 121 1121 l 375 1278 l 440 1153 l 160 1049 z "},"Ľ":{"ha":999,"x_min":183,"x_max":867,"o":"m 183 0 l 183 972 l 333 972 l 333 144 l 867 144 l 867 0 l 183 0 m 557 697 l 524 756 q 560 772 543 760 q 588 799 578 783 q 599 828 599 814 q 592 842 599 838 q 572 851 586 847 q 541 868 551 857 q 531 904 531 879 q 556 953 531 935 q 621 972 582 972 q 697 944 664 972 q 729 865 729 917 q 714 808 729 835 q 674 760 699 782 q 618 723 649 739 q 557 697 588 707 z "},"Ļ":{"ha":999,"x_min":183,"x_max":867,"o":"m 183 0 l 183 972 l 333 972 l 333 144 l 867 144 l 867 0 l 183 0 m 433 -337 l 400 -279 q 437 -262 419 -274 q 465 -236 454 -251 q 475 -207 475 -221 q 469 -192 475 -197 q 449 -183 463 -187 q 417 -165 428 -176 q 407 -131 407 -154 q 433 -81 407 -99 q 497 -62 458 -62 q 573 -90 540 -62 q 606 -169 606 -118 q 590 -226 606 -200 q 550 -274 575 -253 q 494 -311 525 -294 q 433 -337 464 -328 z "},"Ŀ":{"ha":999,"x_min":183,"x_max":872,"o":"m 183 0 l 183 972 l 333 972 l 333 144 l 867 144 l 867 0 l 183 0 m 757 415 q 671 443 700 415 q 642 519 642 471 q 672 593 642 563 q 757 624 701 624 q 843 596 814 624 q 872 519 872 568 q 842 446 872 476 q 757 415 813 415 z "},"Ḷ":{"ha":999,"x_min":183,"x_max":867,"o":"m 183 0 l 183 972 l 333 972 l 333 144 l 867 144 l 867 0 l 183 0 m 503 -286 q 431 -262 456 -286 q 407 -196 407 -237 q 432 -132 407 -158 q 503 -106 457 -106 q 574 -130 550 -106 q 599 -196 599 -154 q 574 -260 599 -233 q 503 -286 549 -286 z "},"ǈ":{"ha":1551,"x_min":183,"x_max":1400,"o":"m 183 0 l 183 972 l 333 972 l 333 144 l 867 144 l 867 0 l 183 0 m 1078 -274 l 1024 -157 q 1140 -130 1094 -157 q 1207 -51 1185 -103 q 1229 74 1229 0 l 1229 729 l 1372 729 l 1372 39 q 1334 -126 1372 -56 q 1230 -235 1296 -196 q 1078 -274 1164 -274 m 1304 896 q 1233 919 1258 896 q 1208 986 1208 943 q 1234 1051 1208 1026 q 1304 1076 1260 1076 q 1375 1053 1350 1076 q 1400 986 1400 1029 q 1374 921 1400 946 q 1304 896 1349 896 z "},"Ḻ":{"ha":999,"x_min":183,"x_max":867,"o":"m 183 0 l 183 972 l 333 972 l 333 144 l 867 144 l 867 0 l 183 0 m 307 -247 l 307 -144 l 697 -144 l 697 -247 l 307 -247 z "},"Ł":{"ha":1047,"x_min":56,"x_max":915,"o":"m 96 339 l 56 450 l 610 681 l 654 563 l 96 339 m 232 0 l 232 972 l 382 972 l 382 144 l 915 144 l 915 0 l 232 0 z "},"M":{"ha":1374,"x_min":183,"x_max":1190,"o":"m 183 0 l 183 972 l 331 972 l 719 407 l 656 408 l 1049 972 l 1190 972 l 1190 0 l 1040 0 l 1040 404 q 1047 626 1040 525 q 1068 828 1053 726 l 1086 774 l 731 279 l 639 279 l 290 771 l 306 828 q 327 630 321 729 q 333 404 333 531 l 333 0 l 183 0 z "},"Ṃ":{"ha":1374,"x_min":183,"x_max":1190,"o":"m 183 0 l 183 972 l 331 972 l 719 407 l 656 408 l 1049 972 l 1190 972 l 1190 0 l 1040 0 l 1040 404 q 1047 626 1040 525 q 1068 828 1053 726 l 1086 774 l 731 279 l 639 279 l 290 771 l 306 828 q 327 630 321 729 q 333 404 333 531 l 333 0 l 183 0 m 686 -286 q 615 -262 639 -286 q 590 -196 590 -237 q 615 -132 590 -158 q 686 -106 640 -106 q 758 -130 733 -106 q 782 -196 782 -154 q 757 -260 782 -233 q 686 -286 732 -286 z "},"N":{"ha":1283,"x_min":183,"x_max":1101,"o":"m 183 0 l 183 972 l 324 972 l 996 176 l 979 164 q 968 245 972 201 q 960 337 964 289 q 955 437 957 385 q 952 543 953 489 q 951 653 951 597 l 951 972 l 1101 972 l 1101 0 l 958 0 l 296 767 l 306 786 q 314 676 310 725 q 322 586 318 626 q 328 513 326 546 q 332 453 331 481 q 333 404 333 426 l 333 0 l 183 0 z "},"Ǌ":{"ha":2308,"x_min":183,"x_max":2239,"o":"m 183 0 l 183 972 l 324 972 l 996 176 l 979 164 q 968 245 972 201 q 960 337 964 289 q 955 437 957 385 q 952 543 953 489 q 951 653 951 597 l 951 972 l 1101 972 l 1101 0 l 958 0 l 296 767 l 306 786 q 314 676 310 725 q 322 586 318 626 q 328 513 326 546 q 332 453 331 481 q 333 404 333 426 l 333 0 l 183 0 m 1719 -14 q 1603 4 1656 -14 q 1509 51 1550 22 q 1440 115 1468 81 q 1394 179 1411 149 l 1492 281 q 1544 213 1518 242 q 1596 166 1569 185 q 1653 138 1622 147 q 1719 129 1683 129 q 1828 158 1782 129 q 1900 235 1875 186 q 1925 343 1925 283 l 1925 829 l 1722 829 l 1722 972 l 2239 972 l 2239 829 l 2075 829 l 2075 329 q 2051 198 2075 260 q 1980 88 2026 136 q 1867 13 1933 40 q 1719 -14 1801 -14 z "},"Ń":{"ha":1283,"x_min":183,"x_max":1101,"o":"m 183 0 l 183 972 l 324 972 l 996 176 l 979 164 q 968 245 972 201 q 960 337 964 289 q 955 437 957 385 q 952 543 953 489 q 951 653 951 597 l 951 972 l 1101 972 l 1101 0 l 958 0 l 296 767 l 306 786 q 314 676 310 725 q 322 586 318 626 q 328 513 326 546 q 332 453 331 481 q 333 404 333 426 l 333 0 l 183 0 m 543 1049 l 504 1121 l 758 1278 l 824 1153 l 543 1049 z "},"Ň":{"ha":1283,"x_min":183,"x_max":1101,"o":"m 183 0 l 183 972 l 324 972 l 996 176 l 979 164 q 968 245 972 201 q 960 337 964 289 q 955 437 957 385 q 952 543 953 489 q 951 653 951 597 l 951 972 l 1101 972 l 1101 0 l 958 0 l 296 767 l 306 786 q 314 676 310 725 q 322 586 318 626 q 328 513 326 546 q 332 453 331 481 q 333 404 333 426 l 333 0 l 183 0 m 583 1051 l 417 1194 l 469 1240 l 664 1153 l 622 1153 l 817 1240 l 869 1194 l 703 1051 l 583 1051 z "},"Ņ":{"ha":1283,"x_min":183,"x_max":1101,"o":"m 183 0 l 183 972 l 324 972 l 996 176 l 979 164 q 968 245 972 201 q 960 337 964 289 q 955 437 957 385 q 952 543 953 489 q 951 653 951 597 l 951 972 l 1101 972 l 1101 0 l 958 0 l 296 767 l 306 786 q 314 676 310 725 q 322 586 318 626 q 328 513 326 546 q 332 453 331 481 q 333 404 333 426 l 333 0 l 183 0 m 574 -337 l 540 -279 q 577 -262 560 -274 q 605 -236 594 -251 q 615 -207 615 -221 q 609 -192 615 -197 q 589 -183 603 -187 q 558 -165 568 -176 q 547 -131 547 -154 q 573 -81 547 -99 q 638 -62 599 -62 q 713 -90 681 -62 q 746 -169 746 -118 q 731 -226 746 -200 q 690 -274 715 -253 q 635 -311 665 -294 q 574 -337 604 -328 z "},"Ṅ":{"ha":1283,"x_min":183,"x_max":1101,"o":"m 183 0 l 183 972 l 324 972 l 996 176 l 979 164 q 968 245 972 201 q 960 337 964 289 q 955 437 957 385 q 952 543 953 489 q 951 653 951 597 l 951 972 l 1101 972 l 1101 0 l 958 0 l 296 767 l 306 786 q 314 676 310 725 q 322 586 318 626 q 328 513 326 546 q 332 453 331 481 q 333 404 333 426 l 333 0 l 183 0 m 643 1054 q 571 1079 594 1054 q 547 1144 547 1104 q 571 1207 547 1179 q 643 1235 594 1235 q 715 1210 692 1235 q 739 1144 739 1185 q 715 1082 739 1110 q 643 1054 692 1054 z "},"Ṇ":{"ha":1283,"x_min":183,"x_max":1101,"o":"m 183 0 l 183 972 l 324 972 l 996 176 l 979 164 q 968 245 972 201 q 960 337 964 289 q 955 437 957 385 q 952 543 953 489 q 951 653 951 597 l 951 972 l 1101 972 l 1101 0 l 958 0 l 296 767 l 306 786 q 314 676 310 725 q 322 586 318 626 q 328 513 326 546 q 332 453 331 481 q 333 404 333 426 l 333 0 l 183 0 m 643 -286 q 572 -262 596 -286 q 547 -196 547 -237 q 572 -132 547 -158 q 643 -106 597 -106 q 715 -130 690 -106 q 739 -196 739 -154 q 714 -260 739 -233 q 643 -286 689 -286 z "},"Ɲ":{"ha":1271,"x_min":-28,"x_max":1088,"o":"m 26 -274 l -28 -151 q 122 -92 75 -151 q 169 74 169 -33 l 169 972 l 310 972 l 982 188 l 954 164 q 942 267 947 211 q 933 387 936 324 q 928 517 931 450 q 926 653 926 585 l 926 972 l 1088 972 l 1088 0 l 944 0 l 282 756 l 303 786 q 311 694 307 740 q 319 606 315 649 q 325 525 322 563 q 329 457 328 488 q 331 404 331 426 l 331 39 q 292 -126 331 -56 q 183 -235 253 -197 q 26 -274 114 -274 z "},"ǋ":{"ha":1838,"x_min":183,"x_max":1685,"o":"m 183 0 l 183 972 l 324 972 l 996 176 l 979 164 q 968 245 972 201 q 960 337 964 289 q 955 437 957 385 q 952 543 953 489 q 951 653 951 597 l 951 972 l 1101 972 l 1101 0 l 958 0 l 296 767 l 306 786 q 314 676 310 725 q 322 586 318 626 q 328 513 326 546 q 332 453 331 481 q 333 404 333 426 l 333 0 l 183 0 m 1363 -274 l 1308 -157 q 1424 -130 1379 -157 q 1492 -51 1469 -103 q 1514 74 1514 0 l 1514 729 l 1657 729 l 1657 39 q 1619 -126 1657 -56 q 1515 -235 1581 -196 q 1363 -274 1449 -274 m 1589 896 q 1518 919 1543 896 q 1493 986 1493 943 q 1519 1051 1493 1026 q 1589 1076 1544 1076 q 1660 1053 1635 1076 q 1685 986 1685 1029 q 1659 921 1685 946 q 1589 896 1633 896 z "},"Ṉ":{"ha":1283,"x_min":183,"x_max":1101,"o":"m 183 0 l 183 972 l 324 972 l 996 176 l 979 164 q 968 245 972 201 q 960 337 964 289 q 955 437 957 385 q 952 543 953 489 q 951 653 951 597 l 951 972 l 1101 972 l 1101 0 l 958 0 l 296 767 l 306 786 q 314 676 310 725 q 322 586 318 626 q 328 513 326 546 q 332 453 331 481 q 333 404 333 426 l 333 0 l 183 0 m 447 -247 l 447 -144 l 838 -144 l 838 -247 l 447 -247 z "},"Ñ":{"ha":1283,"x_min":183,"x_max":1101,"o":"m 183 0 l 183 972 l 324 972 l 996 176 l 979 164 q 968 245 972 201 q 960 337 964 289 q 955 437 957 385 q 952 543 953 489 q 951 653 951 597 l 951 972 l 1101 972 l 1101 0 l 958 0 l 296 767 l 306 786 q 314 676 310 725 q 322 586 318 626 q 328 513 326 546 q 332 453 331 481 q 333 404 333 426 l 333 0 l 183 0 m 746 1067 q 681 1077 714 1067 q 619 1099 649 1088 q 579 1114 596 1108 q 549 1119 563 1119 q 519 1106 531 1119 q 507 1067 507 1093 l 400 1067 q 449 1183 400 1142 q 558 1224 497 1224 q 615 1214 588 1224 q 669 1193 643 1204 q 708 1179 689 1185 q 739 1174 726 1174 q 769 1188 758 1174 q 779 1224 781 1201 l 885 1224 q 868 1147 885 1183 q 820 1089 851 1111 q 746 1067 789 1067 z "},"Ŋ":{"ha":1283,"x_min":183,"x_max":1101,"o":"m 797 -274 l 743 -151 q 829 -139 792 -151 q 893 -103 867 -126 q 934 -47 919 -79 q 949 29 949 -14 l 949 103 l 958 0 l 296 767 l 306 786 q 314 694 310 740 q 322 606 318 649 q 328 526 325 564 q 332 457 331 488 q 333 404 333 426 l 333 0 l 183 0 l 183 972 l 324 972 l 996 176 l 979 164 q 966 267 971 211 q 958 387 961 324 q 953 517 954 450 q 951 653 951 585 l 951 972 l 1101 972 l 1101 39 q 1062 -126 1101 -56 q 953 -235 1022 -197 q 797 -274 885 -274 z "},"O":{"ha":1264,"x_min":111,"x_max":1153,"o":"m 632 -14 q 424 24 518 -14 q 258 129 329 61 q 149 288 188 197 q 111 486 111 379 q 149 684 111 593 q 258 843 188 775 q 424 949 329 911 q 632 986 518 986 q 840 949 744 986 q 1005 842 935 911 q 1114 683 1075 774 q 1153 486 1153 592 q 1114 290 1153 381 q 1005 130 1075 199 q 840 24 935 61 q 632 -14 744 -14 m 632 132 q 780 158 713 132 q 897 233 847 185 q 973 345 946 281 q 1000 486 1000 410 q 973 627 1000 563 q 897 740 946 692 q 780 814 847 788 q 632 840 713 840 q 484 814 551 840 q 367 740 417 788 q 290 627 317 692 q 264 486 264 563 q 290 345 264 410 q 367 233 317 281 q 484 158 417 185 q 632 132 551 132 z "},"Ó":{"ha":1264,"x_min":111,"x_max":1153,"o":"m 632 -14 q 424 24 518 -14 q 258 129 329 61 q 149 288 188 197 q 111 486 111 379 q 149 684 111 593 q 258 843 188 775 q 424 949 329 911 q 632 986 518 986 q 840 949 744 986 q 1005 842 935 911 q 1114 683 1075 774 q 1153 486 1153 592 q 1114 290 1153 381 q 1005 130 1075 199 q 840 24 935 61 q 632 -14 744 -14 m 632 132 q 780 158 713 132 q 897 233 847 185 q 973 345 946 281 q 1000 486 1000 410 q 973 627 1000 563 q 897 740 946 692 q 780 814 847 788 q 632 840 713 840 q 484 814 551 840 q 367 740 417 788 q 290 627 317 692 q 264 486 264 563 q 290 345 264 410 q 367 233 317 281 q 484 158 417 185 q 632 132 551 132 m 532 1049 l 493 1121 l 747 1278 l 813 1153 l 532 1049 z "},"Ŏ":{"ha":1264,"x_min":111,"x_max":1153,"o":"m 632 -14 q 424 24 518 -14 q 258 129 329 61 q 149 288 188 197 q 111 486 111 379 q 149 684 111 593 q 258 843 188 775 q 424 949 329 911 q 632 986 518 986 q 840 949 744 986 q 1005 842 935 911 q 1114 683 1075 774 q 1153 486 1153 592 q 1114 290 1153 381 q 1005 130 1075 199 q 840 24 935 61 q 632 -14 744 -14 m 632 132 q 780 158 713 132 q 897 233 847 185 q 973 345 946 281 q 1000 486 1000 410 q 973 627 1000 563 q 897 740 946 692 q 780 814 847 788 q 632 840 713 840 q 484 814 551 840 q 367 740 417 788 q 290 627 317 692 q 264 486 264 563 q 290 345 264 410 q 367 233 317 281 q 484 158 417 185 q 632 132 551 132 m 632 1043 q 528 1069 575 1043 q 451 1137 482 1094 q 407 1229 419 1179 l 510 1246 q 557 1183 525 1211 q 632 1156 589 1156 q 707 1183 675 1156 q 754 1246 739 1211 l 857 1229 q 814 1137 846 1179 q 736 1069 782 1094 q 632 1043 690 1043 z "},"Ǒ":{"ha":1264,"x_min":111,"x_max":1153,"o":"m 632 -14 q 424 24 518 -14 q 258 129 329 61 q 149 288 188 197 q 111 486 111 379 q 149 684 111 593 q 258 843 188 775 q 424 949 329 911 q 632 986 518 986 q 840 949 744 986 q 1005 842 935 911 q 1114 683 1075 774 q 1153 486 1153 592 q 1114 290 1153 381 q 1005 130 1075 199 q 840 24 935 61 q 632 -14 744 -14 m 632 132 q 780 158 713 132 q 897 233 847 185 q 973 345 946 281 q 1000 486 1000 410 q 973 627 1000 563 q 897 740 946 692 q 780 814 847 788 q 632 840 713 840 q 484 814 551 840 q 367 740 417 788 q 290 627 317 692 q 264 486 264 563 q 290 345 264 410 q 367 233 317 281 q 484 158 417 185 q 632 132 551 132 m 572 1051 l 406 1194 l 458 1240 l 653 1153 l 611 1153 l 806 1240 l 858 1194 l 692 1051 l 572 1051 z "},"Ô":{"ha":1264,"x_min":111,"x_max":1153,"o":"m 632 -14 q 424 24 518 -14 q 258 129 329 61 q 149 288 188 197 q 111 486 111 379 q 149 684 111 593 q 258 843 188 775 q 424 949 329 911 q 632 986 518 986 q 840 949 744 986 q 1005 842 935 911 q 1114 683 1075 774 q 1153 486 1153 592 q 1114 290 1153 381 q 1005 130 1075 199 q 840 24 935 61 q 632 -14 744 -14 m 632 132 q 780 158 713 132 q 897 233 847 185 q 973 345 946 281 q 1000 486 1000 410 q 973 627 1000 563 q 897 740 946 692 q 780 814 847 788 q 632 840 713 840 q 484 814 551 840 q 367 740 417 788 q 290 627 317 692 q 264 486 264 563 q 290 345 264 410 q 367 233 317 281 q 484 158 417 185 q 632 132 551 132 m 460 1049 l 408 1097 l 581 1238 l 682 1238 l 854 1097 l 803 1049 l 611 1139 l 651 1139 l 460 1049 z "},"Ố":{"ha":1264,"x_min":111,"x_max":1153,"o":"m 632 -14 q 424 24 518 -14 q 258 129 329 61 q 149 288 188 197 q 111 486 111 379 q 149 684 111 593 q 258 843 188 775 q 424 949 329 911 q 632 986 518 986 q 840 949 744 986 q 1005 842 935 911 q 1114 683 1075 774 q 1153 486 1153 592 q 1114 290 1153 381 q 1005 130 1075 199 q 840 24 935 61 q 632 -14 744 -14 m 632 132 q 780 158 713 132 q 897 233 847 185 q 973 345 946 281 q 1000 486 1000 410 q 973 627 1000 563 q 897 740 946 692 q 780 814 847 788 q 632 840 713 840 q 484 814 551 840 q 367 740 417 788 q 290 627 317 692 q 264 486 264 563 q 290 345 264 410 q 367 233 317 281 q 484 158 417 185 q 632 132 551 132 m 460 1049 l 414 1099 l 581 1235 l 682 1235 l 849 1099 l 803 1049 l 611 1136 l 651 1136 l 460 1049 m 857 1200 l 785 1250 l 899 1453 l 1019 1367 l 857 1200 z "},"Ộ":{"ha":1264,"x_min":111,"x_max":1153,"o":"m 632 -14 q 424 24 518 -14 q 258 129 329 61 q 149 288 188 197 q 111 486 111 379 q 149 684 111 593 q 258 843 188 775 q 424 949 329 911 q 632 986 518 986 q 840 949 744 986 q 1005 842 935 911 q 1114 683 1075 774 q 1153 486 1153 592 q 1114 290 1153 381 q 1005 130 1075 199 q 840 24 935 61 q 632 -14 744 -14 m 632 132 q 780 158 713 132 q 897 233 847 185 q 973 345 946 281 q 1000 486 1000 410 q 973 627 1000 563 q 897 740 946 692 q 780 814 847 788 q 632 840 713 840 q 484 814 551 840 q 367 740 417 788 q 290 627 317 692 q 264 486 264 563 q 290 345 264 410 q 367 233 317 281 q 484 158 417 185 q 632 132 551 132 m 632 -286 q 560 -262 585 -286 q 536 -196 536 -237 q 561 -132 536 -158 q 632 -106 586 -106 q 703 -130 679 -106 q 728 -196 728 -154 q 703 -260 728 -233 q 632 -286 678 -286 m 460 1049 l 408 1097 l 581 1238 l 682 1238 l 854 1097 l 803 1049 l 611 1139 l 651 1139 l 460 1049 z "},"Ồ":{"ha":1264,"x_min":111,"x_max":1153,"o":"m 632 -14 q 424 24 518 -14 q 258 129 329 61 q 149 288 188 197 q 111 486 111 379 q 149 684 111 593 q 258 843 188 775 q 424 949 329 911 q 632 986 518 986 q 840 949 744 986 q 1005 842 935 911 q 1114 683 1075 774 q 1153 486 1153 592 q 1114 290 1153 381 q 1005 130 1075 199 q 840 24 935 61 q 632 -14 744 -14 m 632 132 q 780 158 713 132 q 897 233 847 185 q 973 345 946 281 q 1000 486 1000 410 q 973 627 1000 563 q 897 740 946 692 q 780 814 847 788 q 632 840 713 840 q 484 814 551 840 q 367 740 417 788 q 290 627 317 692 q 264 486 264 563 q 290 345 264 410 q 367 233 317 281 q 484 158 417 185 q 632 132 551 132 m 460 1049 l 414 1099 l 581 1235 l 682 1235 l 849 1099 l 803 1049 l 611 1136 l 651 1136 l 460 1049 m 861 1201 l 693 1369 l 813 1457 l 928 1254 l 861 1201 z "},"Ổ":{"ha":1264,"x_min":111,"x_max":1153,"o":"m 632 -14 q 424 24 518 -14 q 258 129 329 61 q 149 288 188 197 q 111 486 111 379 q 149 684 111 593 q 258 843 188 775 q 424 949 329 911 q 632 986 518 986 q 840 949 744 986 q 1005 842 935 911 q 1114 683 1075 774 q 1153 486 1153 592 q 1114 290 1153 381 q 1005 130 1075 199 q 840 24 935 61 q 632 -14 744 -14 m 632 132 q 780 158 713 132 q 897 233 847 185 q 973 345 946 281 q 1000 486 1000 410 q 973 627 1000 563 q 897 740 946 692 q 780 814 847 788 q 632 840 713 840 q 484 814 551 840 q 367 740 417 788 q 290 627 317 692 q 264 486 264 563 q 290 345 264 410 q 367 233 317 281 q 484 158 417 185 q 632 132 551 132 m 460 1049 l 414 1099 l 581 1235 l 682 1235 l 849 1099 l 803 1049 l 611 1136 l 651 1136 l 460 1049 m 818 1199 q 803 1222 810 1210 q 797 1247 797 1235 q 803 1272 797 1260 q 835 1301 810 1285 q 866 1324 856 1315 q 876 1338 876 1332 q 865 1356 876 1350 q 835 1361 853 1361 q 786 1354 813 1361 q 736 1336 760 1347 l 714 1424 q 776 1449 743 1440 q 838 1457 810 1457 q 948 1426 911 1457 q 985 1350 985 1394 q 967 1303 985 1321 q 933 1275 950 1286 q 896 1250 907 1260 q 885 1232 885 1240 q 886 1224 885 1228 q 889 1217 888 1221 l 818 1199 z "},"Ỗ":{"ha":1264,"x_min":111,"x_max":1153,"o":"m 632 -14 q 424 24 518 -14 q 258 129 329 61 q 149 288 188 197 q 111 486 111 379 q 149 684 111 593 q 258 843 188 775 q 424 949 329 911 q 632 986 518 986 q 840 949 744 986 q 1005 842 935 911 q 1114 683 1075 774 q 1153 486 1153 592 q 1114 290 1153 381 q 1005 130 1075 199 q 840 24 935 61 q 632 -14 744 -14 m 632 132 q 780 158 713 132 q 897 233 847 185 q 973 345 946 281 q 1000 486 1000 410 q 973 627 1000 563 q 897 740 946 692 q 780 814 847 788 q 632 840 713 840 q 484 814 551 840 q 367 740 417 788 q 290 627 317 692 q 264 486 264 563 q 290 345 264 410 q 367 233 317 281 q 484 158 417 185 q 632 132 551 132 m 460 1049 l 414 1099 l 581 1235 l 682 1235 l 849 1099 l 803 1049 l 611 1136 l 651 1136 l 460 1049 m 739 1301 q 677 1311 706 1301 q 625 1331 649 1321 q 583 1349 600 1342 q 553 1356 567 1356 q 521 1342 535 1356 q 501 1304 507 1328 l 407 1318 q 449 1417 410 1375 q 543 1460 488 1460 q 597 1450 572 1460 q 646 1429 621 1440 q 683 1413 664 1421 q 715 1406 701 1406 q 745 1419 735 1406 q 761 1458 756 1432 l 856 1444 q 840 1373 854 1406 q 801 1321 826 1340 q 739 1301 776 1301 z "},"Ȍ":{"ha":1264,"x_min":111,"x_max":1153,"o":"m 632 -14 q 424 24 518 -14 q 258 129 329 61 q 149 288 188 197 q 111 486 111 379 q 149 684 111 593 q 258 843 188 775 q 424 949 329 911 q 632 986 518 986 q 840 949 744 986 q 1005 842 935 911 q 1114 683 1075 774 q 1153 486 1153 592 q 1114 290 1153 381 q 1005 130 1075 199 q 840 24 935 61 q 632 -14 744 -14 m 632 132 q 780 158 713 132 q 897 233 847 185 q 973 345 946 281 q 1000 486 1000 410 q 973 627 1000 563 q 897 740 946 692 q 780 814 847 788 q 632 840 713 840 q 484 814 551 840 q 367 740 417 788 q 290 627 317 692 q 264 486 264 563 q 290 345 264 410 q 367 233 317 281 q 484 158 417 185 q 632 132 551 132 m 779 1042 l 550 1193 l 650 1299 l 832 1108 l 779 1042 m 503 1042 l 274 1193 l 374 1299 l 556 1108 l 503 1042 z "},"Ö":{"ha":1264,"x_min":111,"x_max":1153,"o":"m 632 -14 q 424 24 518 -14 q 258 129 329 61 q 149 288 188 197 q 111 486 111 379 q 149 684 111 593 q 258 843 188 775 q 424 949 329 911 q 632 986 518 986 q 840 949 744 986 q 1005 842 935 911 q 1114 683 1075 774 q 1153 486 1153 592 q 1114 290 1153 381 q 1005 130 1075 199 q 840 24 935 61 q 632 -14 744 -14 m 632 132 q 780 158 713 132 q 897 233 847 185 q 973 345 946 281 q 1000 486 1000 410 q 973 627 1000 563 q 897 740 946 692 q 780 814 847 788 q 632 840 713 840 q 484 814 551 840 q 367 740 417 788 q 290 627 317 692 q 264 486 264 563 q 290 345 264 410 q 367 233 317 281 q 484 158 417 185 q 632 132 551 132 m 775 1054 q 703 1079 726 1054 q 679 1144 679 1104 q 703 1207 679 1179 q 775 1235 726 1235 q 847 1210 824 1235 q 871 1144 871 1185 q 847 1082 871 1110 q 775 1054 824 1054 m 489 1054 q 417 1079 440 1054 q 393 1144 393 1104 q 417 1207 393 1179 q 489 1235 440 1235 q 561 1210 538 1235 q 585 1144 585 1185 q 561 1082 585 1110 q 489 1054 538 1054 z "},"Ȫ":{"ha":1264,"x_min":111,"x_max":1153,"o":"m 632 -14 q 424 24 518 -14 q 258 129 329 61 q 149 288 188 197 q 111 486 111 379 q 149 684 111 593 q 258 843 188 775 q 424 949 329 911 q 632 986 518 986 q 840 949 744 986 q 1005 842 935 911 q 1114 683 1075 774 q 1153 486 1153 592 q 1114 290 1153 381 q 1005 130 1075 199 q 840 24 935 61 q 632 -14 744 -14 m 632 132 q 780 158 713 132 q 897 233 847 185 q 973 345 946 281 q 1000 486 1000 410 q 973 627 1000 563 q 897 740 946 692 q 780 814 847 788 q 632 840 713 840 q 484 814 551 840 q 367 740 417 788 q 290 627 317 692 q 264 486 264 563 q 290 345 264 410 q 367 233 317 281 q 484 158 417 185 q 632 132 551 132 m 775 1054 q 703 1079 726 1054 q 679 1144 679 1104 q 703 1207 679 1179 q 775 1235 726 1235 q 847 1210 824 1235 q 871 1144 871 1185 q 847 1082 871 1110 q 775 1054 824 1054 m 489 1054 q 417 1079 440 1054 q 393 1144 393 1104 q 417 1207 393 1179 q 489 1235 440 1235 q 561 1210 538 1235 q 585 1144 585 1185 q 561 1082 585 1110 q 489 1054 538 1054 m 401 1301 l 401 1406 l 861 1406 l 861 1301 l 401 1301 z "},"Ȱ":{"ha":1264,"x_min":111,"x_max":1153,"o":"m 632 -14 q 424 24 518 -14 q 258 129 329 61 q 149 288 188 197 q 111 486 111 379 q 149 684 111 593 q 258 843 188 775 q 424 949 329 911 q 632 986 518 986 q 840 949 744 986 q 1005 842 935 911 q 1114 683 1075 774 q 1153 486 1153 592 q 1114 290 1153 381 q 1005 130 1075 199 q 840 24 935 61 q 632 -14 744 -14 m 632 132 q 780 158 713 132 q 897 233 847 185 q 973 345 946 281 q 1000 486 1000 410 q 973 627 1000 563 q 897 740 946 692 q 780 814 847 788 q 632 840 713 840 q 484 814 551 840 q 367 740 417 788 q 290 627 317 692 q 264 486 264 563 q 290 345 264 410 q 367 233 317 281 q 484 158 417 185 q 632 132 551 132 m 632 1054 q 560 1079 583 1054 q 536 1144 536 1104 q 560 1207 536 1179 q 632 1235 583 1235 q 704 1210 681 1235 q 728 1144 728 1185 q 704 1082 728 1110 q 632 1054 681 1054 m 401 1301 l 401 1406 l 861 1406 l 861 1301 l 401 1301 z "},"Ọ":{"ha":1264,"x_min":111,"x_max":1153,"o":"m 632 -14 q 424 24 518 -14 q 258 129 329 61 q 149 288 188 197 q 111 486 111 379 q 149 684 111 593 q 258 843 188 775 q 424 949 329 911 q 632 986 518 986 q 840 949 744 986 q 1005 842 935 911 q 1114 683 1075 774 q 1153 486 1153 592 q 1114 290 1153 381 q 1005 130 1075 199 q 840 24 935 61 q 632 -14 744 -14 m 632 132 q 780 158 713 132 q 897 233 847 185 q 973 345 946 281 q 1000 486 1000 410 q 973 627 1000 563 q 897 740 946 692 q 780 814 847 788 q 632 840 713 840 q 484 814 551 840 q 367 740 417 788 q 290 627 317 692 q 264 486 264 563 q 290 345 264 410 q 367 233 317 281 q 484 158 417 185 q 632 132 551 132 m 632 -286 q 560 -262 585 -286 q 536 -196 536 -237 q 561 -132 536 -158 q 632 -106 586 -106 q 703 -130 679 -106 q 728 -196 728 -154 q 703 -260 728 -233 q 632 -286 678 -286 z "},"Ò":{"ha":1264,"x_min":111,"x_max":1153,"o":"m 632 -14 q 424 24 518 -14 q 258 129 329 61 q 149 288 188 197 q 111 486 111 379 q 149 684 111 593 q 258 843 188 775 q 424 949 329 911 q 632 986 518 986 q 840 949 744 986 q 1005 842 935 911 q 1114 683 1075 774 q 1153 486 1153 592 q 1114 290 1153 381 q 1005 130 1075 199 q 840 24 935 61 q 632 -14 744 -14 m 632 132 q 780 158 713 132 q 897 233 847 185 q 973 345 946 281 q 1000 486 1000 410 q 973 627 1000 563 q 897 740 946 692 q 780 814 847 788 q 632 840 713 840 q 484 814 551 840 q 367 740 417 788 q 290 627 317 692 q 264 486 264 563 q 290 345 264 410 q 367 233 317 281 q 484 158 417 185 q 632 132 551 132 m 743 1049 l 463 1153 l 531 1278 l 785 1121 l 743 1049 z "},"Ỏ":{"ha":1264,"x_min":111,"x_max":1153,"o":"m 632 -14 q 424 24 518 -14 q 258 129 329 61 q 149 288 188 197 q 111 486 111 379 q 149 684 111 593 q 258 843 188 775 q 424 949 329 911 q 632 986 518 986 q 840 949 744 986 q 1005 842 935 911 q 1114 683 1075 774 q 1153 486 1153 592 q 1114 290 1153 381 q 1005 130 1075 199 q 840 24 935 61 q 632 -14 744 -14 m 632 132 q 780 158 713 132 q 897 233 847 185 q 973 345 946 281 q 1000 486 1000 410 q 973 627 1000 563 q 897 740 946 692 q 780 814 847 788 q 632 840 713 840 q 484 814 551 840 q 367 740 417 788 q 290 627 317 692 q 264 486 264 563 q 290 345 264 410 q 367 233 317 281 q 484 158 417 185 q 632 132 551 132 m 600 1053 q 585 1080 590 1067 q 579 1106 579 1093 q 587 1133 579 1118 q 617 1164 594 1149 q 649 1188 640 1179 q 658 1206 658 1196 q 647 1224 658 1218 q 617 1229 635 1229 q 568 1222 594 1229 q 518 1204 542 1215 l 496 1292 q 558 1317 525 1308 q 619 1325 592 1325 q 730 1294 693 1325 q 767 1218 767 1263 q 751 1163 767 1183 q 715 1133 735 1143 q 678 1112 690 1121 q 667 1089 667 1103 q 668 1079 667 1083 q 671 1071 669 1075 l 600 1053 z "},"Ơ":{"ha":1264,"x_min":111,"x_max":1153,"o":"m 632 -14 q 424 24 518 -14 q 258 129 329 61 q 149 288 188 197 q 111 486 111 379 q 149 684 111 593 q 258 843 188 775 q 424 949 329 911 q 632 986 518 986 q 696 983 667 986 q 750 974 725 979 q 796 967 774 969 q 840 965 818 965 q 917 983 886 965 q 965 1037 949 1000 q 981 1131 981 1074 l 1108 1131 q 1097 1032 1108 1076 q 1061 954 1085 988 q 1001 900 1038 921 q 913 875 964 879 l 924 907 q 1046 799 994 863 q 1125 656 1097 735 q 1153 486 1153 576 q 1114 290 1153 381 q 1005 130 1075 199 q 840 24 935 61 q 632 -14 744 -14 m 632 132 q 780 158 713 132 q 897 233 847 185 q 973 345 946 281 q 1000 486 1000 410 q 973 627 1000 563 q 897 740 946 692 q 780 814 847 788 q 632 840 713 840 q 484 814 551 840 q 367 740 417 788 q 290 627 317 692 q 264 486 264 563 q 290 345 264 410 q 367 233 317 281 q 484 158 417 185 q 632 132 551 132 z "},"Ớ":{"ha":1264,"x_min":111,"x_max":1153,"o":"m 632 -14 q 424 24 518 -14 q 258 129 329 61 q 149 288 188 197 q 111 486 111 379 q 149 684 111 593 q 258 843 188 775 q 424 949 329 911 q 632 986 518 986 q 696 983 667 986 q 750 974 725 979 q 796 967 774 969 q 840 965 818 965 q 917 983 886 965 q 965 1037 949 1000 q 981 1131 981 1074 l 1108 1131 q 1097 1032 1108 1076 q 1061 954 1085 988 q 1001 900 1038 921 q 913 875 964 879 l 924 907 q 1046 799 994 863 q 1125 656 1097 735 q 1153 486 1153 576 q 1114 290 1153 381 q 1005 130 1075 199 q 840 24 935 61 q 632 -14 744 -14 m 632 132 q 780 158 713 132 q 897 233 847 185 q 973 345 946 281 q 1000 486 1000 410 q 973 627 1000 563 q 897 740 946 692 q 780 814 847 788 q 632 840 713 840 q 484 814 551 840 q 367 740 417 788 q 290 627 317 692 q 264 486 264 563 q 290 345 264 410 q 367 233 317 281 q 484 158 417 185 q 632 132 551 132 m 532 1049 l 493 1121 l 747 1278 l 813 1153 l 532 1049 z "},"Ợ":{"ha":1264,"x_min":111,"x_max":1153,"o":"m 632 -14 q 424 24 518 -14 q 258 129 329 61 q 149 288 188 197 q 111 486 111 379 q 149 684 111 593 q 258 843 188 775 q 424 949 329 911 q 632 986 518 986 q 696 983 667 986 q 750 974 725 979 q 796 967 774 969 q 840 965 818 965 q 917 983 886 965 q 965 1037 949 1000 q 981 1131 981 1074 l 1108 1131 q 1097 1032 1108 1076 q 1061 954 1085 988 q 1001 900 1038 921 q 913 875 964 879 l 924 907 q 1046 799 994 863 q 1125 656 1097 735 q 1153 486 1153 576 q 1114 290 1153 381 q 1005 130 1075 199 q 840 24 935 61 q 632 -14 744 -14 m 632 132 q 780 158 713 132 q 897 233 847 185 q 973 345 946 281 q 1000 486 1000 410 q 973 627 1000 563 q 897 740 946 692 q 780 814 847 788 q 632 840 713 840 q 484 814 551 840 q 367 740 417 788 q 290 627 317 692 q 264 486 264 563 q 290 345 264 410 q 367 233 317 281 q 484 158 417 185 q 632 132 551 132 m 632 -286 q 560 -262 585 -286 q 536 -196 536 -237 q 561 -132 536 -158 q 632 -106 586 -106 q 703 -130 679 -106 q 728 -196 728 -154 q 703 -260 728 -233 q 632 -286 678 -286 z "},"Ờ":{"ha":1264,"x_min":111,"x_max":1153,"o":"m 632 -14 q 424 24 518 -14 q 258 129 329 61 q 149 288 188 197 q 111 486 111 379 q 149 684 111 593 q 258 843 188 775 q 424 949 329 911 q 632 986 518 986 q 696 983 667 986 q 750 974 725 979 q 796 967 774 969 q 840 965 818 965 q 917 983 886 965 q 965 1037 949 1000 q 981 1131 981 1074 l 1108 1131 q 1097 1032 1108 1076 q 1061 954 1085 988 q 1001 900 1038 921 q 913 875 964 879 l 924 907 q 1046 799 994 863 q 1125 656 1097 735 q 1153 486 1153 576 q 1114 290 1153 381 q 1005 130 1075 199 q 840 24 935 61 q 632 -14 744 -14 m 632 132 q 780 158 713 132 q 897 233 847 185 q 973 345 946 281 q 1000 486 1000 410 q 973 627 1000 563 q 897 740 946 692 q 780 814 847 788 q 632 840 713 840 q 484 814 551 840 q 367 740 417 788 q 290 627 317 692 q 264 486 264 563 q 290 345 264 410 q 367 233 317 281 q 484 158 417 185 q 632 132 551 132 m 743 1049 l 463 1153 l 531 1278 l 785 1121 l 743 1049 z "},"Ở":{"ha":1264,"x_min":111,"x_max":1153,"o":"m 632 -14 q 424 24 518 -14 q 258 129 329 61 q 149 288 188 197 q 111 486 111 379 q 149 684 111 593 q 258 843 188 775 q 424 949 329 911 q 632 986 518 986 q 696 983 667 986 q 750 974 725 979 q 796 967 774 969 q 840 965 818 965 q 917 983 886 965 q 965 1037 949 1000 q 981 1131 981 1074 l 1108 1131 q 1097 1032 1108 1076 q 1061 954 1085 988 q 1001 900 1038 921 q 913 875 964 879 l 924 907 q 1046 799 994 863 q 1125 656 1097 735 q 1153 486 1153 576 q 1114 290 1153 381 q 1005 130 1075 199 q 840 24 935 61 q 632 -14 744 -14 m 632 132 q 780 158 713 132 q 897 233 847 185 q 973 345 946 281 q 1000 486 1000 410 q 973 627 1000 563 q 897 740 946 692 q 780 814 847 788 q 632 840 713 840 q 484 814 551 840 q 367 740 417 788 q 290 627 317 692 q 264 486 264 563 q 290 345 264 410 q 367 233 317 281 q 484 158 417 185 q 632 132 551 132 m 600 1053 q 585 1080 590 1067 q 579 1106 579 1093 q 587 1133 579 1118 q 617 1164 594 1149 q 649 1188 640 1179 q 658 1206 658 1196 q 647 1224 658 1218 q 617 1229 635 1229 q 568 1222 594 1229 q 518 1204 542 1215 l 496 1292 q 558 1317 525 1308 q 619 1325 592 1325 q 730 1294 693 1325 q 767 1218 767 1263 q 751 1163 767 1183 q 715 1133 735 1143 q 678 1112 690 1121 q 667 1089 667 1103 q 668 1079 667 1083 q 671 1071 669 1075 l 600 1053 z "},"Ỡ":{"ha":1264,"x_min":111,"x_max":1153,"o":"m 632 -14 q 424 24 518 -14 q 258 129 329 61 q 149 288 188 197 q 111 486 111 379 q 149 684 111 593 q 258 843 188 775 q 424 949 329 911 q 632 986 518 986 q 696 983 667 986 q 750 974 725 979 q 796 967 774 969 q 840 965 818 965 q 917 983 886 965 q 965 1037 949 1000 q 981 1131 981 1074 l 1108 1131 q 1097 1032 1108 1076 q 1061 954 1085 988 q 1001 900 1038 921 q 913 875 964 879 l 924 907 q 1046 799 994 863 q 1125 656 1097 735 q 1153 486 1153 576 q 1114 290 1153 381 q 1005 130 1075 199 q 840 24 935 61 q 632 -14 744 -14 m 632 132 q 780 158 713 132 q 897 233 847 185 q 973 345 946 281 q 1000 486 1000 410 q 973 627 1000 563 q 897 740 946 692 q 780 814 847 788 q 632 840 713 840 q 484 814 551 840 q 367 740 417 788 q 290 627 317 692 q 264 486 264 563 q 290 345 264 410 q 367 233 317 281 q 484 158 417 185 q 632 132 551 132 m 735 1067 q 670 1077 703 1067 q 608 1099 638 1088 q 568 1114 585 1108 q 538 1119 551 1119 q 508 1106 519 1119 q 496 1067 496 1093 l 389 1067 q 438 1183 389 1142 q 547 1224 486 1224 q 604 1214 576 1224 q 658 1193 632 1204 q 697 1179 678 1185 q 728 1174 715 1174 q 758 1188 747 1174 q 768 1224 769 1201 l 874 1224 q 857 1147 874 1183 q 809 1089 840 1111 q 735 1067 778 1067 z "},"Ő":{"ha":1264,"x_min":111,"x_max":1153,"o":"m 632 -14 q 424 24 518 -14 q 258 129 329 61 q 149 288 188 197 q 111 486 111 379 q 149 684 111 593 q 258 843 188 775 q 424 949 329 911 q 632 986 518 986 q 840 949 744 986 q 1005 842 935 911 q 1114 683 1075 774 q 1153 486 1153 592 q 1114 290 1153 381 q 1005 130 1075 199 q 840 24 935 61 q 632 -14 744 -14 m 632 132 q 780 158 713 132 q 897 233 847 185 q 973 345 946 281 q 1000 486 1000 410 q 973 627 1000 563 q 897 740 946 692 q 780 814 847 788 q 632 840 713 840 q 484 814 551 840 q 367 740 417 788 q 290 627 317 692 q 264 486 264 563 q 290 345 264 410 q 367 233 317 281 q 484 158 417 185 q 632 132 551 132 m 479 1042 l 426 1108 l 608 1299 l 708 1193 l 479 1042 m 756 1042 l 703 1108 l 885 1299 l 985 1193 l 756 1042 z "},"Ȏ":{"ha":1264,"x_min":111,"x_max":1153,"o":"m 632 -14 q 424 24 518 -14 q 258 129 329 61 q 149 288 188 197 q 111 486 111 379 q 149 684 111 593 q 258 843 188 775 q 424 949 329 911 q 632 986 518 986 q 840 949 744 986 q 1005 842 935 911 q 1114 683 1075 774 q 1153 486 1153 592 q 1114 290 1153 381 q 1005 130 1075 199 q 840 24 935 61 q 632 -14 744 -14 m 632 132 q 780 158 713 132 q 897 233 847 185 q 973 345 946 281 q 1000 486 1000 410 q 973 627 1000 563 q 897 740 946 692 q 780 814 847 788 q 632 840 713 840 q 484 814 551 840 q 367 740 417 788 q 290 627 317 692 q 264 486 264 563 q 290 345 264 410 q 367 233 317 281 q 484 158 417 185 q 632 132 551 132 m 510 1043 l 407 1060 q 451 1152 419 1110 q 528 1220 482 1194 q 632 1246 575 1246 q 736 1220 690 1246 q 814 1152 782 1194 q 857 1060 846 1110 l 754 1043 q 707 1106 739 1078 q 632 1133 675 1133 q 557 1106 589 1133 q 510 1043 525 1078 z "},"Ō":{"ha":1264,"x_min":111,"x_max":1153,"o":"m 632 -14 q 424 24 518 -14 q 258 129 329 61 q 149 288 188 197 q 111 486 111 379 q 149 684 111 593 q 258 843 188 775 q 424 949 329 911 q 632 986 518 986 q 840 949 744 986 q 1005 842 935 911 q 1114 683 1075 774 q 1153 486 1153 592 q 1114 290 1153 381 q 1005 130 1075 199 q 840 24 935 61 q 632 -14 744 -14 m 632 132 q 780 158 713 132 q 897 233 847 185 q 973 345 946 281 q 1000 486 1000 410 q 973 627 1000 563 q 897 740 946 692 q 780 814 847 788 q 632 840 713 840 q 484 814 551 840 q 367 740 417 788 q 290 627 317 692 q 264 486 264 563 q 290 345 264 410 q 367 233 317 281 q 484 158 417 185 q 632 132 551 132 m 401 1093 l 401 1197 l 861 1197 l 861 1093 l 401 1093 z "},"Ṓ":{"ha":1264,"x_min":111,"x_max":1153,"o":"m 632 -14 q 424 24 518 -14 q 258 129 329 61 q 149 288 188 197 q 111 486 111 379 q 149 684 111 593 q 258 843 188 775 q 424 949 329 911 q 632 986 518 986 q 840 949 744 986 q 1005 842 935 911 q 1114 683 1075 774 q 1153 486 1153 592 q 1114 290 1153 381 q 1005 130 1075 199 q 840 24 935 61 q 632 -14 744 -14 m 632 132 q 780 158 713 132 q 897 233 847 185 q 973 345 946 281 q 1000 486 1000 410 q 973 627 1000 563 q 897 740 946 692 q 780 814 847 788 q 632 840 713 840 q 484 814 551 840 q 367 740 417 788 q 290 627 317 692 q 264 486 264 563 q 290 345 264 410 q 367 233 317 281 q 484 158 417 185 q 632 132 551 132 m 401 1093 l 401 1197 l 861 1197 l 861 1093 l 401 1093 m 532 1257 l 493 1329 l 747 1486 l 813 1361 l 532 1257 z "},"Ṑ":{"ha":1264,"x_min":111,"x_max":1153,"o":"m 632 -14 q 424 24 518 -14 q 258 129 329 61 q 149 288 188 197 q 111 486 111 379 q 149 684 111 593 q 258 843 188 775 q 424 949 329 911 q 632 986 518 986 q 840 949 744 986 q 1005 842 935 911 q 1114 683 1075 774 q 1153 486 1153 592 q 1114 290 1153 381 q 1005 130 1075 199 q 840 24 935 61 q 632 -14 744 -14 m 632 132 q 780 158 713 132 q 897 233 847 185 q 973 345 946 281 q 1000 486 1000 410 q 973 627 1000 563 q 897 740 946 692 q 780 814 847 788 q 632 840 713 840 q 484 814 551 840 q 367 740 417 788 q 290 627 317 692 q 264 486 264 563 q 290 345 264 410 q 367 233 317 281 q 484 158 417 185 q 632 132 551 132 m 401 1093 l 401 1197 l 861 1197 l 861 1093 l 401 1093 m 743 1257 l 463 1361 l 531 1486 l 785 1329 l 743 1257 z "},"Ǫ":{"ha":1264,"x_min":111,"x_max":1153,"o":"m 742 -278 q 635 -240 681 -278 q 590 -136 590 -201 q 615 -52 590 -90 q 678 17 639 -14 q 765 74 718 49 q 857 121 811 100 l 900 54 q 835 17 868 36 q 776 -24 803 -3 q 733 -69 750 -46 q 717 -118 717 -92 q 729 -156 717 -142 q 764 -171 742 -171 q 793 -161 781 -171 q 815 -136 806 -151 l 893 -192 q 838 -251 881 -224 q 742 -278 794 -278 m 632 -14 q 424 24 518 -14 q 258 129 329 61 q 149 288 188 197 q 111 486 111 379 q 149 684 111 593 q 258 843 188 775 q 424 949 329 911 q 632 986 518 986 q 840 949 744 986 q 1005 842 935 911 q 1114 683 1075 774 q 1153 486 1153 592 q 1114 290 1153 381 q 1005 130 1075 199 q 840 24 935 61 q 632 -14 744 -14 m 632 132 q 780 158 713 132 q 897 233 847 185 q 973 345 946 281 q 1000 486 1000 410 q 973 627 1000 563 q 897 740 946 692 q 780 814 847 788 q 632 840 713 840 q 484 814 551 840 q 367 740 417 788 q 290 627 317 692 q 264 486 264 563 q 290 345 264 410 q 367 233 317 281 q 484 158 417 185 q 632 132 551 132 z "},"Ø":{"ha":1269,"x_min":118,"x_max":1160,"o":"m 207 -46 l 121 39 l 1061 1026 l 1154 950 l 207 -46 m 639 -14 q 431 24 525 -14 q 265 129 336 61 q 156 288 194 197 q 118 486 118 379 q 156 684 118 593 q 265 843 194 775 q 431 949 336 911 q 639 986 525 986 q 847 949 751 986 q 1012 842 942 911 q 1121 683 1082 774 q 1160 486 1160 592 q 1121 290 1160 381 q 1012 130 1082 199 q 847 24 942 61 q 639 -14 751 -14 m 639 132 q 787 158 719 132 q 903 233 854 185 q 980 345 953 281 q 1007 486 1007 410 q 980 627 1007 563 q 903 740 953 692 q 787 814 854 788 q 639 840 719 840 q 491 814 558 840 q 374 740 424 788 q 297 627 324 692 q 271 486 271 563 q 297 345 271 410 q 374 233 324 281 q 491 158 424 185 q 639 132 558 132 z "},"Ǿ":{"ha":1269,"x_min":118,"x_max":1160,"o":"m 207 -46 l 121 39 l 1061 1026 l 1154 950 l 207 -46 m 639 -14 q 431 24 525 -14 q 265 129 336 61 q 156 288 194 197 q 118 486 118 379 q 156 684 118 593 q 265 843 194 775 q 431 949 336 911 q 639 986 525 986 q 847 949 751 986 q 1012 842 942 911 q 1121 683 1082 774 q 1160 486 1160 592 q 1121 290 1160 381 q 1012 130 1082 199 q 847 24 942 61 q 639 -14 751 -14 m 639 132 q 787 158 719 132 q 903 233 854 185 q 980 345 953 281 q 1007 486 1007 410 q 980 627 1007 563 q 903 740 953 692 q 787 814 854 788 q 639 840 719 840 q 491 814 558 840 q 374 740 424 788 q 297 627 324 692 q 271 486 271 563 q 297 345 271 410 q 374 233 324 281 q 491 158 424 185 q 639 132 558 132 m 535 1049 l 496 1121 l 750 1278 l 815 1153 l 535 1049 z "},"Õ":{"ha":1264,"x_min":111,"x_max":1153,"o":"m 632 -14 q 424 24 518 -14 q 258 129 329 61 q 149 288 188 197 q 111 486 111 379 q 149 684 111 593 q 258 843 188 775 q 424 949 329 911 q 632 986 518 986 q 840 949 744 986 q 1005 842 935 911 q 1114 683 1075 774 q 1153 486 1153 592 q 1114 290 1153 381 q 1005 130 1075 199 q 840 24 935 61 q 632 -14 744 -14 m 632 132 q 780 158 713 132 q 897 233 847 185 q 973 345 946 281 q 1000 486 1000 410 q 973 627 1000 563 q 897 740 946 692 q 780 814 847 788 q 632 840 713 840 q 484 814 551 840 q 367 740 417 788 q 290 627 317 692 q 264 486 264 563 q 290 345 264 410 q 367 233 317 281 q 484 158 417 185 q 632 132 551 132 m 735 1067 q 670 1077 703 1067 q 608 1099 638 1088 q 568 1114 585 1108 q 538 1119 551 1119 q 508 1106 519 1119 q 496 1067 496 1093 l 389 1067 q 438 1183 389 1142 q 547 1224 486 1224 q 604 1214 576 1224 q 658 1193 632 1204 q 697 1179 678 1185 q 728 1174 715 1174 q 758 1188 747 1174 q 768 1224 769 1201 l 874 1224 q 857 1147 874 1183 q 809 1089 840 1111 q 735 1067 778 1067 z "},"Ṍ":{"ha":1264,"x_min":111,"x_max":1153,"o":"m 632 -14 q 424 24 518 -14 q 258 129 329 61 q 149 288 188 197 q 111 486 111 379 q 149 684 111 593 q 258 843 188 775 q 424 949 329 911 q 632 986 518 986 q 840 949 744 986 q 1005 842 935 911 q 1114 683 1075 774 q 1153 486 1153 592 q 1114 290 1153 381 q 1005 130 1075 199 q 840 24 935 61 q 632 -14 744 -14 m 632 132 q 780 158 713 132 q 897 233 847 185 q 973 345 946 281 q 1000 486 1000 410 q 973 627 1000 563 q 897 740 946 692 q 780 814 847 788 q 632 840 713 840 q 484 814 551 840 q 367 740 417 788 q 290 627 317 692 q 264 486 264 563 q 290 345 264 410 q 367 233 317 281 q 484 158 417 185 q 632 132 551 132 m 735 1067 q 670 1077 703 1067 q 608 1099 638 1088 q 568 1114 585 1108 q 538 1119 551 1119 q 508 1106 519 1119 q 496 1067 496 1093 l 389 1067 q 438 1183 389 1142 q 547 1224 486 1224 q 604 1214 576 1224 q 658 1193 632 1204 q 697 1179 678 1185 q 728 1174 715 1174 q 758 1188 747 1174 q 768 1224 769 1201 l 874 1224 q 857 1147 874 1183 q 809 1089 840 1111 q 735 1067 778 1067 m 532 1257 l 493 1329 l 747 1486 l 813 1361 l 532 1257 z "},"Ṏ":{"ha":1264,"x_min":111,"x_max":1153,"o":"m 632 -14 q 424 24 518 -14 q 258 129 329 61 q 149 288 188 197 q 111 486 111 379 q 149 684 111 593 q 258 843 188 775 q 424 949 329 911 q 632 986 518 986 q 840 949 744 986 q 1005 842 935 911 q 1114 683 1075 774 q 1153 486 1153 592 q 1114 290 1153 381 q 1005 130 1075 199 q 840 24 935 61 q 632 -14 744 -14 m 632 132 q 780 158 713 132 q 897 233 847 185 q 973 345 946 281 q 1000 486 1000 410 q 973 627 1000 563 q 897 740 946 692 q 780 814 847 788 q 632 840 713 840 q 484 814 551 840 q 367 740 417 788 q 290 627 317 692 q 264 486 264 563 q 290 345 264 410 q 367 233 317 281 q 484 158 417 185 q 632 132 551 132 m 735 1067 q 670 1077 703 1067 q 608 1099 638 1088 q 568 1114 585 1108 q 538 1119 551 1119 q 508 1106 519 1119 q 496 1067 496 1093 l 389 1067 q 438 1183 389 1142 q 547 1224 486 1224 q 604 1214 576 1224 q 658 1193 632 1204 q 697 1179 678 1185 q 728 1174 715 1174 q 758 1188 747 1174 q 768 1224 769 1201 l 874 1224 q 857 1147 874 1183 q 809 1089 840 1111 q 735 1067 778 1067 m 775 1263 q 703 1288 726 1263 q 679 1353 679 1313 q 703 1415 679 1388 q 775 1443 726 1443 q 847 1418 824 1443 q 871 1353 871 1393 q 847 1290 871 1318 q 775 1263 824 1263 m 489 1263 q 417 1288 440 1263 q 393 1353 393 1313 q 417 1415 393 1388 q 489 1443 440 1443 q 561 1418 538 1443 q 585 1353 585 1393 q 561 1290 585 1318 q 489 1263 538 1263 z "},"Ȭ":{"ha":1264,"x_min":111,"x_max":1153,"o":"m 632 -14 q 424 24 518 -14 q 258 129 329 61 q 149 288 188 197 q 111 486 111 379 q 149 684 111 593 q 258 843 188 775 q 424 949 329 911 q 632 986 518 986 q 840 949 744 986 q 1005 842 935 911 q 1114 683 1075 774 q 1153 486 1153 592 q 1114 290 1153 381 q 1005 130 1075 199 q 840 24 935 61 q 632 -14 744 -14 m 632 132 q 780 158 713 132 q 897 233 847 185 q 973 345 946 281 q 1000 486 1000 410 q 973 627 1000 563 q 897 740 946 692 q 780 814 847 788 q 632 840 713 840 q 484 814 551 840 q 367 740 417 788 q 290 627 317 692 q 264 486 264 563 q 290 345 264 410 q 367 233 317 281 q 484 158 417 185 q 632 132 551 132 m 735 1067 q 670 1077 703 1067 q 608 1099 638 1088 q 568 1114 585 1108 q 538 1119 551 1119 q 508 1106 519 1119 q 496 1067 496 1093 l 389 1067 q 438 1183 389 1142 q 547 1224 486 1224 q 604 1214 576 1224 q 658 1193 632 1204 q 697 1179 678 1185 q 728 1174 715 1174 q 758 1188 747 1174 q 768 1224 769 1201 l 874 1224 q 857 1147 874 1183 q 809 1089 840 1111 q 735 1067 778 1067 m 401 1301 l 401 1406 l 861 1406 l 861 1301 l 401 1301 z "},"Œ":{"ha":1674,"x_min":111,"x_max":1522,"o":"m 604 0 q 396 36 488 0 q 241 138 304 72 q 144 292 178 203 q 111 486 111 381 q 147 678 111 590 q 249 833 182 767 q 413 936 317 900 q 632 972 510 972 l 1522 972 l 1522 828 l 982 828 l 982 571 l 1446 571 l 1446 426 l 982 426 l 982 144 l 1522 144 l 1522 0 l 604 0 m 264 486 q 286 349 264 413 q 353 240 308 286 q 461 169 397 194 q 608 144 525 144 l 832 144 l 832 828 l 636 828 q 477 803 546 828 q 360 731 408 778 q 288 622 313 685 q 264 486 264 560 z "},"P":{"ha":1058,"x_min":183,"x_max":946,"o":"m 183 0 l 183 972 l 647 972 q 797 933 729 972 q 905 825 864 893 q 946 674 946 757 q 903 519 946 589 q 791 408 861 450 q 636 367 721 367 l 333 367 l 333 0 l 183 0 m 333 511 l 629 511 q 709 533 672 511 q 768 592 746 556 q 790 674 790 629 q 768 751 790 717 q 709 807 746 786 q 629 828 672 828 l 333 828 l 333 511 z "},"Þ":{"ha":1067,"x_min":183,"x_max":954,"o":"m 183 0 l 183 972 l 333 972 l 333 796 l 646 796 q 805 758 736 796 q 914 653 874 721 q 954 497 954 586 q 914 345 954 414 q 805 236 874 276 q 646 196 736 196 l 333 196 l 333 0 l 183 0 m 333 340 l 651 340 q 725 362 692 340 q 778 419 758 383 q 799 497 799 454 q 778 575 799 540 q 725 631 758 610 q 651 651 692 651 l 333 651 l 333 340 z "},"Q":{"ha":1264,"x_min":111,"x_max":1153,"o":"m 953 -153 l 585 329 l 708 406 l 1072 -72 l 953 -153 m 632 -14 q 424 24 518 -14 q 258 129 329 61 q 149 288 188 197 q 111 486 111 379 q 149 684 111 593 q 258 843 188 775 q 424 949 329 911 q 632 986 518 986 q 840 949 744 986 q 1005 842 935 911 q 1114 683 1075 774 q 1153 486 1153 592 q 1114 290 1153 381 q 1005 130 1075 199 q 840 24 935 61 q 632 -14 744 -14 m 632 132 q 780 158 713 132 q 897 233 847 185 q 973 345 946 281 q 1000 486 1000 410 q 973 627 1000 563 q 897 740 946 692 q 780 814 847 788 q 632 840 713 840 q 484 814 551 840 q 367 740 417 788 q 290 627 317 692 q 264 486 264 563 q 290 345 264 410 q 367 233 317 281 q 484 158 417 185 q 632 132 551 132 z "},"R":{"ha":1140,"x_min":183,"x_max":1015,"o":"m 183 0 l 183 972 l 658 972 q 814 932 743 972 q 926 822 885 892 q 968 667 968 753 q 924 515 968 585 q 808 404 881 446 q 647 363 735 363 l 333 363 l 333 0 l 183 0 m 831 0 l 550 439 l 707 474 l 1015 -1 l 831 0 m 333 507 l 650 507 q 733 528 696 507 q 791 587 769 550 q 813 668 813 624 q 788 750 813 714 q 722 807 764 786 q 626 828 679 828 l 333 828 l 333 507 z "},"Ŕ":{"ha":1140,"x_min":183,"x_max":1015,"o":"m 183 0 l 183 972 l 658 972 q 814 932 743 972 q 926 822 885 892 q 968 667 968 753 q 924 515 968 585 q 808 404 881 446 q 647 363 735 363 l 333 363 l 333 0 l 183 0 m 831 0 l 550 439 l 707 474 l 1015 -1 l 831 0 m 333 507 l 650 507 q 733 528 696 507 q 791 587 769 550 q 813 668 813 624 q 788 750 813 714 q 722 807 764 786 q 626 828 679 828 l 333 828 l 333 507 m 425 1043 l 386 1115 l 640 1272 l 706 1147 l 425 1043 z "},"Ř":{"ha":1140,"x_min":183,"x_max":1015,"o":"m 183 0 l 183 972 l 658 972 q 814 932 743 972 q 926 822 885 892 q 968 667 968 753 q 924 515 968 585 q 808 404 881 446 q 647 363 735 363 l 333 363 l 333 0 l 183 0 m 831 0 l 550 439 l 707 474 l 1015 -1 l 831 0 m 333 507 l 650 507 q 733 528 696 507 q 791 587 769 550 q 813 668 813 624 q 788 750 813 714 q 722 807 764 786 q 626 828 679 828 l 333 828 l 333 507 m 465 1046 l 299 1189 l 351 1235 l 546 1147 l 504 1147 l 699 1235 l 751 1189 l 585 1046 l 465 1046 z "},"Ŗ":{"ha":1140,"x_min":183,"x_max":1015,"o":"m 183 0 l 183 972 l 658 972 q 814 932 743 972 q 926 822 885 892 q 968 667 968 753 q 924 515 968 585 q 808 404 881 446 q 647 363 735 363 l 333 363 l 333 0 l 183 0 m 831 0 l 550 439 l 707 474 l 1015 -1 l 831 0 m 333 507 l 650 507 q 733 528 696 507 q 791 587 769 550 q 813 668 813 624 q 788 750 813 714 q 722 807 764 786 q 626 828 679 828 l 333 828 l 333 507 m 497 -337 l 464 -279 q 501 -262 483 -274 q 528 -236 518 -251 q 539 -207 539 -221 q 533 -192 539 -197 q 513 -183 526 -187 q 481 -165 492 -176 q 471 -131 471 -154 q 497 -81 471 -99 q 561 -62 522 -62 q 637 -90 604 -62 q 669 -169 669 -118 q 654 -226 669 -200 q 614 -274 639 -253 q 558 -311 589 -294 q 497 -337 528 -328 z "},"Ȑ":{"ha":1140,"x_min":165,"x_max":1015,"o":"m 183 0 l 183 972 l 658 972 q 814 932 743 972 q 926 822 885 892 q 968 667 968 753 q 924 515 968 585 q 808 404 881 446 q 647 363 735 363 l 333 363 l 333 0 l 183 0 m 831 0 l 550 439 l 707 474 l 1015 -1 l 831 0 m 333 507 l 650 507 q 733 528 696 507 q 791 587 769 550 q 813 668 813 624 q 788 750 813 714 q 722 807 764 786 q 626 828 679 828 l 333 828 l 333 507 m 671 1036 l 442 1188 l 542 1293 l 724 1103 l 671 1036 m 394 1036 l 165 1188 l 265 1293 l 447 1103 l 394 1036 z "},"Ṛ":{"ha":1140,"x_min":183,"x_max":1015,"o":"m 183 0 l 183 972 l 658 972 q 814 932 743 972 q 926 822 885 892 q 968 667 968 753 q 924 515 968 585 q 808 404 881 446 q 647 363 735 363 l 333 363 l 333 0 l 183 0 m 831 0 l 550 439 l 707 474 l 1015 -1 l 831 0 m 333 507 l 650 507 q 733 528 696 507 q 791 587 769 550 q 813 668 813 624 q 788 750 813 714 q 722 807 764 786 q 626 828 679 828 l 333 828 l 333 507 m 567 -286 q 495 -262 519 -286 q 471 -196 471 -237 q 496 -132 471 -158 q 567 -106 521 -106 q 638 -130 614 -106 q 663 -196 663 -154 q 638 -260 663 -233 q 567 -286 613 -286 z "},"Ȓ":{"ha":1140,"x_min":183,"x_max":1015,"o":"m 183 0 l 183 972 l 658 972 q 814 932 743 972 q 926 822 885 892 q 968 667 968 753 q 924 515 968 585 q 808 404 881 446 q 647 363 735 363 l 333 363 l 333 0 l 183 0 m 831 0 l 550 439 l 707 474 l 1015 -1 l 831 0 m 333 507 l 650 507 q 733 528 696 507 q 791 587 769 550 q 813 668 813 624 q 788 750 813 714 q 722 807 764 786 q 626 828 679 828 l 333 828 l 333 507 m 403 1038 l 300 1054 q 344 1147 313 1104 q 422 1215 375 1189 q 525 1240 468 1240 q 629 1215 583 1240 q 707 1147 675 1189 q 750 1054 739 1104 l 647 1038 q 600 1100 632 1072 q 525 1128 568 1128 q 450 1100 482 1128 q 403 1038 418 1072 z "},"Ṟ":{"ha":1140,"x_min":183,"x_max":1015,"o":"m 183 0 l 183 972 l 658 972 q 814 932 743 972 q 926 822 885 892 q 968 667 968 753 q 924 515 968 585 q 808 404 881 446 q 647 363 735 363 l 333 363 l 333 0 l 183 0 m 831 0 l 550 439 l 707 474 l 1015 -1 l 831 0 m 333 507 l 650 507 q 733 528 696 507 q 791 587 769 550 q 813 668 813 624 q 788 750 813 714 q 722 807 764 786 q 626 828 679 828 l 333 828 l 333 507 m 371 -247 l 371 -144 l 761 -144 l 761 -247 l 371 -247 z "},"S":{"ha":1039,"x_min":113,"x_max":922,"o":"m 528 -14 q 362 7 438 -14 q 224 70 286 28 q 113 175 163 113 l 213 296 q 364 160 289 200 q 538 121 439 121 q 650 138 597 121 q 735 186 703 154 q 767 263 767 218 q 752 314 767 292 q 712 352 738 336 q 652 381 686 368 q 581 402 618 393 q 503 417 543 411 q 357 454 421 431 q 249 514 293 478 q 183 598 206 550 q 161 708 161 646 q 190 821 161 769 q 269 909 218 872 q 388 966 319 946 q 535 986 456 986 q 689 967 619 986 q 813 909 758 947 q 903 815 867 871 l 800 708 q 726 788 768 756 q 635 835 685 819 q 531 851 586 851 q 420 835 468 851 q 344 788 372 818 q 317 717 317 758 q 332 660 317 685 q 376 616 347 635 q 451 584 406 597 q 556 561 497 571 q 702 526 635 547 q 819 473 769 504 q 895 397 868 442 q 922 293 922 353 q 874 131 922 200 q 737 24 825 61 q 528 -14 649 -14 z "},"Ś":{"ha":1039,"x_min":113,"x_max":922,"o":"m 528 -14 q 362 7 438 -14 q 224 70 286 28 q 113 175 163 113 l 213 296 q 364 160 289 200 q 538 121 439 121 q 650 138 597 121 q 735 186 703 154 q 767 263 767 218 q 752 314 767 292 q 712 352 738 336 q 652 381 686 368 q 581 402 618 393 q 503 417 543 411 q 357 454 421 431 q 249 514 293 478 q 183 598 206 550 q 161 708 161 646 q 190 821 161 769 q 269 909 218 872 q 388 966 319 946 q 535 986 456 986 q 689 967 619 986 q 813 909 758 947 q 903 815 867 871 l 800 708 q 726 788 768 756 q 635 835 685 819 q 531 851 586 851 q 420 835 468 851 q 344 788 372 818 q 317 717 317 758 q 332 660 317 685 q 376 616 347 635 q 451 584 406 597 q 556 561 497 571 q 702 526 635 547 q 819 473 769 504 q 895 397 868 442 q 922 293 922 353 q 874 131 922 200 q 737 24 825 61 q 528 -14 649 -14 m 443 1049 l 404 1121 l 658 1278 l 724 1153 l 443 1049 z "},"Ṥ":{"ha":1039,"x_min":113,"x_max":922,"o":"m 528 -14 q 362 7 438 -14 q 224 70 286 28 q 113 175 163 113 l 213 296 q 364 160 289 200 q 538 121 439 121 q 650 138 597 121 q 735 186 703 154 q 767 263 767 218 q 752 314 767 292 q 712 352 738 336 q 652 381 686 368 q 581 402 618 393 q 503 417 543 411 q 357 454 421 431 q 249 514 293 478 q 183 598 206 550 q 161 708 161 646 q 190 821 161 769 q 269 909 218 872 q 388 966 319 946 q 535 986 456 986 q 689 967 619 986 q 813 909 758 947 q 903 815 867 871 l 800 708 q 726 788 768 756 q 635 835 685 819 q 531 851 586 851 q 420 835 468 851 q 344 788 372 818 q 317 717 317 758 q 332 660 317 685 q 376 616 347 635 q 451 584 406 597 q 556 561 497 571 q 702 526 635 547 q 819 473 769 504 q 895 397 868 442 q 922 293 922 353 q 874 131 922 200 q 737 24 825 61 q 528 -14 649 -14 m 639 1043 l 567 1093 l 694 1289 l 801 1210 l 639 1043 m 425 1054 q 354 1078 379 1054 q 329 1144 329 1101 q 355 1210 329 1185 q 425 1235 381 1235 q 496 1211 471 1235 q 521 1144 521 1188 q 495 1079 521 1104 q 425 1054 469 1054 z "},"Š":{"ha":1039,"x_min":113,"x_max":922,"o":"m 528 -14 q 362 7 438 -14 q 224 70 286 28 q 113 175 163 113 l 213 296 q 364 160 289 200 q 538 121 439 121 q 650 138 597 121 q 735 186 703 154 q 767 263 767 218 q 752 314 767 292 q 712 352 738 336 q 652 381 686 368 q 581 402 618 393 q 503 417 543 411 q 357 454 421 431 q 249 514 293 478 q 183 598 206 550 q 161 708 161 646 q 190 821 161 769 q 269 909 218 872 q 388 966 319 946 q 535 986 456 986 q 689 967 619 986 q 813 909 758 947 q 903 815 867 871 l 800 708 q 726 788 768 756 q 635 835 685 819 q 531 851 586 851 q 420 835 468 851 q 344 788 372 818 q 317 717 317 758 q 332 660 317 685 q 376 616 347 635 q 451 584 406 597 q 556 561 497 571 q 702 526 635 547 q 819 473 769 504 q 895 397 868 442 q 922 293 922 353 q 874 131 922 200 q 737 24 825 61 q 528 -14 649 -14 m 483 1051 l 317 1194 l 369 1240 l 564 1153 l 522 1153 l 717 1240 l 769 1194 l 603 1051 l 483 1051 z "},"Ṧ":{"ha":1039,"x_min":113,"x_max":922,"o":"m 528 -14 q 362 7 438 -14 q 224 70 286 28 q 113 175 163 113 l 213 296 q 364 160 289 200 q 538 121 439 121 q 650 138 597 121 q 735 186 703 154 q 767 263 767 218 q 752 314 767 292 q 712 352 738 336 q 652 381 686 368 q 581 402 618 393 q 503 417 543 411 q 357 454 421 431 q 249 514 293 478 q 183 598 206 550 q 161 708 161 646 q 190 821 161 769 q 269 909 218 872 q 388 966 319 946 q 535 986 456 986 q 689 967 619 986 q 813 909 758 947 q 903 815 867 871 l 800 708 q 726 788 768 756 q 635 835 685 819 q 531 851 586 851 q 420 835 468 851 q 344 788 372 818 q 317 717 317 758 q 332 660 317 685 q 376 616 347 635 q 451 584 406 597 q 556 561 497 571 q 702 526 635 547 q 819 473 769 504 q 895 397 868 442 q 922 293 922 353 q 874 131 922 200 q 737 24 825 61 q 528 -14 649 -14 m 483 1051 l 317 1194 l 369 1240 l 564 1153 l 522 1153 l 717 1240 l 769 1194 l 603 1051 l 483 1051 m 543 1263 q 471 1288 494 1263 q 447 1353 447 1313 q 471 1415 447 1388 q 543 1443 494 1443 q 615 1418 592 1443 q 639 1353 639 1393 q 615 1290 639 1318 q 543 1263 592 1263 z "},"Ş":{"ha":1039,"x_min":113,"x_max":922,"o":"m 528 -14 q 362 7 438 -14 q 224 70 286 28 q 113 175 163 113 l 213 296 q 364 160 289 200 q 538 121 439 121 q 650 138 597 121 q 735 186 703 154 q 767 263 767 218 q 752 314 767 292 q 712 352 738 336 q 652 381 686 368 q 581 402 618 393 q 503 417 543 411 q 357 454 421 431 q 249 514 293 478 q 183 598 206 550 q 161 708 161 646 q 190 821 161 769 q 269 909 218 872 q 388 966 319 946 q 535 986 456 986 q 689 967 619 986 q 813 909 758 947 q 903 815 867 871 l 800 708 q 726 788 768 756 q 635 835 685 819 q 531 851 586 851 q 420 835 468 851 q 344 788 372 818 q 317 717 317 758 q 332 660 317 685 q 376 616 347 635 q 451 584 406 597 q 556 561 497 571 q 702 526 635 547 q 819 473 769 504 q 895 397 868 442 q 922 293 922 353 q 874 131 922 200 q 737 24 825 61 q 528 -14 649 -14 m 432 -339 l 422 -268 q 497 -258 460 -268 q 558 -232 533 -249 q 583 -196 583 -215 q 560 -163 583 -175 q 506 -145 536 -151 q 453 -139 475 -139 l 438 -119 l 535 33 l 617 33 l 558 -64 q 658 -109 621 -78 q 696 -193 696 -140 q 672 -258 696 -229 q 610 -304 649 -286 q 524 -331 571 -322 q 432 -339 478 -340 z "},"Ŝ":{"ha":1039,"x_min":113,"x_max":922,"o":"m 528 -14 q 362 7 438 -14 q 224 70 286 28 q 113 175 163 113 l 213 296 q 364 160 289 200 q 538 121 439 121 q 650 138 597 121 q 735 186 703 154 q 767 263 767 218 q 752 314 767 292 q 712 352 738 336 q 652 381 686 368 q 581 402 618 393 q 503 417 543 411 q 357 454 421 431 q 249 514 293 478 q 183 598 206 550 q 161 708 161 646 q 190 821 161 769 q 269 909 218 872 q 388 966 319 946 q 535 986 456 986 q 689 967 619 986 q 813 909 758 947 q 903 815 867 871 l 800 708 q 726 788 768 756 q 635 835 685 819 q 531 851 586 851 q 420 835 468 851 q 344 788 372 818 q 317 717 317 758 q 332 660 317 685 q 376 616 347 635 q 451 584 406 597 q 556 561 497 571 q 702 526 635 547 q 819 473 769 504 q 895 397 868 442 q 922 293 922 353 q 874 131 922 200 q 737 24 825 61 q 528 -14 649 -14 m 371 1049 l 319 1097 l 492 1238 l 593 1238 l 765 1097 l 714 1049 l 522 1139 l 563 1139 l 371 1049 z "},"Ș":{"ha":1039,"x_min":113,"x_max":922,"o":"m 528 -14 q 362 7 438 -14 q 224 70 286 28 q 113 175 163 113 l 213 296 q 364 160 289 200 q 538 121 439 121 q 650 138 597 121 q 735 186 703 154 q 767 263 767 218 q 752 314 767 292 q 712 352 738 336 q 652 381 686 368 q 581 402 618 393 q 503 417 543 411 q 357 454 421 431 q 249 514 293 478 q 183 598 206 550 q 161 708 161 646 q 190 821 161 769 q 269 909 218 872 q 388 966 319 946 q 535 986 456 986 q 689 967 619 986 q 813 909 758 947 q 903 815 867 871 l 800 708 q 726 788 768 756 q 635 835 685 819 q 531 851 586 851 q 420 835 468 851 q 344 788 372 818 q 317 717 317 758 q 332 660 317 685 q 376 616 347 635 q 451 584 406 597 q 556 561 497 571 q 702 526 635 547 q 819 473 769 504 q 895 397 868 442 q 922 293 922 353 q 874 131 922 200 q 737 24 825 61 q 528 -14 649 -14 m 490 -337 l 457 -279 q 494 -262 476 -274 q 522 -236 511 -251 q 532 -207 532 -221 q 526 -192 532 -197 q 506 -183 519 -187 q 474 -165 485 -176 q 464 -131 464 -154 q 490 -81 464 -99 q 554 -62 515 -62 q 630 -90 597 -62 q 663 -169 663 -118 q 647 -226 663 -200 q 607 -274 632 -253 q 551 -311 582 -294 q 490 -337 521 -328 z "},"Ṡ":{"ha":1039,"x_min":113,"x_max":922,"o":"m 528 -14 q 362 7 438 -14 q 224 70 286 28 q 113 175 163 113 l 213 296 q 364 160 289 200 q 538 121 439 121 q 650 138 597 121 q 735 186 703 154 q 767 263 767 218 q 752 314 767 292 q 712 352 738 336 q 652 381 686 368 q 581 402 618 393 q 503 417 543 411 q 357 454 421 431 q 249 514 293 478 q 183 598 206 550 q 161 708 161 646 q 190 821 161 769 q 269 909 218 872 q 388 966 319 946 q 535 986 456 986 q 689 967 619 986 q 813 909 758 947 q 903 815 867 871 l 800 708 q 726 788 768 756 q 635 835 685 819 q 531 851 586 851 q 420 835 468 851 q 344 788 372 818 q 317 717 317 758 q 332 660 317 685 q 376 616 347 635 q 451 584 406 597 q 556 561 497 571 q 702 526 635 547 q 819 473 769 504 q 895 397 868 442 q 922 293 922 353 q 874 131 922 200 q 737 24 825 61 q 528 -14 649 -14 m 543 1054 q 471 1079 494 1054 q 447 1144 447 1104 q 471 1207 447 1179 q 543 1235 494 1235 q 615 1210 592 1235 q 639 1144 639 1185 q 615 1082 639 1110 q 543 1054 592 1054 z "},"Ṣ":{"ha":1039,"x_min":113,"x_max":922,"o":"m 528 -14 q 362 7 438 -14 q 224 70 286 28 q 113 175 163 113 l 213 296 q 364 160 289 200 q 538 121 439 121 q 650 138 597 121 q 735 186 703 154 q 767 263 767 218 q 752 314 767 292 q 712 352 738 336 q 652 381 686 368 q 581 402 618 393 q 503 417 543 411 q 357 454 421 431 q 249 514 293 478 q 183 598 206 550 q 161 708 161 646 q 190 821 161 769 q 269 909 218 872 q 388 966 319 946 q 535 986 456 986 q 689 967 619 986 q 813 909 758 947 q 903 815 867 871 l 800 708 q 726 788 768 756 q 635 835 685 819 q 531 851 586 851 q 420 835 468 851 q 344 788 372 818 q 317 717 317 758 q 332 660 317 685 q 376 616 347 635 q 451 584 406 597 q 556 561 497 571 q 702 526 635 547 q 819 473 769 504 q 895 397 868 442 q 922 293 922 353 q 874 131 922 200 q 737 24 825 61 q 528 -14 649 -14 m 560 -286 q 488 -262 513 -286 q 464 -196 464 -237 q 489 -132 464 -158 q 560 -106 514 -106 q 631 -130 607 -106 q 656 -196 656 -154 q 631 -260 656 -233 q 560 -286 606 -286 z "},"Ṩ":{"ha":1039,"x_min":113,"x_max":922,"o":"m 528 -14 q 362 7 438 -14 q 224 70 286 28 q 113 175 163 113 l 213 296 q 364 160 289 200 q 538 121 439 121 q 650 138 597 121 q 735 186 703 154 q 767 263 767 218 q 752 314 767 292 q 712 352 738 336 q 652 381 686 368 q 581 402 618 393 q 503 417 543 411 q 357 454 421 431 q 249 514 293 478 q 183 598 206 550 q 161 708 161 646 q 190 821 161 769 q 269 909 218 872 q 388 966 319 946 q 535 986 456 986 q 689 967 619 986 q 813 909 758 947 q 903 815 867 871 l 800 708 q 726 788 768 756 q 635 835 685 819 q 531 851 586 851 q 420 835 468 851 q 344 788 372 818 q 317 717 317 758 q 332 660 317 685 q 376 616 347 635 q 451 584 406 597 q 556 561 497 571 q 702 526 635 547 q 819 473 769 504 q 895 397 868 442 q 922 293 922 353 q 874 131 922 200 q 737 24 825 61 q 528 -14 649 -14 m 560 -286 q 488 -262 513 -286 q 464 -196 464 -237 q 489 -132 464 -158 q 560 -106 514 -106 q 631 -130 607 -106 q 656 -196 656 -154 q 631 -260 656 -233 q 560 -286 606 -286 m 543 1054 q 471 1079 494 1054 q 447 1144 447 1104 q 471 1207 447 1179 q 543 1235 494 1235 q 615 1210 592 1235 q 639 1144 639 1185 q 615 1082 639 1110 q 543 1054 592 1054 z "},"ẞ":{"ha":1240,"x_min":183,"x_max":1124,"o":"m 808 -14 q 691 1 747 -14 q 587 43 635 15 q 501 108 539 71 l 594 219 q 692 150 636 179 q 808 121 747 121 q 931 151 883 121 q 978 239 978 182 q 956 298 978 274 q 890 345 935 322 q 776 400 846 368 q 662 465 708 431 q 591 542 615 499 q 567 644 567 586 q 591 749 567 703 q 660 828 615 796 q 763 879 704 861 q 888 899 821 897 l 929 844 q 821 869 889 858 q 683 881 753 881 q 547 853 610 882 q 438 769 485 825 q 363 628 390 713 q 336 432 336 544 l 333 1 l 183 1 l 185 435 q 246 744 186 617 q 415 940 306 872 q 675 1008 525 1008 q 851 994 768 1008 q 1017 950 933 979 l 1026 846 q 862 811 932 833 q 753 756 792 789 q 714 675 714 722 q 734 619 714 644 q 791 572 754 593 q 882 528 828 550 q 1011 465 957 497 q 1094 383 1065 432 q 1124 256 1124 335 q 1082 121 1124 182 q 969 23 1040 60 q 808 -14 899 -14 z "},"Ə":{"ha":1188,"x_min":111,"x_max":1076,"o":"m 594 -14 q 416 19 501 -14 q 264 112 331 51 q 156 254 197 172 q 111 435 115 336 l 111 546 l 997 546 l 1010 411 l 260 411 q 301 297 271 350 q 376 204 332 244 q 477 142 421 164 q 594 121 533 121 q 726 147 665 121 q 833 222 788 174 q 904 338 879 269 q 929 488 929 406 q 903 642 929 574 q 833 756 878 710 q 726 827 788 803 q 590 851 664 851 q 481 840 532 851 q 386 803 431 828 q 300 740 342 779 l 206 832 q 317 920 258 886 q 442 970 375 954 q 590 986 510 986 q 778 947 690 986 q 933 840 865 908 q 1038 681 1000 771 q 1076 486 1076 590 q 1039 292 1076 382 q 935 133 1001 201 q 781 25 868 64 q 594 -14 694 -14 z "},"T":{"ha":950,"x_min":85,"x_max":865,"o":"m 396 0 l 396 828 l 85 828 l 85 972 l 865 972 l 865 828 l 546 828 l 546 0 l 396 0 z "},"Ŧ":{"ha":950,"x_min":85,"x_max":865,"o":"m 250 426 l 250 550 l 700 550 l 700 426 l 250 426 m 396 0 l 396 828 l 85 828 l 85 972 l 865 972 l 865 828 l 546 828 l 546 0 l 396 0 z "},"Ť":{"ha":950,"x_min":85,"x_max":865,"o":"m 396 0 l 396 828 l 85 828 l 85 972 l 865 972 l 865 828 l 546 828 l 546 0 l 396 0 m 415 1051 l 249 1194 l 301 1240 l 496 1153 l 454 1153 l 649 1240 l 701 1194 l 535 1051 l 415 1051 z "},"Ţ":{"ha":950,"x_min":85,"x_max":865,"o":"m 396 0 l 396 828 l 85 828 l 85 972 l 865 972 l 865 828 l 546 828 l 546 0 l 396 0 m 347 -339 l 338 -268 q 412 -258 375 -268 q 474 -232 449 -249 q 499 -196 499 -215 q 475 -163 499 -175 q 421 -145 451 -151 q 368 -139 390 -139 l 353 -119 l 450 33 l 532 33 l 474 -64 q 574 -109 536 -78 q 611 -193 611 -140 q 588 -258 611 -229 q 525 -304 564 -286 q 440 -331 486 -322 q 347 -339 393 -340 z "},"Ț":{"ha":950,"x_min":85,"x_max":865,"o":"m 396 0 l 396 828 l 85 828 l 85 972 l 865 972 l 865 828 l 546 828 l 546 0 l 396 0 m 406 -337 l 372 -279 q 409 -262 392 -274 q 437 -236 426 -251 q 447 -207 447 -221 q 441 -192 447 -197 q 421 -183 435 -187 q 390 -165 400 -176 q 379 -131 379 -154 q 405 -81 379 -99 q 469 -62 431 -62 q 545 -90 513 -62 q 578 -169 578 -118 q 563 -226 578 -200 q 522 -274 547 -253 q 467 -311 497 -294 q 406 -337 436 -328 z "},"Ṭ":{"ha":950,"x_min":85,"x_max":865,"o":"m 396 0 l 396 828 l 85 828 l 85 972 l 865 972 l 865 828 l 546 828 l 546 0 l 396 0 m 475 -286 q 403 -262 428 -286 q 379 -196 379 -237 q 404 -132 379 -158 q 475 -106 429 -106 q 547 -130 522 -106 q 571 -196 571 -154 q 546 -260 571 -233 q 475 -286 521 -286 z "},"Ṯ":{"ha":950,"x_min":85,"x_max":865,"o":"m 396 0 l 396 828 l 85 828 l 85 972 l 865 972 l 865 828 l 546 828 l 546 0 l 396 0 m 279 -247 l 279 -144 l 669 -144 l 669 -247 l 279 -247 z "},"U":{"ha":1197,"x_min":168,"x_max":1029,"o":"m 599 -8 q 375 46 472 -8 q 223 195 278 100 q 168 410 168 290 l 168 974 l 318 974 l 318 419 q 356 275 318 339 q 458 174 394 211 q 599 136 521 136 q 745 174 681 136 q 848 275 810 211 q 886 419 886 339 l 886 974 l 1029 974 l 1029 410 q 974 195 1029 290 q 822 46 919 100 q 599 -8 725 -8 z "},"Ú":{"ha":1197,"x_min":168,"x_max":1029,"o":"m 599 -8 q 375 46 472 -8 q 223 195 278 100 q 168 410 168 290 l 168 974 l 318 974 l 318 419 q 356 275 318 339 q 458 174 394 211 q 599 136 521 136 q 745 174 681 136 q 848 275 810 211 q 886 419 886 339 l 886 974 l 1029 974 l 1029 410 q 974 195 1029 290 q 822 46 919 100 q 599 -8 725 -8 m 499 1049 l 460 1121 l 714 1278 l 779 1153 l 499 1049 z "},"Ŭ":{"ha":1197,"x_min":168,"x_max":1029,"o":"m 599 -8 q 375 46 472 -8 q 223 195 278 100 q 168 410 168 290 l 168 974 l 318 974 l 318 419 q 356 275 318 339 q 458 174 394 211 q 599 136 521 136 q 745 174 681 136 q 848 275 810 211 q 886 419 886 339 l 886 974 l 1029 974 l 1029 410 q 974 195 1029 290 q 822 46 919 100 q 599 -8 725 -8 m 599 1043 q 495 1069 542 1043 q 417 1137 449 1094 q 374 1229 386 1179 l 476 1246 q 524 1183 492 1211 q 599 1156 556 1156 q 674 1183 642 1156 q 721 1246 706 1211 l 824 1229 q 781 1137 813 1179 q 703 1069 749 1094 q 599 1043 657 1043 z "},"Ǔ":{"ha":1197,"x_min":168,"x_max":1029,"o":"m 599 -8 q 375 46 472 -8 q 223 195 278 100 q 168 410 168 290 l 168 974 l 318 974 l 318 419 q 356 275 318 339 q 458 174 394 211 q 599 136 521 136 q 745 174 681 136 q 848 275 810 211 q 886 419 886 339 l 886 974 l 1029 974 l 1029 410 q 974 195 1029 290 q 822 46 919 100 q 599 -8 725 -8 m 539 1051 l 372 1194 l 425 1240 l 619 1153 l 578 1153 l 772 1240 l 825 1194 l 658 1051 l 539 1051 z "},"Û":{"ha":1197,"x_min":168,"x_max":1029,"o":"m 599 -8 q 375 46 472 -8 q 223 195 278 100 q 168 410 168 290 l 168 974 l 318 974 l 318 419 q 356 275 318 339 q 458 174 394 211 q 599 136 521 136 q 745 174 681 136 q 848 275 810 211 q 886 419 886 339 l 886 974 l 1029 974 l 1029 410 q 974 195 1029 290 q 822 46 919 100 q 599 -8 725 -8 m 426 1049 l 375 1097 l 547 1238 l 649 1238 l 821 1097 l 769 1049 l 578 1139 l 618 1139 l 426 1049 z "},"Ȕ":{"ha":1197,"x_min":168,"x_max":1029,"o":"m 599 -8 q 375 46 472 -8 q 223 195 278 100 q 168 410 168 290 l 168 974 l 318 974 l 318 419 q 356 275 318 339 q 458 174 394 211 q 599 136 521 136 q 745 174 681 136 q 848 275 810 211 q 886 419 886 339 l 886 974 l 1029 974 l 1029 410 q 974 195 1029 290 q 822 46 919 100 q 599 -8 725 -8 m 746 1042 l 517 1193 l 617 1299 l 799 1108 l 746 1042 m 469 1042 l 240 1193 l 340 1299 l 522 1108 l 469 1042 z "},"Ü":{"ha":1197,"x_min":168,"x_max":1029,"o":"m 599 -8 q 375 46 472 -8 q 223 195 278 100 q 168 410 168 290 l 168 974 l 318 974 l 318 419 q 356 275 318 339 q 458 174 394 211 q 599 136 521 136 q 745 174 681 136 q 848 275 810 211 q 886 419 886 339 l 886 974 l 1029 974 l 1029 410 q 974 195 1029 290 q 822 46 919 100 q 599 -8 725 -8 m 742 1054 q 669 1079 693 1054 q 646 1144 646 1104 q 669 1207 646 1179 q 742 1235 693 1235 q 814 1210 790 1235 q 838 1144 838 1185 q 814 1082 838 1110 q 742 1054 790 1054 m 456 1054 q 383 1079 407 1054 q 360 1144 360 1104 q 383 1207 360 1179 q 456 1235 407 1235 q 528 1210 504 1235 q 551 1144 551 1185 q 528 1082 551 1110 q 456 1054 504 1054 z "},"Ụ":{"ha":1197,"x_min":168,"x_max":1029,"o":"m 599 -8 q 375 46 472 -8 q 223 195 278 100 q 168 410 168 290 l 168 974 l 318 974 l 318 419 q 356 275 318 339 q 458 174 394 211 q 599 136 521 136 q 745 174 681 136 q 848 275 810 211 q 886 419 886 339 l 886 974 l 1029 974 l 1029 410 q 974 195 1029 290 q 822 46 919 100 q 599 -8 725 -8 m 599 -286 q 527 -262 551 -286 q 503 -196 503 -237 q 528 -132 503 -158 q 599 -106 553 -106 q 670 -130 646 -106 q 694 -196 694 -154 q 669 -260 694 -233 q 599 -286 644 -286 z "},"Ù":{"ha":1197,"x_min":168,"x_max":1029,"o":"m 599 -8 q 375 46 472 -8 q 223 195 278 100 q 168 410 168 290 l 168 974 l 318 974 l 318 419 q 356 275 318 339 q 458 174 394 211 q 599 136 521 136 q 745 174 681 136 q 848 275 810 211 q 886 419 886 339 l 886 974 l 1029 974 l 1029 410 q 974 195 1029 290 q 822 46 919 100 q 599 -8 725 -8 m 710 1049 l 429 1153 l 497 1278 l 751 1121 l 710 1049 z "},"Ủ":{"ha":1197,"x_min":168,"x_max":1029,"o":"m 599 -8 q 375 46 472 -8 q 223 195 278 100 q 168 410 168 290 l 168 974 l 318 974 l 318 419 q 356 275 318 339 q 458 174 394 211 q 599 136 521 136 q 745 174 681 136 q 848 275 810 211 q 886 419 886 339 l 886 974 l 1029 974 l 1029 410 q 974 195 1029 290 q 822 46 919 100 q 599 -8 725 -8 m 567 1053 q 551 1080 557 1067 q 546 1106 546 1093 q 553 1133 546 1118 q 583 1164 561 1149 q 616 1188 607 1179 q 625 1206 625 1196 q 613 1224 625 1218 q 583 1229 601 1229 q 535 1222 561 1229 q 485 1204 508 1215 l 463 1292 q 525 1317 492 1308 q 586 1325 558 1325 q 697 1294 660 1325 q 733 1218 733 1263 q 717 1163 733 1183 q 682 1133 701 1143 q 645 1112 657 1121 q 633 1089 633 1103 q 635 1079 633 1083 q 638 1071 636 1075 l 567 1053 z "},"Ư":{"ha":1197,"x_min":168,"x_max":1185,"o":"m 599 -8 q 375 46 472 -8 q 223 195 278 100 q 168 410 168 290 l 168 974 l 318 974 l 318 419 q 356 275 318 339 q 458 174 394 211 q 599 136 521 136 q 745 174 681 136 q 848 275 810 211 q 886 419 886 339 l 886 974 l 929 974 q 1029 1015 1001 974 q 1057 1131 1057 1057 l 1185 1131 q 1163 1004 1185 1060 q 1097 915 1140 949 q 988 875 1053 882 l 1029 940 l 1029 410 q 974 195 1029 290 q 822 46 919 100 q 599 -8 725 -8 z "},"Ứ":{"ha":1197,"x_min":168,"x_max":1185,"o":"m 599 -8 q 375 46 472 -8 q 223 195 278 100 q 168 410 168 290 l 168 974 l 318 974 l 318 419 q 356 275 318 339 q 458 174 394 211 q 599 136 521 136 q 745 174 681 136 q 848 275 810 211 q 886 419 886 339 l 886 974 l 929 974 q 1029 1015 1001 974 q 1057 1131 1057 1057 l 1185 1131 q 1163 1004 1185 1060 q 1097 915 1140 949 q 988 875 1053 882 l 1029 940 l 1029 410 q 974 195 1029 290 q 822 46 919 100 q 599 -8 725 -8 m 499 1049 l 460 1121 l 714 1278 l 779 1153 l 499 1049 z "},"Ự":{"ha":1197,"x_min":168,"x_max":1185,"o":"m 599 -8 q 375 46 472 -8 q 223 195 278 100 q 168 410 168 290 l 168 974 l 318 974 l 318 419 q 356 275 318 339 q 458 174 394 211 q 599 136 521 136 q 745 174 681 136 q 848 275 810 211 q 886 419 886 339 l 886 974 l 929 974 q 1029 1015 1001 974 q 1057 1131 1057 1057 l 1185 1131 q 1163 1004 1185 1060 q 1097 915 1140 949 q 988 875 1053 882 l 1029 940 l 1029 410 q 974 195 1029 290 q 822 46 919 100 q 599 -8 725 -8 m 599 -286 q 527 -262 551 -286 q 503 -196 503 -237 q 528 -132 503 -158 q 599 -106 553 -106 q 670 -130 646 -106 q 694 -196 694 -154 q 669 -260 694 -233 q 599 -286 644 -286 z "},"Ừ":{"ha":1197,"x_min":168,"x_max":1185,"o":"m 599 -8 q 375 46 472 -8 q 223 195 278 100 q 168 410 168 290 l 168 974 l 318 974 l 318 419 q 356 275 318 339 q 458 174 394 211 q 599 136 521 136 q 745 174 681 136 q 848 275 810 211 q 886 419 886 339 l 886 974 l 929 974 q 1029 1015 1001 974 q 1057 1131 1057 1057 l 1185 1131 q 1163 1004 1185 1060 q 1097 915 1140 949 q 988 875 1053 882 l 1029 940 l 1029 410 q 974 195 1029 290 q 822 46 919 100 q 599 -8 725 -8 m 710 1049 l 429 1153 l 497 1278 l 751 1121 l 710 1049 z "},"Ử":{"ha":1197,"x_min":168,"x_max":1185,"o":"m 599 -8 q 375 46 472 -8 q 223 195 278 100 q 168 410 168 290 l 168 974 l 318 974 l 318 419 q 356 275 318 339 q 458 174 394 211 q 599 136 521 136 q 745 174 681 136 q 848 275 810 211 q 886 419 886 339 l 886 974 l 929 974 q 1029 1015 1001 974 q 1057 1131 1057 1057 l 1185 1131 q 1163 1004 1185 1060 q 1097 915 1140 949 q 988 875 1053 882 l 1029 940 l 1029 410 q 974 195 1029 290 q 822 46 919 100 q 599 -8 725 -8 m 567 1053 q 551 1080 557 1067 q 546 1106 546 1093 q 553 1133 546 1118 q 583 1164 561 1149 q 616 1188 607 1179 q 625 1206 625 1196 q 613 1224 625 1218 q 583 1229 601 1229 q 535 1222 561 1229 q 485 1204 508 1215 l 463 1292 q 525 1317 492 1308 q 586 1325 558 1325 q 697 1294 660 1325 q 733 1218 733 1263 q 717 1163 733 1183 q 682 1133 701 1143 q 645 1112 657 1121 q 633 1089 633 1103 q 635 1079 633 1083 q 638 1071 636 1075 l 567 1053 z "},"Ữ":{"ha":1197,"x_min":168,"x_max":1185,"o":"m 599 -8 q 375 46 472 -8 q 223 195 278 100 q 168 410 168 290 l 168 974 l 318 974 l 318 419 q 356 275 318 339 q 458 174 394 211 q 599 136 521 136 q 745 174 681 136 q 848 275 810 211 q 886 419 886 339 l 886 974 l 929 974 q 1029 1015 1001 974 q 1057 1131 1057 1057 l 1185 1131 q 1163 1004 1185 1060 q 1097 915 1140 949 q 988 875 1053 882 l 1029 940 l 1029 410 q 974 195 1029 290 q 822 46 919 100 q 599 -8 725 -8 m 701 1067 q 637 1077 669 1067 q 575 1099 604 1088 q 535 1114 551 1108 q 504 1119 518 1119 q 474 1106 486 1119 q 463 1067 463 1093 l 356 1067 q 404 1183 356 1142 q 514 1224 453 1224 q 571 1214 543 1224 q 625 1193 599 1204 q 663 1179 644 1185 q 694 1174 682 1174 q 725 1188 714 1174 q 735 1224 736 1201 l 840 1224 q 824 1147 840 1183 q 776 1089 807 1111 q 701 1067 744 1067 z "},"Ű":{"ha":1197,"x_min":168,"x_max":1029,"o":"m 599 -8 q 375 46 472 -8 q 223 195 278 100 q 168 410 168 290 l 168 974 l 318 974 l 318 419 q 356 275 318 339 q 458 174 394 211 q 599 136 521 136 q 745 174 681 136 q 848 275 810 211 q 886 419 886 339 l 886 974 l 1029 974 l 1029 410 q 974 195 1029 290 q 822 46 919 100 q 599 -8 725 -8 m 446 1042 l 393 1108 l 575 1299 l 675 1193 l 446 1042 m 722 1042 l 669 1108 l 851 1299 l 951 1193 l 722 1042 z "},"Ȗ":{"ha":1197,"x_min":168,"x_max":1029,"o":"m 599 -8 q 375 46 472 -8 q 223 195 278 100 q 168 410 168 290 l 168 974 l 318 974 l 318 419 q 356 275 318 339 q 458 174 394 211 q 599 136 521 136 q 745 174 681 136 q 848 275 810 211 q 886 419 886 339 l 886 974 l 1029 974 l 1029 410 q 974 195 1029 290 q 822 46 919 100 q 599 -8 725 -8 m 476 1043 l 374 1060 q 417 1152 386 1110 q 495 1220 449 1194 q 599 1246 542 1246 q 703 1220 657 1246 q 781 1152 749 1194 q 824 1060 813 1110 l 721 1043 q 674 1106 706 1078 q 599 1133 642 1133 q 524 1106 556 1133 q 476 1043 492 1078 z "},"Ū":{"ha":1197,"x_min":168,"x_max":1029,"o":"m 599 -8 q 375 46 472 -8 q 223 195 278 100 q 168 410 168 290 l 168 974 l 318 974 l 318 419 q 356 275 318 339 q 458 174 394 211 q 599 136 521 136 q 745 174 681 136 q 848 275 810 211 q 886 419 886 339 l 886 974 l 1029 974 l 1029 410 q 974 195 1029 290 q 822 46 919 100 q 599 -8 725 -8 m 368 1093 l 368 1197 l 828 1197 l 828 1093 l 368 1093 z "},"Ṻ":{"ha":1197,"x_min":168,"x_max":1029,"o":"m 599 -8 q 375 46 472 -8 q 223 195 278 100 q 168 410 168 290 l 168 974 l 318 974 l 318 419 q 356 275 318 339 q 458 174 394 211 q 599 136 521 136 q 745 174 681 136 q 848 275 810 211 q 886 419 886 339 l 886 974 l 1029 974 l 1029 410 q 974 195 1029 290 q 822 46 919 100 q 599 -8 725 -8 m 368 1093 l 368 1197 l 828 1197 l 828 1093 l 368 1093 m 742 1263 q 669 1288 693 1263 q 646 1353 646 1313 q 669 1415 646 1388 q 742 1443 693 1443 q 814 1418 790 1443 q 838 1353 838 1393 q 814 1290 838 1318 q 742 1263 790 1263 m 456 1263 q 383 1288 407 1263 q 360 1353 360 1313 q 383 1415 360 1388 q 456 1443 407 1443 q 528 1418 504 1443 q 551 1353 551 1393 q 528 1290 551 1318 q 456 1263 504 1263 z "},"Ų":{"ha":1197,"x_min":168,"x_max":1029,"o":"m 703 -278 q 597 -240 642 -278 q 551 -136 551 -201 q 575 -52 551 -90 q 635 17 599 -14 q 713 74 671 49 q 790 121 754 100 l 833 54 q 776 18 804 38 q 726 -22 749 -1 q 691 -67 704 -43 q 678 -115 678 -90 q 690 -156 678 -142 q 725 -171 703 -171 q 754 -161 742 -171 q 776 -136 767 -151 l 854 -192 q 799 -251 842 -224 q 703 -278 756 -278 m 599 -8 q 375 46 472 -8 q 223 195 278 100 q 168 410 168 290 l 168 974 l 318 974 l 318 419 q 356 275 318 339 q 458 174 394 211 q 599 136 521 136 q 745 174 681 136 q 848 275 810 211 q 886 419 886 339 l 886 974 l 1029 974 l 1029 410 q 974 195 1029 290 q 822 46 919 100 q 599 -8 725 -8 z "},"Ů":{"ha":1197,"x_min":168,"x_max":1029,"o":"m 599 -8 q 375 46 472 -8 q 223 195 278 100 q 168 410 168 290 l 168 974 l 318 974 l 318 419 q 356 275 318 339 q 458 174 394 211 q 599 136 521 136 q 745 174 681 136 q 848 275 810 211 q 886 419 886 339 l 886 974 l 1029 974 l 1029 410 q 974 195 1029 290 q 822 46 919 100 q 599 -8 725 -8 m 597 988 q 524 1008 558 988 q 467 1061 489 1028 q 446 1133 446 1094 q 467 1208 446 1175 q 524 1261 489 1242 q 597 1281 558 1281 q 672 1261 638 1281 q 728 1208 707 1242 q 750 1133 750 1175 q 728 1061 750 1094 q 672 1008 707 1028 q 597 988 638 988 m 597 1069 q 647 1088 626 1069 q 667 1133 667 1107 q 646 1182 667 1165 q 597 1199 625 1199 q 549 1181 569 1199 q 529 1133 529 1163 q 549 1088 529 1107 q 597 1069 569 1069 z "},"Ũ":{"ha":1197,"x_min":168,"x_max":1029,"o":"m 599 -8 q 375 46 472 -8 q 223 195 278 100 q 168 410 168 290 l 168 974 l 318 974 l 318 419 q 356 275 318 339 q 458 174 394 211 q 599 136 521 136 q 745 174 681 136 q 848 275 810 211 q 886 419 886 339 l 886 974 l 1029 974 l 1029 410 q 974 195 1029 290 q 822 46 919 100 q 599 -8 725 -8 m 701 1067 q 637 1077 669 1067 q 575 1099 604 1088 q 535 1114 551 1108 q 504 1119 518 1119 q 474 1106 486 1119 q 463 1067 463 1093 l 356 1067 q 404 1183 356 1142 q 514 1224 453 1224 q 571 1214 543 1224 q 625 1193 599 1204 q 663 1179 644 1185 q 694 1174 682 1174 q 725 1188 714 1174 q 735 1224 736 1201 l 840 1224 q 824 1147 840 1183 q 776 1089 807 1111 q 701 1067 744 1067 z "},"Ṹ":{"ha":1197,"x_min":168,"x_max":1029,"o":"m 599 -8 q 375 46 472 -8 q 223 195 278 100 q 168 410 168 290 l 168 974 l 318 974 l 318 419 q 356 275 318 339 q 458 174 394 211 q 599 136 521 136 q 745 174 681 136 q 848 275 810 211 q 886 419 886 339 l 886 974 l 1029 974 l 1029 410 q 974 195 1029 290 q 822 46 919 100 q 599 -8 725 -8 m 701 1067 q 637 1077 669 1067 q 575 1099 604 1088 q 535 1114 551 1108 q 504 1119 518 1119 q 474 1106 486 1119 q 463 1067 463 1093 l 356 1067 q 404 1183 356 1142 q 514 1224 453 1224 q 571 1214 543 1224 q 625 1193 599 1204 q 663 1179 644 1185 q 694 1174 682 1174 q 725 1188 714 1174 q 735 1224 736 1201 l 840 1224 q 824 1147 840 1183 q 776 1089 807 1111 q 701 1067 744 1067 m 499 1257 l 460 1329 l 714 1486 l 779 1361 l 499 1257 z "},"V":{"ha":1125,"x_min":71,"x_max":1054,"o":"m 483 0 l 71 972 l 242 972 l 485 386 q 513 317 497 353 q 542 247 528 282 q 569 178 557 211 q 592 117 582 146 l 551 115 q 581 196 564 151 q 615 288 597 240 q 653 385 633 336 l 878 972 l 1054 972 l 643 0 l 483 0 z "},"W":{"ha":1539,"x_min":71,"x_max":1468,"o":"m 400 0 l 71 972 l 233 972 l 428 379 q 446 322 438 353 q 462 258 454 290 q 476 196 469 225 q 489 146 483 167 l 440 147 q 473 249 458 207 q 499 322 488 290 q 521 379 511 354 l 699 804 l 836 804 l 1008 381 q 1038 308 1024 346 q 1063 233 1051 269 q 1083 160 1075 196 l 1040 150 q 1052 205 1047 182 q 1062 248 1057 228 q 1072 288 1067 268 q 1086 331 1078 307 q 1104 385 1094 354 l 1307 972 l 1468 972 l 1122 0 l 1018 0 l 751 626 l 769 621 l 507 0 l 400 0 z "},"Ẃ":{"ha":1539,"x_min":71,"x_max":1468,"o":"m 400 0 l 71 972 l 233 972 l 428 379 q 446 322 438 353 q 462 258 454 290 q 476 196 469 225 q 489 146 483 167 l 440 147 q 473 249 458 207 q 499 322 488 290 q 521 379 511 354 l 699 804 l 836 804 l 1008 381 q 1038 308 1024 346 q 1063 233 1051 269 q 1083 160 1075 196 l 1040 150 q 1052 205 1047 182 q 1062 248 1057 228 q 1072 288 1067 268 q 1086 331 1078 307 q 1104 385 1094 354 l 1307 972 l 1468 972 l 1122 0 l 1018 0 l 751 626 l 769 621 l 507 0 l 400 0 m 669 1049 l 631 1121 l 885 1278 l 950 1153 l 669 1049 z "},"Ŵ":{"ha":1539,"x_min":71,"x_max":1468,"o":"m 400 0 l 71 972 l 233 972 l 428 379 q 446 322 438 353 q 462 258 454 290 q 476 196 469 225 q 489 146 483 167 l 440 147 q 473 249 458 207 q 499 322 488 290 q 521 379 511 354 l 699 804 l 836 804 l 1008 381 q 1038 308 1024 346 q 1063 233 1051 269 q 1083 160 1075 196 l 1040 150 q 1052 205 1047 182 q 1062 248 1057 228 q 1072 288 1067 268 q 1086 331 1078 307 q 1104 385 1094 354 l 1307 972 l 1468 972 l 1122 0 l 1018 0 l 751 626 l 769 621 l 507 0 l 400 0 m 597 1049 l 546 1097 l 718 1238 l 819 1238 l 992 1097 l 940 1049 l 749 1139 l 789 1139 l 597 1049 z "},"Ẅ":{"ha":1539,"x_min":71,"x_max":1468,"o":"m 400 0 l 71 972 l 233 972 l 428 379 q 446 322 438 353 q 462 258 454 290 q 476 196 469 225 q 489 146 483 167 l 440 147 q 473 249 458 207 q 499 322 488 290 q 521 379 511 354 l 699 804 l 836 804 l 1008 381 q 1038 308 1024 346 q 1063 233 1051 269 q 1083 160 1075 196 l 1040 150 q 1052 205 1047 182 q 1062 248 1057 228 q 1072 288 1067 268 q 1086 331 1078 307 q 1104 385 1094 354 l 1307 972 l 1468 972 l 1122 0 l 1018 0 l 751 626 l 769 621 l 507 0 l 400 0 m 913 1054 q 840 1079 864 1054 q 817 1144 817 1104 q 840 1207 817 1179 q 913 1235 864 1235 q 985 1210 961 1235 q 1008 1144 1008 1185 q 985 1082 1008 1110 q 913 1054 961 1054 m 626 1054 q 554 1079 578 1054 q 531 1144 531 1104 q 554 1207 531 1179 q 626 1235 578 1235 q 699 1210 675 1235 q 722 1144 722 1185 q 699 1082 722 1110 q 626 1054 675 1054 z "},"Ẁ":{"ha":1539,"x_min":71,"x_max":1468,"o":"m 400 0 l 71 972 l 233 972 l 428 379 q 446 322 438 353 q 462 258 454 290 q 476 196 469 225 q 489 146 483 167 l 440 147 q 473 249 458 207 q 499 322 488 290 q 521 379 511 354 l 699 804 l 836 804 l 1008 381 q 1038 308 1024 346 q 1063 233 1051 269 q 1083 160 1075 196 l 1040 150 q 1052 205 1047 182 q 1062 248 1057 228 q 1072 288 1067 268 q 1086 331 1078 307 q 1104 385 1094 354 l 1307 972 l 1468 972 l 1122 0 l 1018 0 l 751 626 l 769 621 l 507 0 l 400 0 m 881 1049 l 600 1153 l 668 1278 l 922 1121 l 881 1049 z "},"X":{"ha":1106,"x_min":71,"x_max":1035,"o":"m 838 0 l 503 438 l 78 972 l 274 972 l 599 546 l 1035 0 l 838 0 m 71 0 l 479 529 l 568 419 l 256 0 l 71 0 m 625 451 l 538 557 l 835 972 l 1019 972 l 625 451 z "},"Y":{"ha":1083,"x_min":53,"x_max":1031,"o":"m 481 0 l 481 465 l 497 381 l 53 972 l 244 972 l 576 518 l 543 521 l 853 972 l 1031 972 l 615 388 l 631 476 l 631 0 l 481 0 z "},"Ý":{"ha":1083,"x_min":53,"x_max":1031,"o":"m 481 0 l 481 465 l 497 381 l 53 972 l 244 972 l 576 518 l 543 521 l 853 972 l 1031 972 l 615 388 l 631 476 l 631 0 l 481 0 m 442 1049 l 403 1121 l 657 1278 l 722 1153 l 442 1049 z "},"Ŷ":{"ha":1083,"x_min":53,"x_max":1031,"o":"m 481 0 l 481 465 l 497 381 l 53 972 l 244 972 l 576 518 l 543 521 l 853 972 l 1031 972 l 615 388 l 631 476 l 631 0 l 481 0 m 369 1049 l 318 1097 l 490 1238 l 592 1238 l 764 1097 l 713 1049 l 521 1139 l 561 1139 l 369 1049 z "},"Ÿ":{"ha":1083,"x_min":53,"x_max":1031,"o":"m 481 0 l 481 465 l 497 381 l 53 972 l 244 972 l 576 518 l 543 521 l 853 972 l 1031 972 l 615 388 l 631 476 l 631 0 l 481 0 m 685 1054 q 613 1079 636 1054 q 589 1144 589 1104 q 613 1207 589 1179 q 685 1235 636 1235 q 757 1210 733 1235 q 781 1144 781 1185 q 757 1082 781 1110 q 685 1054 733 1054 m 399 1054 q 326 1079 350 1054 q 303 1144 303 1104 q 326 1207 303 1179 q 399 1235 350 1235 q 471 1210 447 1235 q 494 1144 494 1185 q 471 1082 494 1110 q 399 1054 447 1054 z "},"Ẏ":{"ha":1083,"x_min":53,"x_max":1031,"o":"m 481 0 l 481 465 l 497 381 l 53 972 l 244 972 l 576 518 l 543 521 l 853 972 l 1031 972 l 615 388 l 631 476 l 631 0 l 481 0 m 542 1054 q 469 1079 493 1054 q 446 1144 446 1104 q 469 1207 446 1179 q 542 1235 493 1235 q 614 1210 590 1235 q 638 1144 638 1185 q 614 1082 638 1110 q 542 1054 590 1054 z "},"Ỵ":{"ha":1083,"x_min":53,"x_max":1031,"o":"m 481 0 l 481 465 l 497 381 l 53 972 l 244 972 l 576 518 l 543 521 l 853 972 l 1031 972 l 615 388 l 631 476 l 631 0 l 481 0 m 542 -286 q 470 -262 494 -286 q 446 -196 446 -237 q 471 -132 446 -158 q 542 -106 496 -106 q 613 -130 589 -106 q 638 -196 638 -154 q 613 -260 638 -233 q 542 -286 588 -286 z "},"Ỳ":{"ha":1083,"x_min":53,"x_max":1031,"o":"m 481 0 l 481 465 l 497 381 l 53 972 l 244 972 l 576 518 l 543 521 l 853 972 l 1031 972 l 615 388 l 631 476 l 631 0 l 481 0 m 653 1049 l 372 1153 l 440 1278 l 694 1121 l 653 1049 z "},"Ỷ":{"ha":1083,"x_min":53,"x_max":1031,"o":"m 481 0 l 481 465 l 497 381 l 53 972 l 244 972 l 576 518 l 543 521 l 853 972 l 1031 972 l 615 388 l 631 476 l 631 0 l 481 0 m 510 1053 q 494 1080 500 1067 q 489 1106 489 1093 q 497 1133 489 1118 q 526 1164 504 1149 q 559 1188 550 1179 q 568 1206 568 1196 q 556 1224 568 1218 q 526 1229 544 1229 q 478 1222 504 1229 q 428 1204 451 1215 l 406 1292 q 468 1317 435 1308 q 529 1325 501 1325 q 640 1294 603 1325 q 676 1218 676 1263 q 660 1163 676 1183 q 625 1133 644 1143 q 588 1112 600 1121 q 576 1089 576 1103 q 578 1079 576 1083 q 581 1071 579 1075 l 510 1053 z "},"Ȳ":{"ha":1083,"x_min":53,"x_max":1031,"o":"m 481 0 l 481 465 l 497 381 l 53 972 l 244 972 l 576 518 l 543 521 l 853 972 l 1031 972 l 615 388 l 631 476 l 631 0 l 481 0 m 311 1093 l 311 1197 l 771 1197 l 771 1093 l 311 1093 z "},"Ỹ":{"ha":1083,"x_min":53,"x_max":1031,"o":"m 481 0 l 481 465 l 497 381 l 53 972 l 244 972 l 576 518 l 543 521 l 853 972 l 1031 972 l 615 388 l 631 476 l 631 0 l 481 0 m 644 1067 q 580 1077 613 1067 q 518 1099 547 1088 q 478 1114 494 1108 q 447 1119 461 1119 q 417 1106 429 1119 q 406 1067 406 1093 l 299 1067 q 347 1183 299 1142 q 457 1224 396 1224 q 514 1214 486 1224 q 568 1193 542 1204 q 606 1179 588 1185 q 638 1174 625 1174 q 668 1188 657 1174 q 678 1224 679 1201 l 783 1224 q 767 1147 783 1183 q 719 1089 750 1111 q 644 1067 688 1067 z "},"Z":{"ha":1040,"x_min":106,"x_max":939,"o":"m 106 0 l 106 110 l 724 851 l 758 826 l 142 826 l 142 972 l 924 972 l 924 864 l 307 121 l 272 146 l 939 146 l 939 0 l 106 0 z "},"Ź":{"ha":1040,"x_min":106,"x_max":939,"o":"m 106 0 l 106 110 l 724 851 l 758 826 l 142 826 l 142 972 l 924 972 l 924 864 l 307 121 l 272 146 l 939 146 l 939 0 l 106 0 m 419 1049 l 381 1121 l 635 1278 l 700 1153 l 419 1049 z "},"Ž":{"ha":1040,"x_min":106,"x_max":939,"o":"m 106 0 l 106 110 l 724 851 l 758 826 l 142 826 l 142 972 l 924 972 l 924 864 l 307 121 l 272 146 l 939 146 l 939 0 l 106 0 m 460 1051 l 293 1194 l 346 1240 l 540 1153 l 499 1153 l 693 1240 l 746 1194 l 579 1051 l 460 1051 z "},"Ż":{"ha":1040,"x_min":106,"x_max":939,"o":"m 106 0 l 106 110 l 724 851 l 758 826 l 142 826 l 142 972 l 924 972 l 924 864 l 307 121 l 272 146 l 939 146 l 939 0 l 106 0 m 519 1054 q 447 1079 471 1054 q 424 1144 424 1104 q 447 1207 424 1179 q 519 1235 471 1235 q 592 1210 568 1235 q 615 1144 615 1185 q 592 1082 615 1110 q 519 1054 568 1054 z "},"Ẓ":{"ha":1040,"x_min":106,"x_max":939,"o":"m 106 0 l 106 110 l 724 851 l 758 826 l 142 826 l 142 972 l 924 972 l 924 864 l 307 121 l 272 146 l 939 146 l 939 0 l 106 0 m 519 -286 q 448 -262 472 -286 q 424 -196 424 -237 q 449 -132 424 -158 q 519 -106 474 -106 q 591 -130 567 -106 q 615 -196 615 -154 q 590 -260 615 -233 q 519 -286 565 -286 z "},"a":{"ha":1074,"x_min":99,"x_max":903,"o":"m 468 -14 q 278 35 361 -14 q 147 171 194 85 q 99 367 99 257 q 148 562 99 476 q 283 696 197 647 q 479 744 369 744 q 602 727 546 744 q 700 679 658 710 q 767 612 742 649 q 794 535 792 575 l 760 540 l 760 729 l 903 729 l 903 0 l 760 0 l 760 185 l 790 186 q 758 116 785 151 q 685 51 731 81 q 585 4 640 22 q 468 -14 529 -14 m 504 118 q 640 150 581 118 q 732 238 699 182 q 765 367 765 294 q 732 492 765 436 q 640 580 699 547 q 504 613 581 613 q 369 580 428 613 q 278 492 311 547 q 244 367 244 436 q 278 238 244 294 q 369 150 311 182 q 504 118 428 118 z "},"á":{"ha":1074,"x_min":99,"x_max":903,"o":"m 468 -14 q 278 35 361 -14 q 147 171 194 85 q 99 367 99 257 q 148 562 99 476 q 283 696 197 647 q 479 744 369 744 q 602 727 546 744 q 700 679 658 710 q 767 612 742 649 q 794 535 792 575 l 760 540 l 760 729 l 903 729 l 903 0 l 760 0 l 760 185 l 790 186 q 758 116 785 151 q 685 51 731 81 q 585 4 640 22 q 468 -14 529 -14 m 504 118 q 640 150 581 118 q 732 238 699 182 q 765 367 765 294 q 732 492 765 436 q 640 580 699 547 q 504 613 581 613 q 369 580 428 613 q 278 492 311 547 q 244 367 244 436 q 278 238 244 294 q 369 150 311 182 q 504 118 428 118 m 433 842 l 386 913 l 585 1086 l 675 972 l 433 842 z "},"ă":{"ha":1074,"x_min":99,"x_max":903,"o":"m 468 -14 q 278 35 361 -14 q 147 171 194 85 q 99 367 99 257 q 148 562 99 476 q 283 696 197 647 q 479 744 369 744 q 602 727 546 744 q 700 679 658 710 q 767 612 742 649 q 794 535 792 575 l 760 540 l 760 729 l 903 729 l 903 0 l 760 0 l 760 185 l 790 186 q 758 116 785 151 q 685 51 731 81 q 585 4 640 22 q 468 -14 529 -14 m 504 118 q 640 150 581 118 q 732 238 699 182 q 765 367 765 294 q 732 492 765 436 q 640 580 699 547 q 504 613 581 613 q 369 580 428 613 q 278 492 311 547 q 244 367 244 436 q 278 238 244 294 q 369 150 311 182 q 504 118 428 118 m 525 818 q 378 876 436 818 q 300 1032 319 933 l 403 1049 q 452 963 421 994 q 525 931 483 931 q 598 963 567 931 q 647 1049 629 994 l 750 1032 q 672 876 731 933 q 525 818 614 818 z "},"ắ":{"ha":1074,"x_min":99,"x_max":903,"o":"m 468 -14 q 278 35 361 -14 q 147 171 194 85 q 99 367 99 257 q 148 562 99 476 q 283 696 197 647 q 479 744 369 744 q 602 727 546 744 q 700 679 658 710 q 767 612 742 649 q 794 535 792 575 l 760 540 l 760 729 l 903 729 l 903 0 l 760 0 l 760 185 l 790 186 q 758 116 785 151 q 685 51 731 81 q 585 4 640 22 q 468 -14 529 -14 m 504 118 q 640 150 581 118 q 732 238 699 182 q 765 367 765 294 q 732 492 765 436 q 640 580 699 547 q 504 613 581 613 q 369 580 428 613 q 278 492 311 547 q 244 367 244 436 q 278 238 244 294 q 369 150 311 182 q 504 118 428 118 m 525 818 q 378 868 436 818 q 300 1004 319 918 l 403 1021 q 452 955 421 979 q 525 931 483 931 q 598 955 567 931 q 647 1021 629 979 l 750 1004 q 672 868 731 918 q 525 818 614 818 m 535 1049 l 463 1099 l 576 1301 l 697 1215 l 535 1049 z "},"ặ":{"ha":1074,"x_min":99,"x_max":903,"o":"m 468 -14 q 278 35 361 -14 q 147 171 194 85 q 99 367 99 257 q 148 562 99 476 q 283 696 197 647 q 479 744 369 744 q 602 727 546 744 q 700 679 658 710 q 767 612 742 649 q 794 535 792 575 l 760 540 l 760 729 l 903 729 l 903 0 l 760 0 l 760 185 l 790 186 q 758 116 785 151 q 685 51 731 81 q 585 4 640 22 q 468 -14 529 -14 m 504 118 q 640 150 581 118 q 732 238 699 182 q 765 367 765 294 q 732 492 765 436 q 640 580 699 547 q 504 613 581 613 q 369 580 428 613 q 278 492 311 547 q 244 367 244 436 q 278 238 244 294 q 369 150 311 182 q 504 118 428 118 m 525 -286 q 453 -262 478 -286 q 429 -196 429 -237 q 454 -132 429 -158 q 525 -106 479 -106 q 597 -130 572 -106 q 621 -196 621 -154 q 596 -260 621 -233 q 525 -286 571 -286 m 525 818 q 378 876 436 818 q 300 1032 319 933 l 403 1049 q 452 963 421 994 q 525 931 483 931 q 598 963 567 931 q 647 1049 629 994 l 750 1032 q 672 876 731 933 q 525 818 614 818 z "},"ằ":{"ha":1074,"x_min":99,"x_max":903,"o":"m 468 -14 q 278 35 361 -14 q 147 171 194 85 q 99 367 99 257 q 148 562 99 476 q 283 696 197 647 q 479 744 369 744 q 602 727 546 744 q 700 679 658 710 q 767 612 742 649 q 794 535 792 575 l 760 540 l 760 729 l 903 729 l 903 0 l 760 0 l 760 185 l 790 186 q 758 116 785 151 q 685 51 731 81 q 585 4 640 22 q 468 -14 529 -14 m 504 118 q 640 150 581 118 q 732 238 699 182 q 765 367 765 294 q 732 492 765 436 q 640 580 699 547 q 504 613 581 613 q 369 580 428 613 q 278 492 311 547 q 244 367 244 436 q 278 238 244 294 q 369 150 311 182 q 504 118 428 118 m 525 818 q 378 872 436 818 q 300 1018 319 925 l 403 1035 q 452 959 421 988 q 525 931 483 931 q 598 959 567 931 q 647 1035 629 988 l 750 1018 q 672 872 731 925 q 525 818 614 818 m 529 1046 l 361 1214 l 481 1301 l 596 1099 l 529 1046 z "},"ẳ":{"ha":1074,"x_min":99,"x_max":903,"o":"m 468 -14 q 278 35 361 -14 q 147 171 194 85 q 99 367 99 257 q 148 562 99 476 q 283 696 197 647 q 479 744 369 744 q 602 727 546 744 q 700 679 658 710 q 767 612 742 649 q 794 535 792 575 l 760 540 l 760 729 l 903 729 l 903 0 l 760 0 l 760 185 l 790 186 q 758 116 785 151 q 685 51 731 81 q 585 4 640 22 q 468 -14 529 -14 m 504 118 q 640 150 581 118 q 732 238 699 182 q 765 367 765 294 q 732 492 765 436 q 640 580 699 547 q 504 613 581 613 q 369 580 428 613 q 278 492 311 547 q 244 367 244 436 q 278 238 244 294 q 369 150 311 182 q 504 118 428 118 m 525 818 q 378 872 436 818 q 300 1018 319 925 l 403 1035 q 452 959 421 988 q 525 931 483 931 q 598 959 567 931 q 647 1035 629 988 l 750 1018 q 672 872 731 925 q 525 818 614 818 m 493 1050 q 478 1077 483 1064 q 472 1103 472 1090 q 480 1131 472 1115 q 510 1161 488 1146 q 542 1185 533 1176 q 551 1203 551 1193 q 540 1221 551 1215 q 510 1226 528 1226 q 461 1219 488 1226 q 411 1201 435 1213 l 389 1289 q 451 1315 417 1307 q 513 1322 485 1322 q 623 1291 586 1322 q 660 1215 660 1260 q 644 1160 660 1181 q 608 1131 628 1140 q 572 1109 583 1118 q 560 1086 560 1100 q 561 1076 560 1081 q 564 1068 563 1072 l 493 1050 z "},"ẵ":{"ha":1074,"x_min":99,"x_max":903,"o":"m 468 -14 q 278 35 361 -14 q 147 171 194 85 q 99 367 99 257 q 148 562 99 476 q 283 696 197 647 q 479 744 369 744 q 602 727 546 744 q 700 679 658 710 q 767 612 742 649 q 794 535 792 575 l 760 540 l 760 729 l 903 729 l 903 0 l 760 0 l 760 185 l 790 186 q 758 116 785 151 q 685 51 731 81 q 585 4 640 22 q 468 -14 529 -14 m 504 118 q 640 150 581 118 q 732 238 699 182 q 765 367 765 294 q 732 492 765 436 q 640 580 699 547 q 504 613 581 613 q 369 580 428 613 q 278 492 311 547 q 244 367 244 436 q 278 238 244 294 q 369 150 311 182 q 504 118 428 118 m 525 818 q 378 872 436 818 q 300 1018 319 925 l 403 1035 q 452 959 421 988 q 525 931 483 931 q 598 959 567 931 q 647 1035 629 988 l 750 1018 q 672 872 731 925 q 525 818 614 818 m 631 1135 q 564 1148 590 1135 q 513 1171 538 1161 q 481 1185 496 1178 q 447 1192 465 1192 q 415 1178 429 1192 q 396 1140 401 1164 l 301 1154 q 343 1256 304 1213 q 433 1300 382 1300 q 490 1287 465 1300 q 540 1263 515 1274 q 574 1248 558 1254 q 604 1242 590 1242 q 637 1255 624 1242 q 656 1294 650 1268 l 750 1281 q 734 1208 749 1242 q 694 1155 719 1175 q 631 1135 668 1135 z "},"ǎ":{"ha":1074,"x_min":99,"x_max":903,"o":"m 468 -14 q 278 35 361 -14 q 147 171 194 85 q 99 367 99 257 q 148 562 99 476 q 283 696 197 647 q 479 744 369 744 q 602 727 546 744 q 700 679 658 710 q 767 612 742 649 q 794 535 792 575 l 760 540 l 760 729 l 903 729 l 903 0 l 760 0 l 760 185 l 790 186 q 758 116 785 151 q 685 51 731 81 q 585 4 640 22 q 468 -14 529 -14 m 504 118 q 640 150 581 118 q 732 238 699 182 q 765 367 765 294 q 732 492 765 436 q 640 580 699 547 q 504 613 581 613 q 369 580 428 613 q 278 492 311 547 q 244 367 244 436 q 278 238 244 294 q 369 150 311 182 q 504 118 428 118 m 465 843 l 319 1000 l 372 1046 l 546 944 l 504 944 l 678 1046 l 731 1000 l 585 843 l 465 843 z "},"â":{"ha":1074,"x_min":99,"x_max":903,"o":"m 468 -14 q 278 35 361 -14 q 147 171 194 85 q 99 367 99 257 q 148 562 99 476 q 283 696 197 647 q 479 744 369 744 q 602 727 546 744 q 700 679 658 710 q 767 612 742 649 q 794 535 792 575 l 760 540 l 760 729 l 903 729 l 903 0 l 760 0 l 760 185 l 790 186 q 758 116 785 151 q 685 51 731 81 q 585 4 640 22 q 468 -14 529 -14 m 504 118 q 640 150 581 118 q 732 238 699 182 q 765 367 765 294 q 732 492 765 436 q 640 580 699 547 q 504 613 581 613 q 369 580 428 613 q 278 492 311 547 q 244 367 244 436 q 278 238 244 294 q 369 150 311 182 q 504 118 428 118 m 358 843 l 306 889 l 465 1046 l 585 1046 l 744 889 l 692 843 l 504 944 l 546 944 l 358 843 z "},"ấ":{"ha":1074,"x_min":99,"x_max":919,"o":"m 468 -14 q 278 35 361 -14 q 147 171 194 85 q 99 367 99 257 q 148 562 99 476 q 283 696 197 647 q 479 744 369 744 q 602 727 546 744 q 700 679 658 710 q 767 612 742 649 q 794 535 792 575 l 760 540 l 760 729 l 903 729 l 903 0 l 760 0 l 760 185 l 790 186 q 758 116 785 151 q 685 51 731 81 q 585 4 640 22 q 468 -14 529 -14 m 504 118 q 640 150 581 118 q 732 238 699 182 q 765 367 765 294 q 732 492 765 436 q 640 580 699 547 q 504 613 581 613 q 369 580 428 613 q 278 492 311 547 q 244 367 244 436 q 278 238 244 294 q 369 150 311 182 q 504 118 428 118 m 358 843 l 306 889 l 465 1046 l 585 1046 l 744 889 l 692 843 l 504 944 l 546 944 l 358 843 m 757 1035 l 685 1085 l 799 1288 l 919 1201 l 757 1035 z "},"ậ":{"ha":1074,"x_min":99,"x_max":903,"o":"m 468 -14 q 278 35 361 -14 q 147 171 194 85 q 99 367 99 257 q 148 562 99 476 q 283 696 197 647 q 479 744 369 744 q 602 727 546 744 q 700 679 658 710 q 767 612 742 649 q 794 535 792 575 l 760 540 l 760 729 l 903 729 l 903 0 l 760 0 l 760 185 l 790 186 q 758 116 785 151 q 685 51 731 81 q 585 4 640 22 q 468 -14 529 -14 m 504 118 q 640 150 581 118 q 732 238 699 182 q 765 367 765 294 q 732 492 765 436 q 640 580 699 547 q 504 613 581 613 q 369 580 428 613 q 278 492 311 547 q 244 367 244 436 q 278 238 244 294 q 369 150 311 182 q 504 118 428 118 m 525 -286 q 453 -262 478 -286 q 429 -196 429 -237 q 454 -132 429 -158 q 525 -106 479 -106 q 597 -130 572 -106 q 621 -196 621 -154 q 596 -260 621 -233 q 525 -286 571 -286 m 358 843 l 306 889 l 465 1046 l 585 1046 l 744 889 l 692 843 l 504 944 l 546 944 l 358 843 z "},"ầ":{"ha":1074,"x_min":99,"x_max":903,"o":"m 468 -14 q 278 35 361 -14 q 147 171 194 85 q 99 367 99 257 q 148 562 99 476 q 283 696 197 647 q 479 744 369 744 q 602 727 546 744 q 700 679 658 710 q 767 612 742 649 q 794 535 792 575 l 760 540 l 760 729 l 903 729 l 903 0 l 760 0 l 760 185 l 790 186 q 758 116 785 151 q 685 51 731 81 q 585 4 640 22 q 468 -14 529 -14 m 504 118 q 640 150 581 118 q 732 238 699 182 q 765 367 765 294 q 732 492 765 436 q 640 580 699 547 q 504 613 581 613 q 369 580 428 613 q 278 492 311 547 q 244 367 244 436 q 278 238 244 294 q 369 150 311 182 q 504 118 428 118 m 358 843 l 306 889 l 465 1046 l 585 1046 l 744 889 l 692 843 l 504 944 l 546 944 l 358 843 m 738 1032 l 569 1200 l 689 1288 l 804 1085 l 738 1032 z "},"ẩ":{"ha":1074,"x_min":99,"x_max":903,"o":"m 468 -14 q 278 35 361 -14 q 147 171 194 85 q 99 367 99 257 q 148 562 99 476 q 283 696 197 647 q 479 744 369 744 q 602 727 546 744 q 700 679 658 710 q 767 612 742 649 q 794 535 792 575 l 760 540 l 760 729 l 903 729 l 903 0 l 760 0 l 760 185 l 790 186 q 758 116 785 151 q 685 51 731 81 q 585 4 640 22 q 468 -14 529 -14 m 504 118 q 640 150 581 118 q 732 238 699 182 q 765 367 765 294 q 732 492 765 436 q 640 580 699 547 q 504 613 581 613 q 369 580 428 613 q 278 492 311 547 q 244 367 244 436 q 278 238 244 294 q 369 150 311 182 q 504 118 428 118 m 358 843 l 306 889 l 465 1046 l 585 1046 l 744 889 l 692 843 l 504 944 l 546 944 l 358 843 m 725 1017 q 710 1044 715 1031 q 704 1069 704 1057 q 712 1097 704 1082 q 742 1128 719 1113 q 774 1151 765 1143 q 783 1169 783 1160 q 772 1188 783 1182 q 742 1193 760 1193 q 693 1188 719 1193 q 643 1168 667 1183 l 621 1256 q 683 1281 650 1272 q 744 1289 717 1289 q 855 1258 818 1289 q 892 1182 892 1226 q 876 1127 892 1147 q 840 1097 860 1107 q 803 1076 815 1085 q 792 1053 792 1067 q 793 1043 792 1047 q 796 1035 794 1039 l 725 1017 z "},"ẫ":{"ha":1074,"x_min":99,"x_max":903,"o":"m 468 -14 q 278 35 361 -14 q 147 171 194 85 q 99 367 99 257 q 148 562 99 476 q 283 696 197 647 q 479 744 369 744 q 602 727 546 744 q 700 679 658 710 q 767 612 742 649 q 794 535 792 575 l 760 540 l 760 729 l 903 729 l 903 0 l 760 0 l 760 185 l 790 186 q 758 116 785 151 q 685 51 731 81 q 585 4 640 22 q 468 -14 529 -14 m 504 118 q 640 150 581 118 q 732 238 699 182 q 765 367 765 294 q 732 492 765 436 q 640 580 699 547 q 504 613 581 613 q 369 580 428 613 q 278 492 311 547 q 244 367 244 436 q 278 238 244 294 q 369 150 311 182 q 504 118 428 118 m 357 843 l 304 889 l 464 1046 l 583 1046 l 743 889 l 690 843 l 503 944 l 544 944 l 357 843 m 629 1121 q 563 1134 589 1121 q 511 1157 536 1147 q 479 1171 494 1164 q 446 1178 464 1178 q 414 1164 428 1178 q 394 1126 400 1150 l 300 1140 q 342 1242 303 1199 q 432 1286 381 1286 q 489 1273 464 1286 q 539 1249 514 1260 q 573 1234 557 1240 q 603 1228 589 1228 q 635 1241 622 1228 q 654 1281 649 1254 l 749 1267 q 733 1194 747 1228 q 692 1141 718 1161 q 629 1121 667 1121 z "},"ȁ":{"ha":1074,"x_min":99,"x_max":903,"o":"m 468 -14 q 278 35 361 -14 q 147 171 194 85 q 99 367 99 257 q 148 562 99 476 q 283 696 197 647 q 479 744 369 744 q 602 727 546 744 q 700 679 658 710 q 767 612 742 649 q 794 535 792 575 l 760 540 l 760 729 l 903 729 l 903 0 l 760 0 l 760 185 l 790 186 q 758 116 785 151 q 685 51 731 81 q 585 4 640 22 q 468 -14 529 -14 m 504 118 q 640 150 581 118 q 732 238 699 182 q 765 367 765 294 q 732 492 765 436 q 640 580 699 547 q 504 613 581 613 q 369 580 428 613 q 278 492 311 547 q 244 367 244 436 q 278 238 244 294 q 369 150 311 182 q 504 118 428 118 m 671 842 l 429 972 l 519 1086 l 718 913 l 671 842 m 394 842 l 153 972 l 243 1086 l 442 913 l 394 842 z "},"ä":{"ha":1074,"x_min":99,"x_max":903,"o":"m 468 -14 q 278 35 361 -14 q 147 171 194 85 q 99 367 99 257 q 148 562 99 476 q 283 696 197 647 q 479 744 369 744 q 602 727 546 744 q 700 679 658 710 q 767 612 742 649 q 794 535 792 575 l 760 540 l 760 729 l 903 729 l 903 0 l 760 0 l 760 185 l 790 186 q 758 116 785 151 q 685 51 731 81 q 585 4 640 22 q 468 -14 529 -14 m 504 118 q 640 150 581 118 q 732 238 699 182 q 765 367 765 294 q 732 492 765 436 q 640 580 699 547 q 504 613 581 613 q 369 580 428 613 q 278 492 311 547 q 244 367 244 436 q 278 238 244 294 q 369 150 311 182 q 504 118 428 118 m 664 897 q 593 921 618 897 q 568 988 568 944 q 594 1053 568 1028 q 664 1078 619 1078 q 735 1054 710 1078 q 760 988 760 1031 q 734 922 760 947 q 664 897 708 897 m 386 897 q 315 921 340 897 q 290 988 290 944 q 316 1053 290 1028 q 386 1078 342 1078 q 457 1054 432 1078 q 482 988 482 1031 q 456 922 482 947 q 386 897 431 897 z "},"ạ":{"ha":1074,"x_min":99,"x_max":903,"o":"m 468 -14 q 278 35 361 -14 q 147 171 194 85 q 99 367 99 257 q 148 562 99 476 q 283 696 197 647 q 479 744 369 744 q 602 727 546 744 q 700 679 658 710 q 767 612 742 649 q 794 535 792 575 l 760 540 l 760 729 l 903 729 l 903 0 l 760 0 l 760 185 l 790 186 q 758 116 785 151 q 685 51 731 81 q 585 4 640 22 q 468 -14 529 -14 m 504 118 q 640 150 581 118 q 732 238 699 182 q 765 367 765 294 q 732 492 765 436 q 640 580 699 547 q 504 613 581 613 q 369 580 428 613 q 278 492 311 547 q 244 367 244 436 q 278 238 244 294 q 369 150 311 182 q 504 118 428 118 m 525 -286 q 453 -262 478 -286 q 429 -196 429 -237 q 454 -132 429 -158 q 525 -106 479 -106 q 597 -130 572 -106 q 621 -196 621 -154 q 596 -260 621 -233 q 525 -286 571 -286 z "},"à":{"ha":1074,"x_min":99,"x_max":903,"o":"m 468 -14 q 278 35 361 -14 q 147 171 194 85 q 99 367 99 257 q 148 562 99 476 q 283 696 197 647 q 479 744 369 744 q 602 727 546 744 q 700 679 658 710 q 767 612 742 649 q 794 535 792 575 l 760 540 l 760 729 l 903 729 l 903 0 l 760 0 l 760 185 l 790 186 q 758 116 785 151 q 685 51 731 81 q 585 4 640 22 q 468 -14 529 -14 m 504 118 q 640 150 581 118 q 732 238 699 182 q 765 367 765 294 q 732 492 765 436 q 640 580 699 547 q 504 613 581 613 q 369 580 428 613 q 278 492 311 547 q 244 367 244 436 q 278 238 244 294 q 369 150 311 182 q 504 118 428 118 m 600 842 l 358 972 l 449 1086 l 647 913 l 600 842 z "},"ả":{"ha":1074,"x_min":99,"x_max":903,"o":"m 468 -14 q 278 35 361 -14 q 147 171 194 85 q 99 367 99 257 q 148 562 99 476 q 283 696 197 647 q 479 744 369 744 q 602 727 546 744 q 700 679 658 710 q 767 612 742 649 q 794 535 792 575 l 760 540 l 760 729 l 903 729 l 903 0 l 760 0 l 760 185 l 790 186 q 758 116 785 151 q 685 51 731 81 q 585 4 640 22 q 468 -14 529 -14 m 504 118 q 640 150 581 118 q 732 238 699 182 q 765 367 765 294 q 732 492 765 436 q 640 580 699 547 q 504 613 581 613 q 369 580 428 613 q 278 492 311 547 q 244 367 244 436 q 278 238 244 294 q 369 150 311 182 q 504 118 428 118 m 493 824 q 478 851 483 838 q 472 876 472 864 q 480 904 472 889 q 510 935 488 919 q 542 958 533 950 q 551 976 551 967 q 540 994 551 989 q 510 1000 528 1000 q 461 993 488 1000 q 411 975 435 986 l 389 1063 q 451 1088 418 1079 q 513 1096 485 1096 q 623 1065 586 1096 q 660 989 660 1033 q 644 934 660 954 q 608 904 628 914 q 572 883 583 892 q 560 860 560 874 q 561 850 560 854 q 564 842 563 846 l 493 824 z "},"ȃ":{"ha":1074,"x_min":99,"x_max":903,"o":"m 468 -14 q 278 35 361 -14 q 147 171 194 85 q 99 367 99 257 q 148 562 99 476 q 283 696 197 647 q 479 744 369 744 q 602 727 546 744 q 700 679 658 710 q 767 612 742 649 q 794 535 792 575 l 760 540 l 760 729 l 903 729 l 903 0 l 760 0 l 760 185 l 790 186 q 758 116 785 151 q 685 51 731 81 q 585 4 640 22 q 468 -14 529 -14 m 504 118 q 640 150 581 118 q 732 238 699 182 q 765 367 765 294 q 732 492 765 436 q 640 580 699 547 q 504 613 581 613 q 369 580 428 613 q 278 492 311 547 q 244 367 244 436 q 278 238 244 294 q 369 150 311 182 q 504 118 428 118 m 403 832 l 300 849 q 378 1005 319 947 q 525 1063 436 1063 q 672 1005 614 1063 q 750 849 731 947 l 647 832 q 598 918 629 886 q 525 950 567 950 q 452 918 483 950 q 403 832 421 886 z "},"ā":{"ha":1074,"x_min":99,"x_max":903,"o":"m 468 -14 q 278 35 361 -14 q 147 171 194 85 q 99 367 99 257 q 148 562 99 476 q 283 696 197 647 q 479 744 369 744 q 602 727 546 744 q 700 679 658 710 q 767 612 742 649 q 794 535 792 575 l 760 540 l 760 729 l 903 729 l 903 0 l 760 0 l 760 185 l 790 186 q 758 116 785 151 q 685 51 731 81 q 585 4 640 22 q 468 -14 529 -14 m 504 118 q 640 150 581 118 q 732 238 699 182 q 765 367 765 294 q 732 492 765 436 q 640 580 699 547 q 504 613 581 613 q 369 580 428 613 q 278 492 311 547 q 244 367 244 436 q 278 238 244 294 q 369 150 311 182 q 504 118 428 118 m 322 892 l 322 996 l 728 996 l 728 892 l 322 892 z "},"ą":{"ha":1074,"x_min":99,"x_max":929,"o":"m 468 -14 q 278 35 361 -14 q 147 171 194 85 q 99 367 99 257 q 148 562 99 476 q 283 696 197 647 q 479 744 369 744 q 602 727 546 744 q 700 679 658 710 q 767 612 742 649 q 794 535 792 575 l 760 540 l 760 729 l 903 729 l 903 0 l 760 0 l 760 185 l 790 186 q 758 116 785 151 q 685 51 731 81 q 585 4 640 22 q 468 -14 529 -14 m 504 118 q 640 150 581 118 q 732 238 699 182 q 765 367 765 294 q 732 492 765 436 q 640 580 699 547 q 504 613 581 613 q 369 580 428 613 q 278 492 311 547 q 244 367 244 436 q 278 238 244 294 q 369 150 311 182 q 504 118 428 118 m 778 -278 q 704 -258 739 -278 q 648 -206 669 -239 q 626 -135 626 -174 q 644 -66 626 -97 q 691 -11 661 -35 q 763 31 721 13 q 851 63 804 50 l 903 0 q 829 -27 864 -8 q 774 -70 794 -46 q 753 -121 753 -94 q 766 -157 753 -143 q 800 -171 779 -171 q 829 -161 817 -171 q 851 -136 842 -151 l 929 -192 q 899 -233 921 -212 q 847 -265 878 -253 q 778 -278 817 -278 z "},"å":{"ha":1074,"x_min":99,"x_max":903,"o":"m 468 -14 q 278 35 361 -14 q 147 171 194 85 q 99 367 99 257 q 148 562 99 476 q 283 696 197 647 q 479 744 369 744 q 602 727 546 744 q 700 679 658 710 q 767 612 742 649 q 794 535 792 575 l 760 540 l 760 729 l 903 729 l 903 0 l 760 0 l 760 185 l 790 186 q 758 116 785 151 q 685 51 731 81 q 585 4 640 22 q 468 -14 529 -14 m 504 118 q 640 150 581 118 q 732 238 699 182 q 765 367 765 294 q 732 492 765 436 q 640 580 699 547 q 504 613 581 613 q 369 580 428 613 q 278 492 311 547 q 244 367 244 436 q 278 238 244 294 q 369 150 311 182 q 504 118 428 118 m 524 839 q 450 859 485 839 q 394 913 415 879 q 372 985 372 946 q 393 1058 372 1025 q 449 1112 414 1092 q 524 1132 483 1132 q 600 1112 565 1132 q 656 1058 635 1092 q 676 985 676 1025 q 656 913 676 946 q 600 859 635 879 q 524 839 565 839 m 524 921 q 573 940 553 921 q 593 985 593 958 q 573 1032 593 1014 q 524 1050 553 1050 q 475 1031 494 1050 q 456 985 456 1013 q 476 940 456 958 q 524 921 496 921 z "},"ǻ":{"ha":1074,"x_min":99,"x_max":903,"o":"m 468 -14 q 278 35 361 -14 q 147 171 194 85 q 99 367 99 257 q 148 562 99 476 q 283 696 197 647 q 479 744 369 744 q 602 727 546 744 q 700 679 658 710 q 767 612 742 649 q 794 535 792 575 l 760 540 l 760 729 l 903 729 l 903 0 l 760 0 l 760 185 l 790 186 q 758 116 785 151 q 685 51 731 81 q 585 4 640 22 q 468 -14 529 -14 m 504 118 q 640 150 581 118 q 732 238 699 182 q 765 367 765 294 q 732 492 765 436 q 640 580 699 547 q 504 613 581 613 q 369 580 428 613 q 278 492 311 547 q 244 367 244 436 q 278 238 244 294 q 369 150 311 182 q 504 118 428 118 m 524 839 q 450 859 485 839 q 394 913 415 879 q 372 985 372 946 q 393 1058 372 1025 q 449 1112 414 1092 q 524 1132 483 1132 q 600 1112 565 1132 q 656 1058 635 1092 q 676 985 676 1025 q 656 913 676 946 q 600 859 635 879 q 524 839 565 839 m 524 921 q 573 940 553 921 q 593 985 593 958 q 573 1032 593 1014 q 524 1050 553 1050 q 475 1031 494 1050 q 456 985 456 1013 q 476 940 456 958 q 524 921 496 921 m 433 1165 l 386 1236 l 585 1410 l 675 1296 l 433 1165 z "},"ã":{"ha":1074,"x_min":99,"x_max":903,"o":"m 468 -14 q 278 35 361 -14 q 147 171 194 85 q 99 367 99 257 q 148 562 99 476 q 283 696 197 647 q 479 744 369 744 q 602 727 546 744 q 700 679 658 710 q 767 612 742 649 q 794 535 792 575 l 760 540 l 760 729 l 903 729 l 903 0 l 760 0 l 760 185 l 790 186 q 758 116 785 151 q 685 51 731 81 q 585 4 640 22 q 468 -14 529 -14 m 504 118 q 640 150 581 118 q 732 238 699 182 q 765 367 765 294 q 732 492 765 436 q 640 580 699 547 q 504 613 581 613 q 369 580 428 613 q 278 492 311 547 q 244 367 244 436 q 278 238 244 294 q 369 150 311 182 q 504 118 428 118 m 596 854 q 549 865 568 854 q 510 893 531 876 q 470 926 483 917 q 446 935 457 935 q 414 915 428 935 q 394 854 400 894 l 300 868 q 344 986 303 936 q 453 1036 385 1036 q 499 1025 481 1036 q 539 997 518 1014 q 579 965 567 975 q 603 956 592 956 q 635 976 622 956 q 654 1036 649 997 l 749 1022 q 728 939 747 978 q 675 877 708 900 q 596 854 642 854 z "},"æ":{"ha":1508,"x_min":99,"x_max":1394,"o":"m 385 -14 q 237 13 301 -14 q 135 88 172 39 q 99 207 99 138 q 126 319 99 274 q 201 392 153 365 q 317 431 250 419 q 465 443 385 443 l 1269 443 l 1249 419 l 1249 453 q 1210 538 1243 501 q 1129 594 1178 574 q 1025 615 1081 615 q 888 590 947 615 q 794 510 828 565 q 760 367 760 456 q 802 231 760 288 q 916 144 844 175 q 1071 114 988 114 q 1206 135 1149 114 q 1311 197 1263 156 l 1381 90 q 1295 38 1349 63 q 1180 0 1242 14 q 1057 -14 1118 -14 q 833 33 929 -14 q 683 165 736 81 q 631 357 631 249 q 662 515 631 444 q 748 638 693 586 q 874 717 803 689 q 1025 744 946 744 q 1213 698 1129 743 q 1345 573 1296 653 q 1394 390 1394 493 l 1393 329 l 447 329 q 367 323 406 329 q 298 303 328 317 q 251 267 268 289 q 233 213 233 246 q 254 156 233 179 q 310 120 275 132 q 390 108 346 108 q 506 129 453 108 q 599 183 560 150 q 658 247 639 215 l 717 154 q 638 74 688 113 q 524 11 588 36 q 385 -14 460 -14 m 631 357 l 631 483 q 615 535 631 511 q 572 577 599 560 q 513 603 544 594 q 449 613 481 613 q 320 589 381 613 q 210 514 260 565 l 122 610 q 217 682 167 651 q 326 728 268 713 q 451 744 385 744 q 569 732 514 744 q 667 694 624 719 q 735 631 711 669 q 760 539 760 592 l 760 365 l 631 357 z "},"ǽ":{"ha":1508,"x_min":99,"x_max":1394,"o":"m 385 -14 q 237 13 301 -14 q 135 88 172 39 q 99 207 99 138 q 126 319 99 274 q 201 392 153 365 q 317 431 250 419 q 465 443 385 443 l 1269 443 l 1249 419 l 1249 453 q 1210 538 1243 501 q 1129 594 1178 574 q 1025 615 1081 615 q 888 590 947 615 q 794 510 828 565 q 760 367 760 456 q 802 231 760 288 q 916 144 844 175 q 1071 114 988 114 q 1206 135 1149 114 q 1311 197 1263 156 l 1381 90 q 1295 38 1349 63 q 1180 0 1242 14 q 1057 -14 1118 -14 q 833 33 929 -14 q 683 165 736 81 q 631 357 631 249 q 662 515 631 444 q 748 638 693 586 q 874 717 803 689 q 1025 744 946 744 q 1213 698 1129 743 q 1345 573 1296 653 q 1394 390 1394 493 l 1393 329 l 447 329 q 367 323 406 329 q 298 303 328 317 q 251 267 268 289 q 233 213 233 246 q 254 156 233 179 q 310 120 275 132 q 390 108 346 108 q 506 129 453 108 q 599 183 560 150 q 658 247 639 215 l 717 154 q 638 74 688 113 q 524 11 588 36 q 385 -14 460 -14 m 631 357 l 631 483 q 615 535 631 511 q 572 577 599 560 q 513 603 544 594 q 449 613 481 613 q 320 589 381 613 q 210 514 260 565 l 122 610 q 217 682 167 651 q 326 728 268 713 q 451 744 385 744 q 569 732 514 744 q 667 694 624 719 q 735 631 711 669 q 760 539 760 592 l 760 365 l 631 357 m 657 842 l 610 913 l 808 1086 l 899 972 l 657 842 z "},"b":{"ha":1079,"x_min":182,"x_max":974,"o":"m 593 -14 q 483 3 536 -14 q 386 47 429 19 q 315 106 343 74 q 278 168 286 139 l 325 182 l 325 4 l 182 4 l 182 1028 l 325 1028 l 325 563 l 292 569 q 326 631 300 600 q 394 687 353 661 q 488 728 436 713 q 594 744 539 744 q 788 696 703 744 q 924 562 874 647 q 974 367 974 476 q 924 171 974 257 q 789 35 875 85 q 593 -14 703 -14 m 575 118 q 710 151 651 118 q 802 240 768 183 q 836 367 836 296 q 803 494 836 438 q 710 582 769 550 q 575 614 651 614 q 440 582 499 614 q 347 494 381 550 q 313 367 313 438 q 347 240 313 296 q 440 151 381 183 q 575 118 499 118 z "},"c":{"ha":935,"x_min":106,"x_max":842,"o":"m 499 -14 q 298 36 386 -14 q 158 172 210 86 q 106 365 106 258 q 158 558 106 472 q 298 694 210 644 q 499 744 386 744 q 700 706 608 744 q 842 600 792 667 l 763 494 q 691 556 733 528 q 601 599 649 583 q 507 615 553 615 q 373 583 432 615 q 281 493 314 550 q 247 365 247 436 q 283 238 247 294 q 377 149 318 182 q 508 115 436 115 q 606 129 561 115 q 691 167 651 143 q 763 222 731 192 l 842 119 q 694 25 783 64 q 499 -14 604 -14 z "},"ć":{"ha":935,"x_min":106,"x_max":842,"o":"m 499 -14 q 298 36 386 -14 q 158 172 210 86 q 106 365 106 258 q 158 558 106 472 q 298 694 210 644 q 499 744 386 744 q 700 706 608 744 q 842 600 792 667 l 763 494 q 691 556 733 528 q 601 599 649 583 q 507 615 553 615 q 373 583 432 615 q 281 493 314 550 q 247 365 247 436 q 283 238 247 294 q 377 149 318 182 q 508 115 436 115 q 606 129 561 115 q 691 167 651 143 q 763 222 731 192 l 842 119 q 694 25 783 64 q 499 -14 604 -14 m 407 842 l 360 913 l 558 1086 l 649 972 l 407 842 z "},"č":{"ha":935,"x_min":106,"x_max":842,"o":"m 499 -14 q 298 36 386 -14 q 158 172 210 86 q 106 365 106 258 q 158 558 106 472 q 298 694 210 644 q 499 744 386 744 q 700 706 608 744 q 842 600 792 667 l 763 494 q 691 556 733 528 q 601 599 649 583 q 507 615 553 615 q 373 583 432 615 q 281 493 314 550 q 247 365 247 436 q 283 238 247 294 q 377 149 318 182 q 508 115 436 115 q 606 129 561 115 q 691 167 651 143 q 763 222 731 192 l 842 119 q 694 25 783 64 q 499 -14 604 -14 m 439 843 l 293 1000 l 346 1046 l 519 944 l 478 944 l 651 1046 l 704 1000 l 558 843 l 439 843 z "},"ç":{"ha":935,"x_min":106,"x_max":842,"o":"m 499 -14 q 298 36 386 -14 q 158 172 210 86 q 106 365 106 258 q 158 558 106 472 q 298 694 210 644 q 499 744 386 744 q 700 706 608 744 q 842 600 792 667 l 763 494 q 691 556 733 528 q 601 599 649 583 q 507 615 553 615 q 373 583 432 615 q 281 493 314 550 q 247 365 247 436 q 283 238 247 294 q 377 149 318 182 q 508 115 436 115 q 606 129 561 115 q 691 167 651 143 q 763 222 731 192 l 842 119 q 694 25 783 64 q 499 -14 604 -14 m 367 -339 l 357 -268 q 431 -258 393 -268 q 493 -232 468 -249 q 518 -196 518 -215 q 494 -163 518 -175 q 439 -145 469 -151 q 388 -139 408 -139 l 371 -119 l 469 33 l 551 33 l 492 -64 q 593 -109 556 -78 q 631 -193 631 -140 q 606 -258 631 -229 q 542 -304 582 -286 q 457 -331 503 -322 q 367 -339 411 -340 z "},"ḉ":{"ha":935,"x_min":106,"x_max":842,"o":"m 499 -14 q 298 36 386 -14 q 158 172 210 86 q 106 365 106 258 q 158 558 106 472 q 298 694 210 644 q 499 744 386 744 q 700 706 608 744 q 842 600 792 667 l 763 494 q 691 556 733 528 q 601 599 649 583 q 507 615 553 615 q 373 583 432 615 q 281 493 314 550 q 247 365 247 436 q 283 238 247 294 q 377 149 318 182 q 508 115 436 115 q 606 129 561 115 q 691 167 651 143 q 763 222 731 192 l 842 119 q 694 25 783 64 q 499 -14 604 -14 m 367 -339 l 357 -268 q 431 -258 393 -268 q 493 -232 468 -249 q 518 -196 518 -215 q 494 -163 518 -175 q 439 -145 469 -151 q 388 -139 408 -139 l 371 -119 l 469 33 l 551 33 l 492 -64 q 593 -109 556 -78 q 631 -193 631 -140 q 606 -258 631 -229 q 542 -304 582 -286 q 457 -331 503 -322 q 367 -339 411 -340 m 407 842 l 360 913 l 558 1086 l 649 972 l 407 842 z "},"ĉ":{"ha":935,"x_min":106,"x_max":842,"o":"m 499 -14 q 298 36 386 -14 q 158 172 210 86 q 106 365 106 258 q 158 558 106 472 q 298 694 210 644 q 499 744 386 744 q 700 706 608 744 q 842 600 792 667 l 763 494 q 691 556 733 528 q 601 599 649 583 q 507 615 553 615 q 373 583 432 615 q 281 493 314 550 q 247 365 247 436 q 283 238 247 294 q 377 149 318 182 q 508 115 436 115 q 606 129 561 115 q 691 167 651 143 q 763 222 731 192 l 842 119 q 694 25 783 64 q 499 -14 604 -14 m 332 843 l 279 889 l 439 1046 l 558 1046 l 718 889 l 665 843 l 478 944 l 519 944 l 332 843 z "},"ċ":{"ha":935,"x_min":106,"x_max":842,"o":"m 499 -14 q 298 36 386 -14 q 158 172 210 86 q 106 365 106 258 q 158 558 106 472 q 298 694 210 644 q 499 744 386 744 q 700 706 608 744 q 842 600 792 667 l 763 494 q 691 556 733 528 q 601 599 649 583 q 507 615 553 615 q 373 583 432 615 q 281 493 314 550 q 247 365 247 436 q 283 238 247 294 q 377 149 318 182 q 508 115 436 115 q 606 129 561 115 q 691 167 651 143 q 763 222 731 192 l 842 119 q 694 25 783 64 q 499 -14 604 -14 m 499 896 q 428 919 453 896 q 403 986 403 943 q 428 1051 403 1026 q 499 1076 454 1076 q 569 1053 544 1076 q 594 986 594 1029 q 569 921 594 946 q 499 896 543 896 z "},"d":{"ha":1064,"x_min":100,"x_max":906,"o":"m 482 -14 q 283 35 369 -14 q 149 170 197 85 q 100 365 100 256 q 149 560 100 475 q 285 695 199 646 q 483 744 372 744 q 606 726 549 744 q 709 678 664 708 q 779 613 754 649 q 804 543 804 578 l 763 540 l 763 1028 l 906 1028 l 906 0 l 763 0 l 763 185 l 790 181 q 765 114 790 147 q 696 51 739 81 q 597 4 653 22 q 482 -14 542 -14 m 507 113 q 642 146 583 113 q 735 236 701 179 q 768 365 768 293 q 735 494 768 438 q 642 584 701 551 q 507 617 583 617 q 372 584 431 617 q 279 494 313 551 q 246 365 246 438 q 279 236 246 293 q 372 146 313 179 q 507 113 431 113 z "},"ð":{"ha":981,"x_min":106,"x_max":875,"o":"m 488 -10 q 289 40 375 -10 q 154 175 203 90 q 106 364 106 260 q 135 507 106 440 q 214 624 164 574 q 331 704 264 675 q 471 733 397 733 q 617 701 554 733 q 722 613 681 669 q 778 483 763 557 l 717 501 q 699 612 715 560 q 655 709 683 664 q 585 792 626 754 q 492 864 544 831 q 374 925 439 897 l 438 1028 q 569 963 506 1006 q 689 862 633 921 q 786 729 744 803 q 851 570 828 656 q 875 392 875 485 q 824 181 875 271 q 686 40 774 90 q 488 -10 599 -10 m 488 118 q 613 151 557 118 q 701 239 668 183 q 735 364 735 294 q 701 485 735 431 q 611 572 668 539 q 482 606 554 606 q 362 574 415 606 q 276 487 308 542 q 244 364 244 432 q 277 239 244 294 q 365 151 310 183 q 488 118 421 118 m 344 744 l 326 835 l 528 875 l 604 903 l 807 938 l 832 846 l 675 821 l 618 797 l 344 744 z "},"ď":{"ha":1079,"x_min":100,"x_max":1192,"o":"m 482 -14 q 283 35 369 -14 q 149 170 197 85 q 100 365 100 256 q 149 560 100 475 q 285 695 199 646 q 483 744 372 744 q 606 726 549 744 q 709 678 664 708 q 779 613 754 649 q 804 543 804 578 l 763 540 l 763 1028 l 906 1028 l 906 0 l 763 0 l 763 185 l 790 181 q 765 114 790 147 q 696 51 739 81 q 597 4 653 22 q 482 -14 542 -14 m 507 113 q 642 146 583 113 q 735 236 701 179 q 768 365 768 293 q 735 494 768 438 q 642 584 701 551 q 507 617 583 617 q 372 584 431 617 q 279 494 313 551 q 246 365 246 438 q 279 236 246 293 q 372 146 313 179 q 507 113 431 113 m 1019 753 l 986 811 q 1023 827 1006 815 q 1051 854 1040 839 q 1061 883 1061 869 q 1055 898 1061 893 q 1035 907 1049 903 q 1003 924 1014 913 q 993 960 993 935 q 1019 1009 993 990 q 1083 1028 1044 1028 q 1159 1000 1126 1028 q 1192 921 1192 972 q 1176 864 1192 890 q 1136 816 1161 838 q 1081 778 1111 794 q 1019 753 1050 763 z "},"đ":{"ha":1064,"x_min":100,"x_max":1008,"o":"m 558 819 l 558 942 l 1008 942 l 1008 819 l 558 819 m 482 -14 q 283 35 369 -14 q 149 170 197 85 q 100 365 100 256 q 149 560 100 475 q 285 695 199 646 q 483 744 372 744 q 606 726 549 744 q 709 678 664 708 q 779 613 754 649 q 804 543 804 578 l 763 540 l 763 1028 l 906 1028 l 906 0 l 763 0 l 763 185 l 790 181 q 765 114 790 147 q 696 51 739 81 q 597 4 653 22 q 482 -14 542 -14 m 507 113 q 642 146 583 113 q 735 236 701 179 q 768 365 768 293 q 735 494 768 438 q 642 584 701 551 q 507 617 583 617 q 372 584 431 617 q 279 494 313 551 q 246 365 246 438 q 279 236 246 293 q 372 146 313 179 q 507 113 431 113 z "},"ḍ":{"ha":1064,"x_min":100,"x_max":906,"o":"m 482 -14 q 283 35 369 -14 q 149 170 197 85 q 100 365 100 256 q 149 560 100 475 q 285 695 199 646 q 483 744 372 744 q 606 726 549 744 q 709 678 664 708 q 779 613 754 649 q 804 543 804 578 l 763 540 l 763 1028 l 906 1028 l 906 0 l 763 0 l 763 185 l 790 181 q 765 114 790 147 q 696 51 739 81 q 597 4 653 22 q 482 -14 542 -14 m 507 113 q 642 146 583 113 q 735 236 701 179 q 768 365 768 293 q 735 494 768 438 q 642 584 701 551 q 507 617 583 617 q 372 584 431 617 q 279 494 313 551 q 246 365 246 438 q 279 236 246 293 q 372 146 313 179 q 507 113 431 113 m 524 -286 q 452 -262 476 -286 q 428 -196 428 -237 q 453 -132 428 -158 q 524 -106 478 -106 q 595 -130 571 -106 q 619 -196 619 -154 q 594 -260 619 -233 q 524 -286 569 -286 z "},"ḏ":{"ha":1064,"x_min":100,"x_max":906,"o":"m 482 -14 q 283 35 369 -14 q 149 170 197 85 q 100 365 100 256 q 149 560 100 475 q 285 695 199 646 q 483 744 372 744 q 606 726 549 744 q 709 678 664 708 q 779 613 754 649 q 804 543 804 578 l 763 540 l 763 1028 l 906 1028 l 906 0 l 763 0 l 763 185 l 790 181 q 765 114 790 147 q 696 51 739 81 q 597 4 653 22 q 482 -14 542 -14 m 507 113 q 642 146 583 113 q 735 236 701 179 q 768 365 768 293 q 735 494 768 438 q 642 584 701 551 q 507 617 583 617 q 372 584 431 617 q 279 494 313 551 q 246 365 246 438 q 279 236 246 293 q 372 146 313 179 q 507 113 431 113 m 328 -247 l 328 -144 l 718 -144 l 718 -247 l 328 -247 z "},"ǆ":{"ha":1872,"x_min":100,"x_max":1779,"o":"m 482 -14 q 283 35 369 -14 q 149 170 197 85 q 100 365 100 256 q 149 560 100 475 q 285 695 199 646 q 483 744 372 744 q 606 726 549 744 q 709 678 664 708 q 779 613 754 649 q 804 543 804 578 l 763 540 l 763 1028 l 906 1028 l 906 0 l 763 0 l 763 185 l 790 181 q 765 114 790 147 q 696 51 739 81 q 597 4 653 22 q 482 -14 542 -14 m 507 113 q 642 146 583 113 q 735 236 701 179 q 768 365 768 293 q 735 494 768 438 q 642 584 701 551 q 507 617 583 617 q 372 584 431 617 q 279 494 313 551 q 246 365 246 438 q 279 236 246 293 q 372 146 313 179 q 507 113 431 113 m 1161 0 l 1161 119 l 1611 622 l 1621 607 l 1161 607 l 1161 729 l 1771 729 l 1771 613 l 1325 117 l 1311 122 l 1779 122 l 1779 0 l 1161 0 m 1407 843 l 1261 1000 l 1314 1046 l 1488 944 l 1446 944 l 1619 1046 l 1672 1000 l 1526 843 l 1407 843 z "},"e":{"ha":1006,"x_min":100,"x_max":893,"o":"m 529 -14 q 307 34 404 -14 q 155 165 210 82 q 100 357 100 249 q 132 517 100 446 q 220 639 164 588 q 353 718 276 690 q 517 746 429 746 q 665 719 596 746 q 785 646 733 693 q 865 534 836 599 q 892 392 893 469 l 890 325 l 217 325 l 185 439 l 767 439 l 746 421 l 746 454 q 707 536 740 500 q 624 593 674 572 q 517 614 574 614 q 372 588 433 614 q 276 506 310 561 q 242 367 242 451 q 281 235 242 290 q 389 149 319 179 q 549 118 458 118 q 683 140 626 118 q 792 201 740 163 l 860 97 q 769 41 824 67 q 653 1 715 15 q 529 -14 592 -14 z "},"é":{"ha":1006,"x_min":100,"x_max":893,"o":"m 529 -14 q 307 34 404 -14 q 155 165 210 82 q 100 357 100 249 q 132 517 100 446 q 220 639 164 588 q 353 718 276 690 q 517 746 429 746 q 665 719 596 746 q 785 646 733 693 q 865 534 836 599 q 892 392 893 469 l 890 325 l 217 325 l 185 439 l 767 439 l 746 421 l 746 454 q 707 536 740 500 q 624 593 674 572 q 517 614 574 614 q 372 588 433 614 q 276 506 310 561 q 242 367 242 451 q 281 235 242 290 q 389 149 319 179 q 549 118 458 118 q 683 140 626 118 q 792 201 740 163 l 860 97 q 769 41 824 67 q 653 1 715 15 q 529 -14 592 -14 m 425 842 l 378 913 l 576 1086 l 667 972 l 425 842 z "},"ĕ":{"ha":1006,"x_min":100,"x_max":893,"o":"m 529 -14 q 307 34 404 -14 q 155 165 210 82 q 100 357 100 249 q 132 517 100 446 q 220 639 164 588 q 353 718 276 690 q 517 746 429 746 q 665 719 596 746 q 785 646 733 693 q 865 534 836 599 q 892 392 893 469 l 890 325 l 217 325 l 185 439 l 767 439 l 746 421 l 746 454 q 707 536 740 500 q 624 593 674 572 q 517 614 574 614 q 372 588 433 614 q 276 506 310 561 q 242 367 242 451 q 281 235 242 290 q 389 149 319 179 q 549 118 458 118 q 683 140 626 118 q 792 201 740 163 l 860 97 q 769 41 824 67 q 653 1 715 15 q 529 -14 592 -14 m 517 818 q 369 876 428 818 q 292 1032 311 933 l 394 1049 q 444 963 413 994 q 517 931 475 931 q 590 963 558 931 q 639 1049 621 994 l 742 1032 q 664 876 722 933 q 517 818 606 818 z "},"ě":{"ha":1006,"x_min":100,"x_max":893,"o":"m 529 -14 q 307 34 404 -14 q 155 165 210 82 q 100 357 100 249 q 132 517 100 446 q 220 639 164 588 q 353 718 276 690 q 517 746 429 746 q 665 719 596 746 q 785 646 733 693 q 865 534 836 599 q 892 392 893 469 l 890 325 l 217 325 l 185 439 l 767 439 l 746 421 l 746 454 q 707 536 740 500 q 624 593 674 572 q 517 614 574 614 q 372 588 433 614 q 276 506 310 561 q 242 367 242 451 q 281 235 242 290 q 389 149 319 179 q 549 118 458 118 q 683 140 626 118 q 792 201 740 163 l 860 97 q 769 41 824 67 q 653 1 715 15 q 529 -14 592 -14 m 457 843 l 311 1000 l 364 1046 l 538 944 l 496 944 l 669 1046 l 722 1000 l 576 843 l 457 843 z "},"ḝ":{"ha":1006,"x_min":100,"x_max":893,"o":"m 529 -14 q 307 34 404 -14 q 155 165 210 82 q 100 357 100 249 q 132 517 100 446 q 220 639 164 588 q 353 718 276 690 q 517 746 429 746 q 665 719 596 746 q 785 646 733 693 q 865 534 836 599 q 892 392 893 469 l 890 325 l 217 325 l 185 439 l 767 439 l 746 421 l 746 454 q 707 536 740 500 q 624 593 674 572 q 517 614 574 614 q 372 588 433 614 q 276 506 310 561 q 242 367 242 451 q 281 235 242 290 q 389 149 319 179 q 549 118 458 118 q 683 140 626 118 q 792 201 740 163 l 860 97 q 769 41 824 67 q 653 1 715 15 q 529 -14 592 -14 m 396 -339 l 386 -268 q 460 -258 422 -268 q 522 -232 497 -249 q 547 -196 547 -215 q 523 -163 547 -175 q 468 -145 499 -151 q 417 -139 438 -139 l 400 -119 l 499 33 l 581 33 l 521 -64 q 622 -109 585 -78 q 660 -193 660 -140 q 635 -258 660 -229 q 572 -304 611 -286 q 486 -331 532 -322 q 396 -339 440 -340 m 517 818 q 369 876 428 818 q 292 1032 311 933 l 394 1049 q 444 963 413 994 q 517 931 475 931 q 590 963 558 931 q 639 1049 621 994 l 742 1032 q 664 876 722 933 q 517 818 606 818 z "},"ê":{"ha":1006,"x_min":100,"x_max":893,"o":"m 529 -14 q 307 34 404 -14 q 155 165 210 82 q 100 357 100 249 q 132 517 100 446 q 220 639 164 588 q 353 718 276 690 q 517 746 429 746 q 665 719 596 746 q 785 646 733 693 q 865 534 836 599 q 892 392 893 469 l 890 325 l 217 325 l 185 439 l 767 439 l 746 421 l 746 454 q 707 536 740 500 q 624 593 674 572 q 517 614 574 614 q 372 588 433 614 q 276 506 310 561 q 242 367 242 451 q 281 235 242 290 q 389 149 319 179 q 549 118 458 118 q 683 140 626 118 q 792 201 740 163 l 860 97 q 769 41 824 67 q 653 1 715 15 q 529 -14 592 -14 m 350 843 l 297 889 l 457 1046 l 576 1046 l 736 889 l 683 843 l 496 944 l 538 944 l 350 843 z "},"ế":{"ha":1006,"x_min":100,"x_max":911,"o":"m 529 -14 q 307 34 404 -14 q 155 165 210 82 q 100 357 100 249 q 132 517 100 446 q 220 639 164 588 q 353 718 276 690 q 517 746 429 746 q 665 719 596 746 q 785 646 733 693 q 865 534 836 599 q 892 392 893 469 l 890 325 l 217 325 l 185 439 l 767 439 l 746 421 l 746 454 q 707 536 740 500 q 624 593 674 572 q 517 614 574 614 q 372 588 433 614 q 276 506 310 561 q 242 367 242 451 q 281 235 242 290 q 389 149 319 179 q 549 118 458 118 q 683 140 626 118 q 792 201 740 163 l 860 97 q 769 41 824 67 q 653 1 715 15 q 529 -14 592 -14 m 350 843 l 297 889 l 457 1046 l 576 1046 l 736 889 l 683 843 l 496 944 l 538 944 l 350 843 m 749 1035 l 676 1085 l 790 1288 l 911 1201 l 749 1035 z "},"ệ":{"ha":1006,"x_min":100,"x_max":893,"o":"m 529 -14 q 307 34 404 -14 q 155 165 210 82 q 100 357 100 249 q 132 517 100 446 q 220 639 164 588 q 353 718 276 690 q 517 746 429 746 q 665 719 596 746 q 785 646 733 693 q 865 534 836 599 q 892 392 893 469 l 890 325 l 217 325 l 185 439 l 767 439 l 746 421 l 746 454 q 707 536 740 500 q 624 593 674 572 q 517 614 574 614 q 372 588 433 614 q 276 506 310 561 q 242 367 242 451 q 281 235 242 290 q 389 149 319 179 q 549 118 458 118 q 683 140 626 118 q 792 201 740 163 l 860 97 q 769 41 824 67 q 653 1 715 15 q 529 -14 592 -14 m 529 -286 q 458 -262 482 -286 q 433 -196 433 -237 q 458 -132 433 -158 q 529 -106 483 -106 q 601 -130 576 -106 q 625 -196 625 -154 q 600 -260 625 -233 q 529 -286 575 -286 m 350 843 l 297 889 l 457 1046 l 576 1046 l 736 889 l 683 843 l 496 944 l 538 944 l 350 843 z "},"ề":{"ha":1006,"x_min":100,"x_max":893,"o":"m 529 -14 q 307 34 404 -14 q 155 165 210 82 q 100 357 100 249 q 132 517 100 446 q 220 639 164 588 q 353 718 276 690 q 517 746 429 746 q 665 719 596 746 q 785 646 733 693 q 865 534 836 599 q 892 392 893 469 l 890 325 l 217 325 l 185 439 l 767 439 l 746 421 l 746 454 q 707 536 740 500 q 624 593 674 572 q 517 614 574 614 q 372 588 433 614 q 276 506 310 561 q 242 367 242 451 q 281 235 242 290 q 389 149 319 179 q 549 118 458 118 q 683 140 626 118 q 792 201 740 163 l 860 97 q 769 41 824 67 q 653 1 715 15 q 529 -14 592 -14 m 350 843 l 297 889 l 457 1046 l 576 1046 l 736 889 l 683 843 l 496 944 l 538 944 l 350 843 m 729 1032 l 561 1200 l 681 1288 l 796 1085 l 729 1032 z "},"ể":{"ha":1006,"x_min":100,"x_max":893,"o":"m 529 -14 q 307 34 404 -14 q 155 165 210 82 q 100 357 100 249 q 132 517 100 446 q 220 639 164 588 q 353 718 276 690 q 517 746 429 746 q 665 719 596 746 q 785 646 733 693 q 865 534 836 599 q 892 392 893 469 l 890 325 l 217 325 l 185 439 l 767 439 l 746 421 l 746 454 q 707 536 740 500 q 624 593 674 572 q 517 614 574 614 q 372 588 433 614 q 276 506 310 561 q 242 367 242 451 q 281 235 242 290 q 389 149 319 179 q 549 118 458 118 q 683 140 626 118 q 792 201 740 163 l 860 97 q 769 41 824 67 q 653 1 715 15 q 529 -14 592 -14 m 350 843 l 297 889 l 457 1046 l 576 1046 l 736 889 l 683 843 l 496 944 l 538 944 l 350 843 m 717 1017 q 701 1044 707 1031 q 696 1069 696 1057 q 703 1097 696 1082 q 733 1128 711 1113 q 766 1151 757 1143 q 775 1169 775 1160 q 763 1188 775 1182 q 733 1193 751 1193 q 685 1188 711 1193 q 635 1168 658 1183 l 613 1256 q 675 1281 642 1272 q 736 1289 708 1289 q 847 1258 810 1289 q 883 1182 883 1226 q 867 1127 883 1147 q 832 1097 851 1107 q 795 1076 807 1085 q 783 1053 783 1067 q 785 1043 783 1047 q 788 1035 786 1039 l 717 1017 z "},"ễ":{"ha":1006,"x_min":100,"x_max":893,"o":"m 529 -14 q 307 34 404 -14 q 155 165 210 82 q 100 357 100 249 q 132 517 100 446 q 220 639 164 588 q 353 718 276 690 q 517 746 429 746 q 665 719 596 746 q 785 646 733 693 q 865 534 836 599 q 892 392 893 469 l 890 325 l 217 325 l 185 439 l 767 439 l 746 421 l 746 454 q 707 536 740 500 q 624 593 674 572 q 517 614 574 614 q 372 588 433 614 q 276 506 310 561 q 242 367 242 451 q 281 235 242 290 q 389 149 319 179 q 549 118 458 118 q 683 140 626 118 q 792 201 740 163 l 860 97 q 769 41 824 67 q 653 1 715 15 q 529 -14 592 -14 m 349 843 l 296 889 l 456 1046 l 575 1046 l 735 889 l 682 843 l 494 944 l 536 944 l 349 843 m 621 1121 q 554 1134 581 1121 q 503 1157 528 1147 q 471 1171 486 1164 q 438 1178 456 1178 q 406 1164 419 1178 q 386 1126 392 1150 l 292 1140 q 333 1242 294 1199 q 424 1286 372 1286 q 481 1273 456 1286 q 531 1249 506 1260 q 565 1234 549 1240 q 594 1228 581 1228 q 627 1241 614 1228 q 646 1281 640 1254 l 740 1267 q 724 1194 739 1228 q 684 1141 710 1161 q 621 1121 658 1121 z "},"ȅ":{"ha":1006,"x_min":100,"x_max":893,"o":"m 529 -14 q 307 34 404 -14 q 155 165 210 82 q 100 357 100 249 q 132 517 100 446 q 220 639 164 588 q 353 718 276 690 q 517 746 429 746 q 665 719 596 746 q 785 646 733 693 q 865 534 836 599 q 892 392 893 469 l 890 325 l 217 325 l 185 439 l 767 439 l 746 421 l 746 454 q 707 536 740 500 q 624 593 674 572 q 517 614 574 614 q 372 588 433 614 q 276 506 310 561 q 242 367 242 451 q 281 235 242 290 q 389 149 319 179 q 549 118 458 118 q 683 140 626 118 q 792 201 740 163 l 860 97 q 769 41 824 67 q 653 1 715 15 q 529 -14 592 -14 m 663 842 l 421 972 l 511 1086 l 710 913 l 663 842 m 386 842 l 144 972 l 235 1086 l 433 913 l 386 842 z "},"ë":{"ha":1006,"x_min":100,"x_max":893,"o":"m 529 -14 q 307 34 404 -14 q 155 165 210 82 q 100 357 100 249 q 132 517 100 446 q 220 639 164 588 q 353 718 276 690 q 517 746 429 746 q 665 719 596 746 q 785 646 733 693 q 865 534 836 599 q 892 392 893 469 l 890 325 l 217 325 l 185 439 l 767 439 l 746 421 l 746 454 q 707 536 740 500 q 624 593 674 572 q 517 614 574 614 q 372 588 433 614 q 276 506 310 561 q 242 367 242 451 q 281 235 242 290 q 389 149 319 179 q 549 118 458 118 q 683 140 626 118 q 792 201 740 163 l 860 97 q 769 41 824 67 q 653 1 715 15 q 529 -14 592 -14 m 656 897 q 585 921 610 897 q 560 988 560 944 q 585 1053 560 1028 q 656 1078 611 1078 q 726 1054 701 1078 q 751 988 751 1031 q 726 922 751 947 q 656 897 700 897 m 378 897 q 307 921 332 897 q 282 988 282 944 q 308 1053 282 1028 q 378 1078 333 1078 q 449 1054 424 1078 q 474 988 474 1031 q 448 922 474 947 q 378 897 422 897 z "},"ė":{"ha":1006,"x_min":100,"x_max":893,"o":"m 529 -14 q 307 34 404 -14 q 155 165 210 82 q 100 357 100 249 q 132 517 100 446 q 220 639 164 588 q 353 718 276 690 q 517 746 429 746 q 665 719 596 746 q 785 646 733 693 q 865 534 836 599 q 892 392 893 469 l 890 325 l 217 325 l 185 439 l 767 439 l 746 421 l 746 454 q 707 536 740 500 q 624 593 674 572 q 517 614 574 614 q 372 588 433 614 q 276 506 310 561 q 242 367 242 451 q 281 235 242 290 q 389 149 319 179 q 549 118 458 118 q 683 140 626 118 q 792 201 740 163 l 860 97 q 769 41 824 67 q 653 1 715 15 q 529 -14 592 -14 m 517 896 q 446 919 471 896 q 421 986 421 943 q 447 1051 421 1026 q 517 1076 472 1076 q 588 1053 563 1076 q 613 986 613 1029 q 587 921 613 946 q 517 896 561 896 z "},"ẹ":{"ha":1006,"x_min":100,"x_max":893,"o":"m 529 -14 q 307 34 404 -14 q 155 165 210 82 q 100 357 100 249 q 132 517 100 446 q 220 639 164 588 q 353 718 276 690 q 517 746 429 746 q 665 719 596 746 q 785 646 733 693 q 865 534 836 599 q 892 392 893 469 l 890 325 l 217 325 l 185 439 l 767 439 l 746 421 l 746 454 q 707 536 740 500 q 624 593 674 572 q 517 614 574 614 q 372 588 433 614 q 276 506 310 561 q 242 367 242 451 q 281 235 242 290 q 389 149 319 179 q 549 118 458 118 q 683 140 626 118 q 792 201 740 163 l 860 97 q 769 41 824 67 q 653 1 715 15 q 529 -14 592 -14 m 529 -286 q 458 -262 482 -286 q 433 -196 433 -237 q 458 -132 433 -158 q 529 -106 483 -106 q 601 -130 576 -106 q 625 -196 625 -154 q 600 -260 625 -233 q 529 -286 575 -286 z "},"è":{"ha":1006,"x_min":100,"x_max":893,"o":"m 529 -14 q 307 34 404 -14 q 155 165 210 82 q 100 357 100 249 q 132 517 100 446 q 220 639 164 588 q 353 718 276 690 q 517 746 429 746 q 665 719 596 746 q 785 646 733 693 q 865 534 836 599 q 892 392 893 469 l 890 325 l 217 325 l 185 439 l 767 439 l 746 421 l 746 454 q 707 536 740 500 q 624 593 674 572 q 517 614 574 614 q 372 588 433 614 q 276 506 310 561 q 242 367 242 451 q 281 235 242 290 q 389 149 319 179 q 549 118 458 118 q 683 140 626 118 q 792 201 740 163 l 860 97 q 769 41 824 67 q 653 1 715 15 q 529 -14 592 -14 m 592 842 l 350 972 l 440 1086 l 639 913 l 592 842 z "},"ẻ":{"ha":1006,"x_min":100,"x_max":893,"o":"m 529 -14 q 307 34 404 -14 q 155 165 210 82 q 100 357 100 249 q 132 517 100 446 q 220 639 164 588 q 353 718 276 690 q 517 746 429 746 q 665 719 596 746 q 785 646 733 693 q 865 534 836 599 q 892 392 893 469 l 890 325 l 217 325 l 185 439 l 767 439 l 746 421 l 746 454 q 707 536 740 500 q 624 593 674 572 q 517 614 574 614 q 372 588 433 614 q 276 506 310 561 q 242 367 242 451 q 281 235 242 290 q 389 149 319 179 q 549 118 458 118 q 683 140 626 118 q 792 201 740 163 l 860 97 q 769 41 824 67 q 653 1 715 15 q 529 -14 592 -14 m 485 824 q 469 851 475 838 q 464 876 464 864 q 472 904 464 889 q 501 935 479 919 q 534 958 525 950 q 543 976 543 967 q 531 994 543 989 q 501 1000 519 1000 q 453 993 479 1000 q 403 975 426 986 l 381 1063 q 443 1088 410 1079 q 504 1096 476 1096 q 615 1065 578 1096 q 651 989 651 1033 q 635 934 651 954 q 600 904 619 914 q 563 883 575 892 q 551 860 551 874 q 553 850 551 854 q 556 842 554 846 l 485 824 z "},"ȇ":{"ha":1006,"x_min":100,"x_max":893,"o":"m 529 -14 q 307 34 404 -14 q 155 165 210 82 q 100 357 100 249 q 132 517 100 446 q 220 639 164 588 q 353 718 276 690 q 517 746 429 746 q 665 719 596 746 q 785 646 733 693 q 865 534 836 599 q 892 392 893 469 l 890 325 l 217 325 l 185 439 l 767 439 l 746 421 l 746 454 q 707 536 740 500 q 624 593 674 572 q 517 614 574 614 q 372 588 433 614 q 276 506 310 561 q 242 367 242 451 q 281 235 242 290 q 389 149 319 179 q 549 118 458 118 q 683 140 626 118 q 792 201 740 163 l 860 97 q 769 41 824 67 q 653 1 715 15 q 529 -14 592 -14 m 394 832 l 292 849 q 369 1005 311 947 q 517 1063 428 1063 q 664 1005 606 1063 q 742 849 722 947 l 639 832 q 590 918 621 886 q 517 950 558 950 q 444 918 475 950 q 394 832 413 886 z "},"ē":{"ha":1006,"x_min":100,"x_max":893,"o":"m 529 -14 q 307 34 404 -14 q 155 165 210 82 q 100 357 100 249 q 132 517 100 446 q 220 639 164 588 q 353 718 276 690 q 517 746 429 746 q 665 719 596 746 q 785 646 733 693 q 865 534 836 599 q 892 392 893 469 l 890 325 l 217 325 l 185 439 l 767 439 l 746 421 l 746 454 q 707 536 740 500 q 624 593 674 572 q 517 614 574 614 q 372 588 433 614 q 276 506 310 561 q 242 367 242 451 q 281 235 242 290 q 389 149 319 179 q 549 118 458 118 q 683 140 626 118 q 792 201 740 163 l 860 97 q 769 41 824 67 q 653 1 715 15 q 529 -14 592 -14 m 314 892 l 314 996 l 719 996 l 719 892 l 314 892 z "},"ḗ":{"ha":1006,"x_min":100,"x_max":893,"o":"m 529 -14 q 307 34 404 -14 q 155 165 210 82 q 100 357 100 249 q 132 517 100 446 q 220 639 164 588 q 353 718 276 690 q 517 746 429 746 q 665 719 596 746 q 785 646 733 693 q 865 534 836 599 q 892 392 893 469 l 890 325 l 217 325 l 185 439 l 767 439 l 746 421 l 746 454 q 707 536 740 500 q 624 593 674 572 q 517 614 574 614 q 372 588 433 614 q 276 506 310 561 q 242 367 242 451 q 281 235 242 290 q 389 149 319 179 q 549 118 458 118 q 683 140 626 118 q 792 201 740 163 l 860 97 q 769 41 824 67 q 653 1 715 15 q 529 -14 592 -14 m 319 878 l 319 982 l 714 982 l 714 878 l 319 878 m 517 1038 l 444 1088 l 572 1283 l 679 1204 l 517 1038 z "},"ḕ":{"ha":1006,"x_min":100,"x_max":893,"o":"m 529 -14 q 307 34 404 -14 q 155 165 210 82 q 100 357 100 249 q 132 517 100 446 q 220 639 164 588 q 353 718 276 690 q 517 746 429 746 q 665 719 596 746 q 785 646 733 693 q 865 534 836 599 q 892 392 893 469 l 890 325 l 217 325 l 185 439 l 767 439 l 746 421 l 746 454 q 707 536 740 500 q 624 593 674 572 q 517 614 574 614 q 372 588 433 614 q 276 506 310 561 q 242 367 242 451 q 281 235 242 290 q 389 149 319 179 q 549 118 458 118 q 683 140 626 118 q 792 201 740 163 l 860 97 q 769 41 824 67 q 653 1 715 15 q 529 -14 592 -14 m 538 1038 l 375 1204 l 482 1283 l 610 1088 l 538 1038 m 319 878 l 319 982 l 714 982 l 714 878 l 319 878 z "},"ę":{"ha":1006,"x_min":100,"x_max":893,"o":"m 667 -278 q 550 -237 592 -278 q 508 -140 508 -196 q 546 -32 508 -78 q 647 49 583 14 q 785 114 710 83 l 815 65 q 680 -24 725 18 q 635 -114 635 -67 q 649 -155 635 -139 q 688 -171 664 -171 q 721 -162 708 -171 q 746 -136 733 -153 l 824 -192 q 788 -234 811 -214 q 734 -266 765 -254 q 667 -278 703 -278 m 529 -14 q 307 34 404 -14 q 155 165 210 82 q 100 357 100 249 q 132 517 100 446 q 220 639 164 588 q 353 718 276 690 q 517 746 429 746 q 665 719 596 746 q 785 646 733 693 q 865 534 836 599 q 892 392 893 469 l 890 325 l 217 325 l 185 439 l 767 439 l 746 421 l 746 454 q 707 536 740 500 q 624 593 674 572 q 517 614 574 614 q 372 588 433 614 q 276 506 310 561 q 242 367 242 451 q 281 235 242 290 q 389 149 319 179 q 549 118 458 118 q 683 140 626 118 q 792 201 740 163 l 860 97 q 769 41 824 67 q 653 1 715 15 q 529 -14 592 -14 z "},"ẽ":{"ha":1006,"x_min":100,"x_max":893,"o":"m 529 -14 q 307 34 404 -14 q 155 165 210 82 q 100 357 100 249 q 132 517 100 446 q 220 639 164 588 q 353 718 276 690 q 517 746 429 746 q 665 719 596 746 q 785 646 733 693 q 865 534 836 599 q 892 392 893 469 l 890 325 l 217 325 l 185 439 l 767 439 l 746 421 l 746 454 q 707 536 740 500 q 624 593 674 572 q 517 614 574 614 q 372 588 433 614 q 276 506 310 561 q 242 367 242 451 q 281 235 242 290 q 389 149 319 179 q 549 118 458 118 q 683 140 626 118 q 792 201 740 163 l 860 97 q 769 41 824 67 q 653 1 715 15 q 529 -14 592 -14 m 588 854 q 541 865 560 854 q 501 893 522 876 q 462 926 475 917 q 438 935 449 935 q 406 915 419 935 q 386 854 392 894 l 292 868 q 335 986 294 936 q 444 1036 376 1036 q 491 1025 472 1036 q 531 997 510 1014 q 571 965 558 975 q 594 956 583 956 q 627 976 614 956 q 646 1036 640 997 l 740 1022 q 719 939 739 978 q 667 877 700 900 q 588 854 633 854 z "},"ə":{"ha":1006,"x_min":114,"x_max":906,"o":"m 489 -17 q 299 30 383 -15 q 164 155 214 75 q 114 338 114 235 l 115 404 l 789 404 l 821 290 l 239 290 l 260 308 l 260 275 q 299 193 267 229 q 382 136 332 157 q 489 115 432 115 q 634 142 572 115 q 730 223 696 168 q 764 363 764 278 q 725 494 764 439 q 617 581 686 550 q 457 611 549 611 q 322 589 379 611 q 214 528 265 567 l 146 632 q 237 689 183 664 q 352 728 290 714 q 476 743 414 743 q 699 696 603 743 q 851 565 796 649 q 906 372 906 481 q 874 213 906 283 q 785 90 842 142 q 653 11 729 39 q 489 -17 576 -17 z "},"f":{"ha":733,"x_min":118,"x_max":675,"o":"m 257 0 l 257 778 q 289 906 257 850 q 377 994 321 963 q 507 1026 433 1026 q 608 1008 564 1026 q 675 965 651 990 l 626 850 q 578 880 606 867 q 524 893 550 893 q 449 878 478 893 q 408 838 421 864 q 396 778 396 811 l 396 0 l 326 0 q 294 0 311 0 q 257 0 276 0 m 118 579 l 118 711 l 629 711 l 629 579 l 118 579 z "},"g":{"ha":1097,"x_min":106,"x_max":926,"o":"m 533 -319 q 354 -294 436 -319 q 222 -232 272 -269 l 274 -118 q 343 -153 303 -136 q 432 -181 383 -169 q 533 -192 481 -192 q 667 -164 611 -192 q 753 -82 722 -136 q 783 50 783 -28 l 783 168 l 799 158 q 745 77 790 117 q 633 12 700 38 q 492 -14 565 -14 q 292 35 379 -14 q 156 170 206 85 q 106 365 106 256 q 156 560 106 475 q 296 695 207 646 q 499 744 385 744 q 578 735 536 744 q 661 708 621 725 q 735 668 701 690 q 790 620 768 646 q 814 569 811 594 l 783 558 l 783 729 l 926 729 l 926 67 q 897 -101 926 -29 q 814 -221 867 -172 q 689 -294 761 -269 q 533 -319 617 -319 m 524 118 q 662 150 601 118 q 756 238 722 182 q 789 365 789 293 q 755 494 789 438 q 661 582 721 550 q 524 614 601 614 q 383 581 444 614 q 287 492 322 549 q 251 365 251 436 q 287 238 251 294 q 383 150 322 182 q 524 118 444 118 z "},"ğ":{"ha":1097,"x_min":106,"x_max":926,"o":"m 533 -319 q 354 -294 436 -319 q 222 -232 272 -269 l 274 -118 q 343 -153 303 -136 q 432 -181 383 -169 q 533 -192 481 -192 q 667 -164 611 -192 q 753 -82 722 -136 q 783 50 783 -28 l 783 168 l 799 158 q 745 77 790 117 q 633 12 700 38 q 492 -14 565 -14 q 292 35 379 -14 q 156 170 206 85 q 106 365 106 256 q 156 560 106 475 q 296 695 207 646 q 499 744 385 744 q 578 735 536 744 q 661 708 621 725 q 735 668 701 690 q 790 620 768 646 q 814 569 811 594 l 783 558 l 783 729 l 926 729 l 926 67 q 897 -101 926 -29 q 814 -221 867 -172 q 689 -294 761 -269 q 533 -319 617 -319 m 524 118 q 662 150 601 118 q 756 238 722 182 q 789 365 789 293 q 755 494 789 438 q 661 582 721 550 q 524 614 601 614 q 383 581 444 614 q 287 492 322 549 q 251 365 251 436 q 287 238 251 294 q 383 150 322 182 q 524 118 444 118 m 539 818 q 392 876 450 818 q 314 1032 333 933 l 417 1049 q 466 963 435 994 q 539 931 497 931 q 612 963 581 931 q 661 1049 643 994 l 764 1032 q 686 876 744 933 q 539 818 628 818 z "},"ǧ":{"ha":1097,"x_min":106,"x_max":926,"o":"m 533 -319 q 354 -294 436 -319 q 222 -232 272 -269 l 274 -118 q 343 -153 303 -136 q 432 -181 383 -169 q 533 -192 481 -192 q 667 -164 611 -192 q 753 -82 722 -136 q 783 50 783 -28 l 783 168 l 799 158 q 745 77 790 117 q 633 12 700 38 q 492 -14 565 -14 q 292 35 379 -14 q 156 170 206 85 q 106 365 106 256 q 156 560 106 475 q 296 695 207 646 q 499 744 385 744 q 578 735 536 744 q 661 708 621 725 q 735 668 701 690 q 790 620 768 646 q 814 569 811 594 l 783 558 l 783 729 l 926 729 l 926 67 q 897 -101 926 -29 q 814 -221 867 -172 q 689 -294 761 -269 q 533 -319 617 -319 m 524 118 q 662 150 601 118 q 756 238 722 182 q 789 365 789 293 q 755 494 789 438 q 661 582 721 550 q 524 614 601 614 q 383 581 444 614 q 287 492 322 549 q 251 365 251 436 q 287 238 251 294 q 383 150 322 182 q 524 118 444 118 m 479 843 l 333 1000 l 386 1046 l 560 944 l 518 944 l 692 1046 l 744 1000 l 599 843 l 479 843 z "},"ĝ":{"ha":1097,"x_min":106,"x_max":926,"o":"m 533 -319 q 354 -294 436 -319 q 222 -232 272 -269 l 274 -118 q 343 -153 303 -136 q 432 -181 383 -169 q 533 -192 481 -192 q 667 -164 611 -192 q 753 -82 722 -136 q 783 50 783 -28 l 783 168 l 799 158 q 745 77 790 117 q 633 12 700 38 q 492 -14 565 -14 q 292 35 379 -14 q 156 170 206 85 q 106 365 106 256 q 156 560 106 475 q 296 695 207 646 q 499 744 385 744 q 578 735 536 744 q 661 708 621 725 q 735 668 701 690 q 790 620 768 646 q 814 569 811 594 l 783 558 l 783 729 l 926 729 l 926 67 q 897 -101 926 -29 q 814 -221 867 -172 q 689 -294 761 -269 q 533 -319 617 -319 m 524 118 q 662 150 601 118 q 756 238 722 182 q 789 365 789 293 q 755 494 789 438 q 661 582 721 550 q 524 614 601 614 q 383 581 444 614 q 287 492 322 549 q 251 365 251 436 q 287 238 251 294 q 383 150 322 182 q 524 118 444 118 m 372 843 l 319 889 l 479 1046 l 599 1046 l 758 889 l 706 843 l 518 944 l 560 944 l 372 843 z "}}}
